<?xml version="1.0" encoding="utf-8"?><svg viewBox="0 0 50 50" xmlns="http://www.w3.org/2000/svg" xmlns:xlink="http://www.w3.org/1999/xlink"><style>:root>svg{display:none}:root>svg:target{display:block}</style><svg viewBox="0 0 43.144 36" id="bed" xmlns="http://www.w3.org/2000/svg"><g fill="#009688"><path data-name="Path 62" d="M0 36h3.088v-6.2h37.035v6.167h3.017V25.039a4.569 4.569 0 00-.769-2.62 3.923 3.923 0 00-3.185-1.757c-1.516-.047-36.105-.035-36.105-.035L3.059 9.673A1.5 1.5 0 001.58 8.331c-1.328 0-1.443.834-1.518 1.272S0 36 0 36z"/><path data-name="Path 63" d="M8.49 12.946H4.622v6.028h9.243a4.908 4.908 0 00-.584-2.609 6.324 6.324 0 00-2.677-2.744 5.869 5.869 0 00-2.114-.675z"/><path data-name="Path 64" d="M23.594 4.766v2.836h4.779v4.737a15.965 15.965 0 002.895 0v-4.74h4.678V4.763h-4.678V-.001h-2.895v4.766z"/></g></svg><svg viewBox="0 0 20 20" id="c" xmlns="http://www.w3.org/2000/svg"><path data-name="Path 226" d="M18.242 3.125h-1.758V1.172a1.172 1.172 0 10-2.344 0v1.1a1.36 1.36 0 01-.965 1.307l-.988.3v6.128a1.843 1.843 0 001.3.54h4.753a1.758 1.758 0 001.758-1.758V4.883a1.758 1.758 0 00-1.756-1.758z" fill="#009688"/><path data-name="Path 227" d="M10.43 10.547H9.258a.586.586 0 01-.586-.586v-6.25a.586.586 0 01.586-.586h1.172a.586.586 0 01.586.586v6.25a.586.586 0 01-.586.586z" fill="#009688"/><path data-name="Path 228" d="M13.489 11.714a2.992 2.992 0 01-1.765-.571 1.753 1.753 0 01-1.295.571H9.258A1.758 1.758 0 017.5 9.961V6.914H.586A.586.586 0 000 7.5v11.9a.6.6 0 00.274.514.586.586 0 00.637-.008l2.2-1.464H15.43a.586.586 0 00.586-.586v-6.142zM2.93 9.844h3.32a.586.586 0 010 1.172H2.93a.586.586 0 010-1.172zm10.156 6.445H2.93a.586.586 0 010-1.172h10.156a.586.586 0 010 1.172zm0-2.637H2.93a.586.586 0 010-1.172h10.156a.586.586 0 010 1.172z" fill="#009688"/></svg><svg viewBox="0 0 21.051 15.788" id="checked" xmlns="http://www.w3.org/2000/svg"><path d="M0 8.566l7.209 7.222L21.051 1.957l-1.987-1.96L7.209 11.841 1.96 6.592z" fill="#fff"/></svg><svg viewBox="0 0 20 18.929" id="co" xmlns="http://www.w3.org/2000/svg"><g data-name="Group 226"><g data-name="Group 225" fill="#009688"><path data-name="Path 238" d="M15.234 16.283l-3.371-2.248a.347.347 0 00-.464.075l-.982 1.262a1.052 1.052 0 01-1.349.278l-.181-.1a11.858 11.858 0 01-3.088-2.42 11.843 11.843 0 01-2.42-3.089l-.1-.181a1.052 1.052 0 01.278-1.348l1.262-.982a.347.347 0 00.075-.464L2.647 3.694a.345.345 0 00-.464-.1L.772 4.44a1.357 1.357 0 00-.621.8c-.463 1.687-.074 4.641 4.414 9.129s7.441 4.878 9.129 4.414a1.357 1.357 0 00.8-.622l.846-1.411a.345.345 0 00-.106-.467z"/><path data-name="Path 239" d="M19.943.057a.194.194 0 00-.14-.057H4.836a.194.194 0 00-.2.2v5.2l.849 1.273a1.064 1.064 0 01-.231 1.425l-1.261.982a.341.341 0 00-.092.437l.1.188a9.007 9.007 0 001.192 1.738h14.6a.2.2 0 00.2-.192V.2a.194.194 0 00-.05-.143zm-10.149 6.5L6.13 10.472a.357.357 0 11-.523-.487l3.659-3.919a.357.357 0 01.523.487zm2.526-.281a1.184 1.184 0 01-.714-.236L5.63 1.509A.358.358 0 116.064.94l5.968 4.527a.482.482 0 00.567 0L18.569.94a.357.357 0 01.432.569L13.03 6.036a1.184 1.184 0 01-.71.236zm6.71 4.214a.357.357 0 01-.505-.018l-3.659-3.921a.357.357 0 01.523-.485l3.658 3.919a.357.357 0 01-.017.505z"/></g></g></svg><svg viewBox="0 0 104 22" id="covid" xmlns="http://www.w3.org/2000/svg"><g fill="#f8f8f8"><text data-name="Covid - 19" transform="translate(32 17)" stroke="rgba(0,0,0,0)" stroke-miterlimit="10" font-size="16" font-family="Roboto-Regular, Roboto"><tspan x="0" y="0">Covid - 19</tspan></text><path data-name="Path 40" d="M20.633 10.317a.966.966 0 00-1.1.635l-1.1-.481v-.222a7.686 7.686 0 00-.241-1.912l.5-.33a1.1 1.1 0 001.75-1.228l-.232-.624a1.106 1.106 0 00-1.38-.679 1.1 1.1 0 00-.758 1.044l-.56.078a8.24 8.24 0 00-.25-.425.314.314 0 00-.532.335c.106.168.2.335.288.5a.439.439 0 00.449.232l1.01-.141a.314.314 0 00.252-.417.471.471 0 01.3-.607.485.485 0 01.594.3l.232.624a.488.488 0 01-.246.615.473.473 0 01-.591-.187.314.314 0 00-.445-.1l-.838.568a.438.438 0 00-.176.479 7.049 7.049 0 01.253 1.876c0 .1 0 .213-.008.324a.441.441 0 00.262.422l1.57.686a.314.314 0 00.434-.227l.05-.254a.337.337 0 01.662.13l-.258 1.312a.337.337 0 01-.412.262.351.351 0 01-.246-.41l.007-.035a.314.314 0 00-.323-.374l-1.7.077a.441.441 0 00-.4.3 7.011 7.011 0 01-.621 1.364.439.439 0 00.041.505l.751.893a.314.314 0 00.457.025.47.47 0 01.7.627l-.218.285a.486.486 0 01-.651.117.473.473 0 01-.179-.538.314.314 0 00-.171-.388l-1.083-.475a.438.438 0 00-.5.106 7.057 7.057 0 01-1.657 1.342.441.441 0 00-.212.449l.277 1.69a.314.314 0 00.427.241l.24-.1a.337.337 0 01.444.2.351.351 0 01-.211.43l-1.225.49a.337.337 0 01-.444-.2.351.351 0 01.211-.43l.033-.013a.314.314 0 00.139-.474l-.988-1.384a.441.441 0 00-.467-.169 7.074 7.074 0 01-3.182.083.441.441 0 00-.457.193l-.989 1.551a.314.314 0 00.157.464l.035.013a.478.478 0 01.286.613.313.313 0 00-.019.108.245.245 0 01-.371.259l-1.215-.443a.481.481 0 01-.289-.6.463.463 0 01.243-.267.512.512 0 01.393-.02l.028.01a.314.314 0 00.42-.261l.2-1.818a.441.441 0 00-.235-.437 7.036 7.036 0 01-1.956-1.497.44.44 0 00-.488-.109l-1.482.608a.314.314 0 00-.158.439.382.382 0 01-.128.5.4.4 0 01-.538-.118l-.38-.547a.4.4 0 01.066-.536.384.384 0 01.544.07.314.314 0 00.486.019l1.044-1.18a.439.439 0 00.055-.5 7.035 7.035 0 01-.31-.634.314.314 0 00-.578.248c.084.2.176.387.274.572l-.748.845a1.014 1.014 0 00-1.156.069 1.024 1.024 0 00-.193 1.388l.38.547a1.029 1.029 0 001.4.285 1.008 1.008 0 00.447-.994l1.093-.448a7.661 7.661 0 001.922 1.467l-.15 1.35a1.144 1.144 0 00-.524.111 1.087 1.087 0 00-.567.63 1.113 1.113 0 00.668 1.4l1.215.443a1.059 1.059 0 00.362.066.839.839 0 00.485-.148.9.9 0 00.366-.713 1.109 1.109 0 00-.375-1.2l.738-1.158a7.734 7.734 0 003.209-.084l.717 1a.964.964 0 001 1.613l1.225-.49a.974.974 0 00.579-1.211.958.958 0 00-.512-.563.971.971 0 00-.635-.059l-.194-1.184a7.683 7.683 0 001.6-1.294l.731.321a1.1 1.1 0 001.981.715l.218-.285a1.1 1.1 0 00-1.359-1.651l-.482-.573a7.648 7.648 0 00.567-1.246l1.233-.056a.964.964 0 001.9.035l.258-1.312a.967.967 0 00-.765-1.138z"/><path data-name="Path 41" d="M2.025 11.166l1.178.272c.026.164.057.33.095.5a.314.314 0 10.613-.138 5.71 5.71 0 01-.1-.574.441.441 0 00-.335-.367L1.8 10.473a.314.314 0 00-.385.3v.2a.4.4 0 01-.4.4.387.387 0 01-.386-.4L.64 9.762a.423.423 0 01.13-.3.377.377 0 01.275-.11.4.4 0 01.383.4.314.314 0 00.386.308l1.657-.388a.44.44 0 00.334-.368 6.96 6.96 0 01.874-2.562.439.439 0 00-.045-.5l-.79-.928a.314.314 0 00-.49.014l-.068.091a.307.307 0 01-.442.05.32.32 0 01-.044-.441l.526-.7a.307.307 0 01.5.349.314.314 0 00.14.457l1.1.478a.438.438 0 00.5-.107A7.052 7.052 0 017.31 4.126a.441.441 0 00.217-.446l-.254-1.694a.314.314 0 00-.424-.247l-.241.093a.337.337 0 01-.441-.209.351.351 0 01.217-.427L7.615.723a.337.337 0 01.441.209.351.351 0 01-.217.427l-.033.014a.314.314 0 00-.145.472l.969 1.4a.441.441 0 00.464.175 7.068 7.068 0 011.68-.2.44.44 0 00.414-.291l.321-.9a.314.314 0 00-.2-.406.509.509 0 01-.356-.55.5.5 0 01.191-.331.541.541 0 01.4-.112l.441.055a.523.523 0 01.464.563.506.506 0 01-.378.438.314.314 0 00-.233.34l.112.973a.438.438 0 00.342.378 6.982 6.982 0 012 .777.44.44 0 00.5-.039l1.33-1.079a.314.314 0 000-.49l-.2-.161a.337.337 0 01-.044-.487.351.351 0 01.478-.03l1.033.82a.337.337 0 01.044.487.351.351 0 01-.477.03l-.028-.022a.314.314 0 00-.481.115l-.712 1.546a.441.441 0 00.085.489c.045.046.089.093.141.15a.314.314 0 10.462-.426l-.063-.068.504-1.116a.964.964 0 00.9-1.67l-1.033-.82a.974.974 0 00-1.342.109.958.958 0 00-.235.724.971.971 0 00.264.58l-.931.756a7.608 7.608 0 00-1.932-.751l-.069-.6A1.138 1.138 0 0012.06.072l-.441-.055a1.175 1.175 0 00-.864.24 1.119 1.119 0 00-.428.753 1.138 1.138 0 00.494 1.077l-.182.509a7.7 7.7 0 00-1.566.177l-.7-1.014a.964.964 0 00-.98-1.626L6.162.606a.974.974 0 00-.588 1.211.958.958 0 00.5.57.971.971 0 00.634.067l.178 1.187a7.676 7.676 0 00-1.68 1.344L4.5 4.679a.941.941 0 00-.36-.906.936.936 0 00-1.31.18l-.526.7a.943.943 0 00.136 1.3.928.928 0 00.706.211.939.939 0 00.446-.175l.476.559A7.579 7.579 0 003.2 9.086l-1.217.287a1.029 1.029 0 00-.922-.646 1 1 0 00-.728.286 1.056 1.056 0 00-.322.745L0 10.973a1.016 1.016 0 001.016 1.02 1.033 1.033 0 001.009-.828z"/><path data-name="Path 42" d="M9.218 9.45a.314.314 0 10-.294-.555 1.616 1.616 0 01-2.035-.25 1.352 1.352 0 01-.233-1.137 2.164 2.164 0 012.088-1.646 1.352 1.352 0 011.051.492 1.519 1.519 0 01-.012 1.74.314.314 0 00.536.329 2.138 2.138 0 00-.03-2.458 1.969 1.969 0 00-1.527-.731 2.791 2.791 0 00-2.725 2.143 1.97 1.97 0 00.354 1.656 2 2 0 001.6.729 2.62 2.62 0 001.227-.312z"/><path data-name="Path 43" d="M15.317 6.632a1.364 1.364 0 10-1.352 1.182 1.277 1.277 0 001.352-1.182zm-2.075 0a.749.749 0 11.723.553.656.656 0 01-.723-.553z"/><path data-name="Path 44" d="M11.669 12.033a1.448 1.448 0 10-1.448 1.448 1.45 1.45 0 001.448-1.448zm-2.268 0a.82.82 0 11.82.82.821.821 0 01-.82-.82z"/><path data-name="Path 45" d="M15.766 11.442a1.126 1.126 0 10-1.126 1.126 1.128 1.128 0 001.126-1.126zm-1.624 0a.5.5 0 11.5.5.5.5 0 01-.499-.5z"/><path data-name="Path 46" d="M11.642 16.504a1.1 1.1 0 10-1.1-1.1 1.1 1.1 0 001.1 1.1zm0-1.579a.475.475 0 11-.475.475.476.476 0 01.475-.47z"/><path data-name="Path 47" d="M6.703 14.653a1.137 1.137 0 10-1.137-1.137 1.138 1.138 0 001.137 1.137zm0-1.645a.508.508 0 11-.508.508.509.509 0 01.508-.507z"/><path data-name="Path 48" d="M13.102 9.583a.314.314 0 00-.314-.314h-.278a.315.315 0 000 .629h.278a.314.314 0 00.314-.315z"/><path data-name="Path 49" d="M8.801 15.392h.285a.315.315 0 100-.629h-.285a.315.315 0 000 .629z"/><path data-name="Path 50" d="M6.155 10.814a.315.315 0 100-.629H5.88a.315.315 0 100 .629z"/><path data-name="Path 51" d="M11.737 5.313a.315.315 0 000-.629h-.383a.315.315 0 000 .629z"/><path data-name="Path 52" d="M13.828 13.742a.315.315 0 100 .629h.423a.315.315 0 100-.629z"/></g></svg><svg viewBox="0 0 31.103 36" id="doctor" xmlns="http://www.w3.org/2000/svg"><g data-name="Group 93"><g data-name="Group 92"><path data-name="Path 66" d="M15.552 0a7.042 7.042 0 00-7.038 7.035v3.645a7.034 7.034 0 1014.068 0V7.035A7.042 7.042 0 0015.552 0z" fill="#009688"/></g></g><g data-name="Group 95"><g data-name="Group 94"><path data-name="Path 67" d="M31.064 26.881a17.842 17.842 0 00-10.138-8.013.28.28 0 00-.281.069 29.372 29.372 0 01-5.089 3.869 36.544 36.544 0 01-5.1-3.869.281.281 0 00-.281-.069A17.838 17.838 0 00.038 26.881a.282.282 0 000 .285 18.039 18.039 0 0031.025 0 .281.281 0 00.001-.285zm-5.946 2.1a.3.3 0 01-.3.274H22.91a.328.328 0 00-.325.289v1.97a.241.241 0 01-.238.273h-1.71a.293.293 0 01-.3-.273v-1.97a.272.272 0 00-.262-.289h-1.989a.277.277 0 01-.284-.274v-1.7a.283.283 0 01.284-.281h1.987a.266.266 0 00.261-.282v-1.973a.3.3 0 01.3-.278h1.693a.259.259 0 01.257.278v1.978s.15.276.306.276h1.924a.305.305 0 01.3.287z" fill="#009688"/></g></g></svg><svg viewBox="0 0 31.103 36" id="doctor-2" xmlns="http://www.w3.org/2000/svg"><g data-name="Group 98"><path data-name="Path 84" d="M23.931 12.651l-.485-7.66a5.33 5.33 0 00-5.319-4.993h-4.434a5.33 5.33 0 00-5.319 4.993l-.485 7.66a3.034 3.034 0 003.028 3.226h9.99a3.034 3.034 0 003.024-3.226z" fill="#009688"/><g data-name="Group 97"><path data-name="Path 71" d="M22.596 8.27h-.425a.458.458 0 00-.418-.456c-5.688-.512-7.557-2.106-9.109-3.715-.276-.286-2.95.843-2.993 3.468v.7h-.427A1.133 1.133 0 008.091 9.4v1.255a1.133 1.133 0 001.133 1.133h.428a6.358 6.358 0 002.445 4.3 5.249 5.249 0 007.626 0 6.358 6.358 0 002.445-4.3h.428a1.133 1.133 0 001.133-1.133V9.402a1.133 1.133 0 00-1.133-1.132z" fill="#009688"/></g></g><path data-name="Path 85" d="M31.064 26.897a17.837 17.837 0 00-10.138-8 .281.281 0 00-.281.068 29.371 29.371 0 01-5.089 3.863 36.543 36.543 0 01-5.1-3.863.281.281 0 00-.281-.068 17.833 17.833 0 00-10.137 8 .281.281 0 000 .284 18.054 18.054 0 0031.025 0 .28.28 0 00.001-.284zm-5.946 2.092a.294.294 0 01-.3.273H22.91a.328.328 0 00-.325.288v1.967a.241.241 0 01-.238.273h-1.71a.293.293 0 01-.3-.273V29.55a.272.272 0 00-.262-.288h-1.989a.277.277 0 01-.284-.273v-1.694a.283.283 0 01.284-.28h1.987a.265.265 0 00.261-.282v-1.969a.3.3 0 01.3-.277h1.693a.258.258 0 01.257.277v1.975s.15.276.306.276h1.924a.3.3 0 01.3.286z" fill="#009688"/></svg><svg viewBox="0 0 30.239 37.677" id="doctor-3" xmlns="http://www.w3.org/2000/svg"><g data-name="doctor (1)"><g data-name="Group 95"><g data-name="Group 94"><path data-name="Path 67" d="M30.201 28.814a17.346 17.346 0 00-9.856-7.79.273.273 0 00-.273.067 28.557 28.557 0 01-4.948 3.762 35.53 35.53 0 01-4.958-3.762.273.273 0 00-.273-.067 17.342 17.342 0 00-9.855 7.791.274.274 0 000 .277 17.537 17.537 0 0030.164 0 .273.273 0 00-.001-.278z" fill="#009688"/></g></g></g><g data-name="Group 98"><path data-name="Path 84" d="M23.266 14.92l-.471-7.447a5.182 5.182 0 00-5.171-4.854h-4.311a5.182 5.182 0 00-5.171 4.854l-.471 7.447a2.95 2.95 0 002.944 3.136h9.709a2.95 2.95 0 002.942-3.136z" fill="#009688"/><g data-name="Group 97"><path data-name="Path 71" d="M21.969 10.659h-.415a.445.445 0 00-.407-.439c-5.53-.5-7.347-2.047-8.856-3.612-.268-.278-2.868.819-2.91 3.371v.683h-.415a1.1 1.1 0 00-1.1 1.1v1.221a1.1 1.1 0 001.1 1.1h.417a6.181 6.181 0 002.377 4.182 5.1 5.1 0 007.414 0 6.181 6.181 0 002.377-4.182h.417a1.1 1.1 0 001.1-1.1V11.76a1.1 1.1 0 00-1.099-1.101z" fill="#009688"/></g><path data-name="Path 82" d="M20.088.779l-3.14-.638a7.078 7.078 0 00-2.816 0l-3.141.638a.813.813 0 00-.6 1.088l.791 2.066a1.32 1.32 0 001.233.849h6.246a1.321 1.321 0 001.233-.849l.79-2.066a.813.813 0 00-.596-1.088z" fill="#009688"/><path data-name="Path 83" d="M16.432 1.809h-.417v-.417a.547.547 0 00-1.094 0v.417h-.417a.547.547 0 100 1.094h.417v.416a.547.547 0 001.094 0v-.416h.417a.547.547 0 100-1.094z" fill="#fff"/></g></svg><svg viewBox="0 0 10.272 19" id="facebook" xmlns="http://www.w3.org/2000/svg"><path data-name="Path 6" d="M9.886 0H7.423a4.327 4.327 0 00-4.557 4.676v2.156H.387A.387.387 0 000 7.22v3.124a.387.387 0 00.387.387h2.477v7.882a.387.387 0 00.387.387h3.232a.387.387 0 00.387-.387v-7.882h2.9a.387.387 0 00.387-.387V7.219a.388.388 0 00-.388-.388h-2.9V5c0-.878.209-1.324 1.354-1.324h1.66a.387.387 0 00.387-.387V.391A.388.388 0 009.886 0z" fill="#fff"/></svg><svg viewBox="0 0 40 40" id="facebook2" xmlns="http://www.w3.org/2000/svg"><path data-name="Rectangle 185" fill="#1050ff" d="M0 0h40v40H0z"/><g data-name="facebook"><path data-name="Path 6" d="M24.886 11h-2.463a4.327 4.327 0 00-4.557 4.676v2.156h-2.479a.387.387 0 00-.387.388v3.124a.387.387 0 00.387.387h2.477v7.882a.387.387 0 00.387.387h3.232a.387.387 0 00.387-.387v-7.882h2.9a.387.387 0 00.387-.387v-3.125a.388.388 0 00-.388-.388h-2.9V16c0-.878.209-1.324 1.354-1.324h1.66a.387.387 0 00.387-.387v-2.898a.388.388 0 00-.384-.391z" fill="#fff"/></g></svg><svg viewBox="0 0 20 17.366" id="h" xmlns="http://www.w3.org/2000/svg"><g data-name="hospital (1)" fill="#009688"><path data-name="Path 203" d="M4.1 5.276H0v12.09h4.1zm-1.392 7.913H1.392v-1.172h1.319zm0-2.638H1.392V9.379h1.319zM1.389 7.913V6.741h1.322v1.172z"/><path data-name="Path 204" d="M15.897 17.366h4.1V5.276h-4.1zm1.392-10.625h1.319v1.172h-1.319zm0 2.638h1.319v1.172h-1.319zm1.319 2.638v1.172h-1.319v-1.172z"/><path data-name="Path 205" d="M7.948 15.826h1.466v1.54H7.948z"/><path data-name="Path 206" d="M10.586 15.826h1.466v1.54h-1.466z"/><path data-name="Path 207" d="M5.275 17.366h1.5v-2.712h6.447v2.712h1.5V0h-9.45zm5.384-4.18H9.34v-1.169h1.319zm0-2.638H9.34V9.379h1.319zm0-2.638H9.34V6.742h1.319zm2.638 5.275h-1.319v-1.168h1.319zm0-2.638h-1.319V9.379h1.319zm0-2.638h-1.319V6.742h1.319zM8.022 2.786h1.392V1.394h1.172v1.392h1.392v1.172h-1.392V5.35H9.414V3.959H8.022zM6.703 6.741h1.319v1.172H6.703zm0 2.638h1.319v1.172H6.703zm0 2.638h1.319v1.169H6.703z"/></g></svg><svg viewBox="0 0 24.915 21" id="landline" xmlns="http://www.w3.org/2000/svg"><g fill="#2e2e2e"><path data-name="Path 7" d="M.356 6.073A.356.356 0 010 5.717V3.204A1.424 1.424 0 011.424 1.78h1.523a.356.356 0 010 .712H1.424a.712.712 0 00-.712.712v2.513a.356.356 0 01-.356.356z"/><path data-name="Path 8" d="M.356 13.148A.356.356 0 010 12.792v-1.057a.356.356 0 01.712 0v1.057a.356.356 0 01-.356.356z"/><path data-name="Path 9" d="M2.947 19.221H1.424A1.424 1.424 0 010 17.797v-2.509a.356.356 0 11.712 0v2.513a.712.712 0 00.712.712h1.523a.356.356 0 110 .712z"/><path data-name="Path 10" d="M.356 9.6A.356.356 0 010 9.244V8.208a.356.356 0 11.712 0v1.036a.356.356 0 01-.356.356z"/><path data-name="Path 11" d="M23.492 19.221H9.403a.356.356 0 010-.712h14.089a.712.712 0 00.712-.712V3.204a.712.712 0 00-.712-.712H9.403a.356.356 0 010-.712h14.089a1.424 1.424 0 011.424 1.424v14.593a1.424 1.424 0 01-1.424 1.424z"/><path data-name="Path 12" d="M8.394 21H3.956a1.366 1.366 0 01-1.364-1.364V1.364A1.366 1.366 0 013.956 0h4.438a1.366 1.366 0 011.365 1.364v18.272A1.366 1.366 0 018.394 21zM3.956.712a.653.653 0 00-.652.652v18.272a.653.653 0 00.652.652h4.438a.653.653 0 00.653-.652V1.364a.653.653 0 00-.653-.652z"/><path data-name="Path 13" d="M21.53 8.275h-9.454a.687.687 0 01-.686-.686V5.046a.687.687 0 01.686-.686h9.454a.687.687 0 01.686.686v2.543a.687.687 0 01-.686.686zm-9.428-.712h9.4V5.072h-9.4z"/><path data-name="Path 14" d="M21.074 10.886h-.591a.356.356 0 110-.712h.593a.356.356 0 110 .712z"/><path data-name="Path 15" d="M17.099 10.886h-.593a.356.356 0 110-.712h.593a.356.356 0 010 .712z"/><path data-name="Path 16" d="M13.125 10.886h-.593a.356.356 0 010-.712h.593a.356.356 0 010 .712z"/><path data-name="Path 17" d="M21.074 13.704h-.591a.356.356 0 110-.712h.593a.356.356 0 110 .712z"/><path data-name="Path 18" d="M17.099 13.704h-.593a.356.356 0 110-.712h.593a.356.356 0 010 .712z"/><path data-name="Path 19" d="M13.125 13.704h-.593a.356.356 0 010-.712h.593a.356.356 0 010 .712z"/><path data-name="Path 20" d="M21.074 16.521h-.591a.356.356 0 110-.712h.593a.356.356 0 110 .712z"/><path data-name="Path 21" d="M17.099 16.521h-.593a.356.356 0 110-.712h.593a.356.356 0 010 .712z"/><path data-name="Path 22" d="M13.125 16.521h-.593a.356.356 0 010-.712h.593a.356.356 0 010 .712z"/></g></svg><svg viewBox="0 0 13.359 19" id="location" xmlns="http://www.w3.org/2000/svg"><g data-name="Group 64"><g data-name="Group 63"><path data-name="Path 4" d="M6.68 0A6.681 6.681 0 001 10.192l5.3 8.545a.557.557 0 00.473.263.557.557 0 00.473-.271l5.171-8.629A6.681 6.681 0 006.68 0zm4.782 9.53l-4.7 7.844-4.819-7.768a5.57 5.57 0 119.519-.075z" fill="#f95858"/></g></g><g data-name="Group 66"><g data-name="Group 65"><path data-name="Path 5" d="M6.68 3.34a3.34 3.34 0 103.34 3.34 3.344 3.344 0 00-3.34-3.34zm0 5.574A2.234 2.234 0 118.91 6.68a2.236 2.236 0 01-2.23 2.234z" fill="#f95858"/></g></g></svg><svg viewBox="0 0 42 42" id="logo" xmlns="http://www.w3.org/2000/svg"><path d="M15.75 42h-.031a.876.876 0 01-.844-.902v-.004a4.742 4.742 0 012.172-4.219.874.874 0 01.902 1.5 3.105 3.105 0 00-1.324 2.781.875.875 0 01-.875.844zm0 0" fill="#00897b"/><path d="M29.508 16.879a3.884 3.884 0 00-2.578-1.094 3.064 3.064 0 00-2.313.738c-.332.32-.508.774-.472 1.235.05.476.277.914.628 1.234 1.18 1.184.965 2.156-.89 4.012a.876.876 0 00.883 1.457c1.558-.496 5.25-1.914 5.859-4.375a3.296 3.296 0 00-1.117-3.207zm0 0" fill="#009688"/><path d="M40.25 10.5a10.447 10.447 0 01-5.031-2.57 10.496 10.496 0 00-5.469-2.68c-2.82 0-7.3 2.5-8.75 3.352-1.45-.852-5.93-3.352-8.75-3.352a10.496 10.496 0 00-5.469 2.68A10.447 10.447 0 011.75 10.5a.874.874 0 00-.875.875c0 .414.293.773.7.86A109.088 109.088 0 0021 14a108.726 108.726 0 0019.426-1.766.88.88 0 00.683-1.035.878.878 0 00-.859-.699zm0 0" fill="#b0bec5"/><path d="M25.375 4.375A4.373 4.373 0 0121 8.75a4.373 4.373 0 01-4.375-4.375A4.373 4.373 0 0121 0a4.373 4.373 0 014.375 4.375zm0 0" fill="#607d8b"/><path d="M21 42a.874.874 0 01-.875-.875V7.875c0-.484.39-.875.875-.875.484 0 .875.39.875.875v33.25c0 .484-.39.875-.875.875zm0 0" fill="#607d8b"/><path d="M28.754 29.586c-.336-2.543-3.887-3.773-6.234-4.582-.477-.168-.887-.309-1.168-.43-2.036-.898-4.391-2.765-4.645-4.199-.09-.516.113-1.04.523-1.36a1.64 1.64 0 00.23-2.425 3.819 3.819 0 00-4.929.277 3.012 3.012 0 00-1.07 2.965c.805 3.578 8.344 6.086 9.262 6.379.308.133.73.281 1.222.453 1.707.59 4.875 1.688 5.078 3.16.118.914-.949 2.188-3.011 3.586a.878.878 0 00-.235 1.215.879.879 0 001.22.234c2.75-1.875 3.98-3.597 3.757-5.273zm0 0" fill="#00897b"/><path d="M26.25 42a.876.876 0 01-.863-1.035c.015-.102.36-2.77-4.64-4.25-4.93-1.461-7.442-3.203-7.68-5.328-.196-1.75 1.152-3.434 4.003-5.028a.877.877 0 011.192.336.878.878 0 01-.34 1.192c-2.082 1.168-3.219 2.37-3.117 3.308.07.602.828 2.176 6.441 3.84 6.586 1.95 5.895 6.074 5.86 6.25a.874.874 0 01-.856.715zm0 0" fill="#009688"/></svg><svg viewBox="0 0 51.428 36" id="mask" xmlns="http://www.w3.org/2000/svg"><g data-name="022---Surgical-Mask" fill="#009688"><path d="M12 9.423h.017a13.561 13.561 0 0010.375-5.267 4.276 4.276 0 016.64-.008 13.572 13.572 0 0010.38 5.275h.016l3.429.006v-.858a1.714 1.714 0 00-1.714-1.714h-1.295a11.427 11.427 0 01-8.82-4.329 6.849 6.849 0 00-10.629 0 11.427 11.427 0 01-8.82 4.329h-1.294a1.714 1.714 0 00-1.714 1.714v.857z"/><path data-name="Shape" d="M39.428 11.137h-.019a15.278 15.278 0 01-11.708-5.909 2.563 2.563 0 00-3.981.007 15.186 15.186 0 01-11.721 5.9l-3.428.008V18a17.914 17.914 0 0015.818 17.925 11.811 11.811 0 002.65 0A17.914 17.914 0 0042.857 18v-6.857zm-24.725 2.587a72.4 72.4 0 0022.022 0 .857.857 0 11.264 1.694 73.4 73.4 0 01-11.275.862 73.4 73.4 0 01-11.275-.862.857.857 0 01.264-1.694zm-.951 5.733a.857.857 0 011.073-.564 36.434 36.434 0 0021.776 0 .857.857 0 11.509 1.637 38.25 38.25 0 01-11.4 1.745 38.25 38.25 0 01-11.4-1.743.857.857 0 01-.561-1.076zm23.474 7.029a26.229 26.229 0 01-23.024 0 .857.857 0 11.739-1.543 24.542 24.542 0 0021.547 0 .857.857 0 11.739 1.543zM7.954 24.574C3.514 23.528 0 19.628 0 15.428v-4.285a3.429 3.429 0 013.429-3.429h3.54a3.135 3.135 0 00-.111.857v.857H3.429a1.719 1.719 0 00-1.714 1.714v4.286c0 3.386 2.64 6.094 5.674 7.183a19.064 19.064 0 00.566 1.963zm43.474-13.431v4.286c0 4.2-3.514 8.1-7.954 9.146a19.063 19.063 0 00.566-1.963c3.034-1.089 5.674-3.8 5.674-7.183v-4.286A1.719 1.719 0 0048 9.429h-3.429v-.858a3.135 3.135 0 00-.111-.857H48a3.429 3.429 0 013.428 3.429z"/></g></svg><svg viewBox="0 0 24 12" id="menu" xmlns="http://www.w3.org/2000/svg"><g fill="#f8f8f8"><path data-name="Path 35" d="M.75 1.5h22.5a.75.75 0 100-1.5H.75a.75.75 0 100 1.5z"/><path data-name="Path 36" d="M23.25 5.25H.75a.75.75 0 000 1.5h22.5a.75.75 0 000-1.5z"/><path data-name="Path 37" d="M23.25 10.5h-15a.75.75 0 100 1.5h15a.75.75 0 000-1.5z"/></g></svg><svg viewBox="0 0 20 17.647" id="n" xmlns="http://www.w3.org/2000/svg"><g fill="#009688"><path d="M3.529 2.353h15.294v2.353H3.529zm0 3.529V16.47a2.355 2.355 0 01-.312 1.176H16.51a3.494 3.494 0 003.49-3.49V5.882zm8.824 7.647H5.882V7.647h6.471zm5.294 0h-4.118v-1.176h4.118zm0-2.353h-4.118V10h4.118zm0-2.353h-4.118V7.647h4.118z"/><path d="M7.059 8.824h4.118v3.529H7.059zM6.176 0H0v16.471a1.177 1.177 0 002.353 0V1.176h4.706z"/></g></svg><svg viewBox="0 0 20 21.966" id="p" xmlns="http://www.w3.org/2000/svg"><g data-name="038---Favourite-File" fill="#009688"><path d="M16.074 18.453v2.193l3.371-3.371h-2.193a1.178 1.178 0 00-1.178 1.178z"/><path data-name="Shape" d="M18.823 0H3.118A1.178 1.178 0 001.94 1.178V9.32a3.45 3.45 0 011.293-.254 5.311 5.311 0 013.626 1.441 5.31 5.31 0 013.626-1.441c2.252 0 4.019 2.15 4.019 4.9A8.9 8.9 0 0110.25 21.2h5.039v-2.747a1.965 1.965 0 011.963-1.963H20V1.178A1.178 1.178 0 0018.823 0zM4.688 7.067h-.785a.393.393 0 110-.785h.785a.393.393 0 110 .785zm0-2.356h-.785a.393.393 0 110-.785h.785a.393.393 0 110 .785zm0-2.356h-.785a.393.393 0 110-.785h.785a.393.393 0 110 .785zm7.852 4.712H6.259a.393.393 0 110-.785h6.281a.393.393 0 110 .785zm2.748-2.356H6.259a.393.393 0 110-.785h9.03a.393.393 0 110 .785zm2.752-2.355H6.259a.393.393 0 110-.785H18.04a.393.393 0 110 .785zm1.178 12.956a.393.393 0 11-.785 0v-.785a.393.393 0 11.785 0zm0-2.356a.393.393 0 11-.785 0V7.46a.393.393 0 11.785 0z"/><path data-name="Shape" d="M13.718 13.96c0-2.3-1.42-4.11-3.234-4.11a4.567 4.567 0 00-3.322 1.47.392.392 0 01-.608 0 4.567 4.567 0 00-3.322-1.47C1.42 9.852 0 11.66 0 13.96c0 2.657 1.8 6.334 6.859 8 5.059-1.664 6.859-5.341 6.859-8z"/></g></svg><svg viewBox="0 0 490.4 490.4" id="up" xmlns="http://www.w3.org/2000/svg"><path d="M245.2 490.4c135.2 0 245.2-110 245.2-245.2S380.4 0 245.2 0 0 110 0 245.2s110 245.2 245.2 245.2zm0-465.9c121.7 0 220.7 99 220.7 220.7s-99 220.7-220.7 220.7-220.7-99-220.7-220.7 99-220.7 220.7-220.7z"/><path d="M185 216.2l48-48v183.4c0 6.8 5.5 12.3 12.3 12.3 6.8 0 12.3-5.5 12.3-12.3V168.3l48 48c2.4 2.4 5.5 3.6 8.7 3.6s6.3-1.2 8.7-3.6c4.8-4.8 4.8-12.5 0-17.3l-68.9-68.9c-4.8-4.8-12.5-4.8-17.3 0L167.9 199c-4.8 4.8-4.8 12.5 0 17.3 4.5 4.7 12.3 4.7 17.1-.1z"/></svg><svg viewBox="0 0 20 21.37" id="v" xmlns="http://www.w3.org/2000/svg"><g fill="#009688"><path data-name="Path 208" d="M7.777 4.332h.741v.741h-.741zm0 0"/><path data-name="Path 209" d="M7.777 7.294h.741v.741h-.741zm0 0"/><path data-name="Path 210" d="M7.777 10.257h.741v.741h-.741zm0 0"/><path data-name="Path 211" d="M4.073 13.22h.741v.741h-.741zm0 0"/><path data-name="Path 212" d="M16.666 8.035h.741v.741h-.741zm0 0"/><path data-name="Path 213" d="M4.073 10.257h.741v.741h-.741zm0 0"/><path data-name="Path 214" d="M4.073 4.332h.741v.741h-.741zm0 0"/><path data-name="Path 215" d="M7.777 13.22h.741v.741h-.741zm0 0"/><path data-name="Path 216" d="M4.073 7.294h.741v.741h-.741zm0 0"/><path data-name="Path 217" d="M13.703 10.998h.741v.741h-.741zm0 0"/><path data-name="Path 218" d="M16.666 10.998h.741v.741h-.741zm0 0"/><path data-name="Path 219" d="M16.666 13.961h.741v.741h-.741zm0 0"/><path data-name="Path 220" d="M13.703 8.035h.741v.741h-.741zm0 0"/><path data-name="Path 221" d="M13.703 13.961h.741v.741h-.741zm0 0"/><path data-name="Path 222" d="M3.703 16.924h2.222v2.963H3.703zm0 0"/><path data-name="Path 223" d="M6.666 16.924h2.222v2.963H6.666zm0 0"/><path data-name="Path 224" d="M14.443 17.664h2.222v2.222h-2.222zm0 0"/><path data-name="Path 225" d="M18.889 20.629V6.845l-6.667-1.667v15.451h-.741V2.766L1.111-.001v20.63H-.001v.741h20v-.741zM7.037 3.963a.37.37 0 01.37-.37h1.482a.37.37 0 01.37.37v1.481a.37.37 0 01-.37.37H7.407a.37.37 0 01-.37-.37zm0 2.963a.37.37 0 01.37-.37h1.482a.37.37 0 01.37.37v1.481a.37.37 0 01-.37.37H7.407a.37.37 0 01-.37-.37zm0 2.963a.37.37 0 01.37-.37h1.482a.37.37 0 01.37.37v1.481a.37.37 0 01-.37.37H7.407a.37.37 0 01-.37-.37zm0 2.963a.37.37 0 01.37-.37h1.482a.37.37 0 01.37.37v1.481a.37.37 0 01-.37.37H7.407a.37.37 0 01-.37-.37zm-3.7-8.889a.37.37 0 01.362-.371h1.486a.37.37 0 01.37.37v1.482a.37.37 0 01-.37.37H3.699a.37.37 0 01-.37-.37zm0 2.963a.37.37 0 01.362-.371h1.486a.37.37 0 01.37.37v1.482a.37.37 0 01-.37.37H3.699a.37.37 0 01-.37-.37zm0 2.963a.37.37 0 01.362-.371h1.486a.37.37 0 01.37.37v1.481a.37.37 0 01-.37.37H3.699a.37.37 0 01-.37-.37zm0 2.963a.37.37 0 01.37-.37h1.478a.37.37 0 01.37.37v1.481a.37.37 0 01-.37.37H3.699a.37.37 0 01-.37-.37zm6.3 7.037v.741H2.963v-4.075a.37.37 0 01.37-.37h5.926a.37.37 0 01.37.37zm3.326-12.222a.37.37 0 01.37-.37h1.481a.37.37 0 01.37.37v1.481a.37.37 0 01-.37.37h-1.481a.37.37 0 01-.37-.37zm0 2.963a.37.37 0 01.37-.37h1.481a.37.37 0 01.37.37v1.481a.37.37 0 01-.37.37h-1.481a.37.37 0 01-.37-.37zm0 4.444v-1.482a.37.37 0 01.37-.37h1.481a.37.37 0 01.37.37v1.481a.37.37 0 01-.37.37h-1.481a.37.37 0 01-.37-.369zm4.444 5.556h-3.708v-3.331a.37.37 0 01.37-.37h2.963a.37.37 0 01.37.37zm.741-5.556a.37.37 0 01-.37.37h-1.479a.37.37 0 01-.37-.37v-1.482a.37.37 0 01.37-.37h1.481a.37.37 0 01.37.37zm0-2.963a.37.37 0 01-.37.37h-1.479a.37.37 0 01-.37-.37v-1.482a.37.37 0 01.37-.37h1.481a.37.37 0 01.37.37zm0-2.963a.37.37 0 01-.37.37h-1.479a.37.37 0 01-.37-.37V7.667a.37.37 0 01.37-.37h1.481a.37.37 0 01.37.37zm0 0"/></g></svg><svg viewBox="0 0 40 40" id="viber" xmlns="http://www.w3.org/2000/svg"><path data-name="Rectangle 186" fill="#7d3daf" d="M0 0h40v40H0z"/><g data-name="Group 137" fill="#fff"><path data-name="Path 97" d="M32.65 12.896l-.008-.032a9.131 9.131 0 00-6.165-5.932l-.03-.006a34.259 34.259 0 00-12.9 0l-.031.006a9.135 9.135 0 00-6.165 5.932l-.007.032a25.24 25.24 0 000 10.873l.007.032a9.21 9.21 0 005.825 5.845v2.88a1.159 1.159 0 002 .8l2.922-3.03c.634.035 1.268.055 1.9.055a34.369 34.369 0 006.448-.612l.03-.006a9.131 9.131 0 006.165-5.932l.008-.032a25.24 25.24 0 00.001-10.873zm-2.312 10.35a6.906 6.906 0 01-4.352 4.167 31.933 31.933 0 01-6.859.554.162.162 0 00-.121.049l-2.135 2.188-2.269 2.329a.266.266 0 01-.457-.183v-4.778a.165.165 0 00-.134-.161 6.908 6.908 0 01-4.352-4.167 22.9 22.9 0 010-9.827 6.908 6.908 0 014.352-4.167 31.907 31.907 0 0111.975 0 6.9 6.9 0 014.352 4.167 22.88 22.88 0 010 9.826z"/><path data-name="Path 98" d="M23.78 25.449c-.267-.081-.522-.136-.758-.234a17.226 17.226 0 01-6.491-4.338 16.847 16.847 0 01-2.483-3.8c-.319-.648-.587-1.321-.861-1.99a1.726 1.726 0 01.505-1.7 3.991 3.991 0 011.337-1 .858.858 0 011.074.255 13.845 13.845 0 011.661 2.325 1.107 1.107 0 01-.31 1.5c-.126.085-.24.186-.357.282a1.171 1.171 0 00-.27.284.779.779 0 00-.052.684 6.191 6.191 0 003.477 3.849 1.77 1.77 0 00.891.216c.545-.064.721-.661 1.1-.973a1.039 1.039 0 011.252-.055c.4.254.792.527 1.179.8a13.492 13.492 0 011.109.845.88.88 0 01.263 1.089 3.684 3.684 0 01-1.583 1.744 3.82 3.82 0 01-.684.218c-.266-.087.233-.073.001-.001z"/><path data-name="Path 99" d="M20.007 11.539a6.512 6.512 0 016.4 5.385c.1.54.13 1.092.173 1.64a.385.385 0 01-.361.452c-.257 0-.372-.212-.389-.442-.033-.456-.056-.914-.119-1.366a5.727 5.727 0 00-4.612-4.787c-.358-.064-.724-.081-1.086-.119-.229-.024-.529-.038-.58-.323a.391.391 0 01.386-.441h.186c3.207.091-.06.001.002.001z"/><path data-name="Path 100" d="M24.877 17.853a1.471 1.471 0 01-.032.223.364.364 0 01-.685.037.969.969 0 01-.038-.31 3.882 3.882 0 00-.491-1.948 3.624 3.624 0 00-1.52-1.426 4.374 4.374 0 00-1.212-.372c-.183-.03-.367-.049-.551-.074a.349.349 0 01-.331-.392.345.345 0 01.384-.34 5.038 5.038 0 012.1.547 4.247 4.247 0 012.311 3.3c.01.067.026.134.031.2.013.167.02.334.033.553-.004.042-.011-.218.001.002z"/><path data-name="Path 101" d="M22.884 17.775a.4.4 0 01-.439-.389 4.039 4.039 0 00-.075-.512 1.44 1.44 0 00-.531-.834 1.387 1.387 0 00-.433-.209c-.2-.057-.4-.041-.6-.089a.366.366 0 01-.3-.425.385.385 0 01.406-.31 2.2 2.2 0 012.257 2.195 1.016 1.016 0 010 .311.319.319 0 01-.286.262c-.267.005.123-.008.001 0z"/></g></svg></svg>