<svg width="25" height="18" fill="none" xmlns="http://www.w3.org/2000/svg"><path fill-rule="evenodd" clip-rule="evenodd" d="M25 8.594S20.312 0 12.5 0C4.687 0 0 8.594 0 8.594s4.688 8.594 12.5 8.594c7.813 0 12.5-8.594 12.5-8.594zm-23.167 0a20.52 20.52 0 002.594 3.192c2.01 2.014 4.76 3.839 8.073 3.839 3.313 0 6.06-1.825 8.075-3.84a20.527 20.527 0 002.594-3.191 20.522 20.522 0 00-2.594-3.192c-2.014-2.014-4.764-3.84-8.075-3.84-3.313 0-6.06 1.826-8.075 3.84a20.52 20.52 0 00-2.594 3.192h.002z" fill="#F9F6F3"/><path fill-rule="evenodd" clip-rule="evenodd" d="M12.5 5.551a3.168 3.168 0 100 6.337 3.168 3.168 0 000-6.337zM8.065 8.72a4.435 4.435 0 118.87 0 4.435 4.435 0 01-8.87 0z" fill="#F9F6F3"/></svg>