<svg width="87" height="54" fill="none" xmlns="http://www.w3.org/2000/svg"><path fill-rule="evenodd" clip-rule="evenodd" d="M49.911 5.483l.308-.134-.17.475.452-.405-.053-.24.1-.214c-.366.086-.546.128-.637.518zm.324-.198c.01-.01.027.027.027.027s-.037-.016-.027-.027zm-2.123 1.296c-.467.011-.435.32-.716.528l.058.027.16-.128a6.137 6.137 0 00-.961 2.021l-1.502.374-.048.288 2.107-.267c.302 0 1.03.032 1.03-.261v-.256h-.515c0-.88.849-2.411 1.358-2.79l-.074-.053c-.021-.021-.042.064-.053.075a.676.676 0 01-.058.069c-.048.053-.075.075-.128.128-.106.107-.19.181-.292.288-.148.165-.323.475-.435.667-.148.256-.578 1.237-.578 1.616-.128.069-.191.128-.388.128h-.255c.085-1.008 1.587-3.051 2.378-3.232.075.224.488-.272.59-.422-.52.064-1.572.8-1.678 1.2zm-.43.47l.25-.454.085.075-.335.379zm-2.967 3.056c1.088-.182 3.264-.496 4.374-.534l.085-.096c-1.062.038-2.962.23-4.103.379-.334.021-.302.203-.356.25zm14.113-.811l-.037.283c.255.032.52.09.775.224.085-.32-.52-.459-.738-.507zm-7.563-3.168l.148-.448-.148-.005.074-.518c.191-.053.287-.053.053-.133l.106-.315.61-.016c-.37.251-.668 1.446-.843 1.435zm-4.373 5.419l-.813.122.006.315-.818.128-.005-.299c-.62.07-2.287.523-2.866.71-.202 0-.377.181-.446.336l.372-.064.143.117 2.829-.315c.143-.021.175.027.265.075l.186-.139c.005.326.064.448.324.518h.387v.128l.18-.006.075-.192h.255c-.037-.144-.016-.192-.191-.192l-.839.08v-.256l2.298-.144-.047-1.077-1.295.155zm11.06 1.37h.255c-.074-.106-.01-.128-.191-.128h-.255c.075.107.005.128.191.128zm.308.08l3.827.304-.324-.17-3.418-.326-.085.192zm-10.535-.208h-.706c.037.144.016.192.19.192.165 0 .155-.016.256-.064 0 0 .122.064.127.064.196 0 .276-.09.324-.261-.074.048-.07.07-.191.07zm-5.982.47l-.143.293c.218.064 2.765-.512 2.903-.443.053-.037.16-.128.191-.128.01 0 .345.235.382.256l.197-.058c-.01-.518-.44-.283-1.03-.262l-2.5.342zm3.604-.278l.324.064c-.01-.128.005-.261-.128-.261-.159.005-.196.048-.196.197zm2.638-.064c0 .171.09.192.19.262v-.39c-.095.022-.19.016-.19.128zm14.977.603l-.265-.33-.287-.043-.27.085.822.288zm-17.811.176c.053.187-.027.123.127.064.021.25-.037.197.191.256l-.005-.4-.313.08zm-11.125.453l.971.027c-.026-.32-.796-.405-1.098-.256l.127.23zm-2.25.064h.19c0-.362-.19-.362-.19 0zm28.883-.016c.924.182 1.353.598 1.428 1.398.005.064.26-.432.292-.374l.01-1.232-.557-.165-.026.096-1.158-.15.011.427zm-25.54.016l.574.086.117.154-.696-.112v1.227h.642c.053-.23.128-.304.128-.581l-.005-.571-.123-.096 1.025.197v-.224a8.405 8.405 0 00-1.715-.309l.053.23zm-4.888.32l.33.027-.33.101v1.035h.706v-1.205l-.308.058-.196-.042.515-.139.01-.16-.02-.059c-.399.032-.696-.01-.707.384zm-7.786.208h.255l.005-1.114-.238-.16-.022 1.274zm1.8 0h.106l.005-1.077h-.106l-.006 1.077zm.52-.01h.106v-.87h-.106v.87zm3.863-1.2l-.222.208-.229-.043-.159.208-.297-.021-.096.16-.308.042-.005-.453-.09.005-.005.598-.43.144-.467.213-.021-.955-.09-.01.005 1.088 1.725-.667 1.655-.688-.966.17zm-3.269 1.21l.09-.016v-1.05l-.09.016v1.05zm4.04-.074c0 .144.052.144.126.261h-.127v.843h.706v-1.035c-.191.043-.377.139-.547.187l-.005-.118c.356-.112.52-.064.547-.389h-.255c-.18-.01-.446.117-.446.25zm1.67.448l.192-.064v-.326h-.191v.39zm7.277.005l-.589-.133v.517h.77l-.021-.197.02-.454-.116.006-.063.261zm-1.369-.453l-.117-.006v.39c0 .16.5.453.579.453h.255l-.006-.624-.573-.213c.34 0 .313.069.382-.187l-.669-.123.15.31zm-2.961.933l.785.032c.149 0 .191-.043.191-.192v-1.163h-.451c-.175 0-.409-.01-.494-.037.123.4.075.89-.031 1.36zm1.942-.032h.515c.148 0 .324-.17.324-.325l-.037-.63-.786-.138-.016 1.093zm-4.888-1.227l.255-.085v.128l-.255.085v.128c.18.016.255 0 .255.192v.192c0 .198-.075.182-.255.192v.518h.255c.223 0 .25-.048.467-.064l-.08-.774c-.032-.288.33-.506-.26-.522l.25-.139.053-.277-.69.16v.266h.005zm31.447 1.499l.44-.032.01-.187h-.45v.219zm.578.09l2.129-.138.318-.155h-2.436l-.01.294zm3.09-.298h-.516v.384l2.601-.059.005-.442c-.09.048-1.04.117-1.194.117h-.387c-.165 0-.154-.016-.255-.064-.09.048-.106.064-.255.064zm-37.626-.32v.453h.706v-.778l-.461.122v-.128l.461-.122v-.262c-.514.123-.706.24-.706.715zm4.416.39h.09v.127h.192c.801-.336.716-1.312.514-1.616l-.26.016-.536.011v1.461zm-.62 0h.525V14.24l-.68.01.112-.085.568-.01v-.256l.095-.043v.293l.282-.005.201-.053c.07-.096-.021-.198-.233-.267a1.198 1.198 0 00-.86.181c-.472.32-.68 1.078-.01 1.696zm24.085.223l.223.096-.032-.293-.191.197zm.355.358l.27.005-.073.187.329.304-.006-.374-.514-.442-.006.32zm-45.23.282c.069.288 1.2.171 1.688.171.053.037.159.128.19.128.208 0 .25-.181.32-.336l-2.198.037zm2.394.555l.18-.005.08-.32c-.271.026-.26.042-.26.325zm3.407-.379v.443h.324c-.027-.336-.154-.507-.52-.48l.196.037zm-.51.448h.388V16.8a.475.475 0 00-.387.39zm58.558.032l.711.352.154-.181-.674-.384-.191.213zm-17.393.688l-.005.246h.191v-.32l-.186.074zm-18.204.379l.196-.075.255.075c-.07-.101-.085-.192-.255-.192h-.191v.192h-.005zm13.205-.256l.913-.032 3.04.384v-.053l-3.04-.39-.913-.048v.139zm22.684.405h.063l-.005-.218H75.7l.006.218zm2.181.624l.685.032-.064-.069-.616-.283-.005.32zm-16.655-1.376h.324v.15h-.324v1.936h.451c.245 0 .022-.022.191.064l.016-3.179-.223.539v-.39l-.435-.133v1.013zm-46.498 2.363h2.393v-.101h-2.393v.101zm-.738.757l.557-.133-.138-.187.064-.581h-.324l-.16.901zm46.292-1.098h.233l.01.149h-.243v.176c0 .245-.075.41-.207.517l-.075-.256c-.25.171-.387-.01-.387.262v.261h1.348v-.128l.196-.016-.201-.31V17.84h-.064l-.515.71v-1.622l-.106-.139v2.918h.01zm-3.063 1.914l.34.091v-.843h-.34v.752zm-36.61.123h.105l.038.656.467-.325-.032-.326h.51l-.59-.714-.499.709zm39.975-.032h.324v-.779h-.324v.779zm-.966-.192c0 .256.557.24.743.261l-.032-.842h-.706v.581h-.005zm-45.533-.565v.89h1.094v-.981l-1.094.09zm2.686.885h.398v-.773l-.398-.016v.789zm6.093-.261l.483.042v.326l.186-.043v-.325l.334-.011-.467-.592-.536.603zM4.633 20.032c-.016.181 0 .261-.19.261-.133 0-.117-.133-.128-.261h.318zm14.214 2.672h1.157v-.15h-1.157v.15zm-.515.107h.191v-.71h-.191v.71zm5.08-.576l-.51.32c.095.357.228.064.706.064v-.582l-.271.006.074.192zm-11.061.576c.206-.006.323.021.323-.192v-.262c0-.213-.127-.245-.323-.261v.715zm48.106 0h.515v-.838h-.324v.779h-.127v-.779h-.064v.838zm-45.209.522h.388c-.07-.25-.085-.25-.388-.261v.261zm22.26-3.754c-.79.053-.393.352-.59.528l-.005 3.162.16.315.62.01v-.906h.77l.01.901.569.08c.116.006.17-.24.196-.336h-.191v-.389c0-.277-.127-.261-.127-.453 0-.176.09-.251.19-.326v.128h.255v-2.528h.128v-.128l-.244.123-.085-.192-1.656.01zm1.661 2.586c.117-.112-.111.118 0 0zm-25.014.582H13.9v-.192c0-.235-.175-.518-.387-.518h-.324v.71h.324v-.262h.19v.518h-.641v.842h.902v-.778h.127v.778h1.094v-.842h-1.03v-.256h.966v-.71h-.966v.71zm2.187.842c0-.224.127-.096.127-.325v-.261h-.515v.453c0 .176-.032.176-.063.325h.45v-.192zm1.863.326h.106v-.454h-.106v.454zm6.369-.064l-.197.069.186.267.01-.336zm-3.477.581h.451c-.026-.096-.01-.192-.127-.192-.17-.005-.25.09-.324.192zm21.83.048l2.526-.01.027-.113-2.558.011v.112h.005zm-29.17-.17l.138-.006v-.197c0-.15-.043-.192-.191-.192h-.642v.906h.838l.01-.33-.153-.182zm.334.378h.128v.128h.578v-.128h.191v.128h.191v-.843h-1.093v.715h.005zm2.187.064v-.192h-.451v.261h.77v-.064h-.319v-.005zm6.528 1.147l-.01-.278-.218.278h.228zm-9.49-.95c.022.054.064.24.064.326v.624h1.231c.154-.075.43-.31.637-.368v-.39c0-.149-.042-.192-.19-.192h-1.742zM1.8 22.24c3.63.01 4.358-.037-.313-.096l5.902-.043.212.331-5.8-.192zm.653.379c2.378.058 1.996-.086-.324-.144l2.442-.043v.31l-2.118-.123zm51.854-8.651l.058-.187.192.006-.123.181h-.127zm-1.884 2.117c0 .059 0 .112.005.16h.382v1.142h-.483v-.342l-.074-.192.026-.064.048.043v-.581h.096v-.166zm2.112 2.352l.393.043v.128l.127.021.006-.277-.515-.064-.01.15zm-1.693-.81l.18.042v.139l.048-.075 4.087.55.207.08.202-.07-.165.224.027.166h-.319v-.192h-.127v.128l-1.921-.246.042.08 1.815.235.271.24-2.203-.245-.19-.064-.643-.064v-.128l.34-.08-.467-.054c-.106-.25.122-.202-.451-.197-.234 0-.473 0-.733-.005v-.464zm20.222.133l.77.005v.07h-.325v.037l.314.005.01.278-.775-.006v-.197c0-.107.085-.064.388-.07l.005-.047h-.387v-.075zm-19.548.395h.388v.064h-.388v-.064zm18.576.069h.52v.219h-.52v-.219zm.59.213v-.218h.254v.218h-.255zm1.555 0l-.022-.224.547-.005.01.23h-.535zm-21.39-.186l1.12.101v.192l-1.12-.07v-.223zm-11.952.33l1.364.027.372.139-1.699.016-.037-.182zm-5.26.16h.515v.192l-.515.064v-.256zm18.746.038l.478.053.005.107h-.324v.064l.919.096.377.282.058-.058v.256l-.79-.102.02 8.523.186.635-.96-.006v-2.773h.127l-.138-.384.138-.005v-.134h-.127l.122-.581h-.186c.032-.144.074-.165.064-.261l-.059-.518.005-1.861-.164-.144v-.128l.154-.128-.07-.336v-1.515l.133-.346-.08-.384c-.434.005-.37.154-.365.645L53.897 28l.117.005.223.624h-1.28v-6.325l.362.075-.356-.288.032-2.907c.196-.107.446-.101.674-.053l.149-.214.201.112.361-.25zm11.151.282h2.389v.064l-2.389.395v-.459zm7.086.128c-.213 0-.186.118-.191.326h-.128v-.192c0-.144-.053-.144-.127-.262h.191v-.325h.127v.325h.87v.128h-.742zm3.572-.01l-2.415.01c.016-.096.074-.128.19-.128h.128c.122 0 .117.022.191.064.101-.074-.132-.064.128-.064l1.772-.01v.128h.006zm-2.734.037c-.031-.224.027-.165.308-.155-.074.267-.117.086-.308.155zm-2.51.235h1.258v.064h-1.258v-.064zm1.555 0h1.783v.106H72.5v-.106zm1.852 0H75v.106h-.648v-.106zm.69.016l.207-.016-.016.208-.19-.192zm-17.605.112v-.128h.128v.128h-.128zm-.955.917l-.01 4.581h-.255c-.032.144-.064.15-.064.326V28l.17.624h-.621v-5.36l-.138-.187.01-2.789h.128l.005-.645.202.01c.68-.042.573.688.573.843zm12.595-.72h-.388v-.192h.388v.192zm1.9-.133c.377-.011.387-.278.477.069l-.504.005.027-.074zm-2.288.325c.24.021.24.021.255.261-.234-.021-.234-.021-.255-.261zm6.852.261l-.053-.085.786.01-.022.075h-.71zm.998-.261l.334.181c-.053.198-.074.123-.074.272 0 0 0 4.806.021 4.912h-.254v.262l.26-.054.01.507-.462-.032-.026-5.91.196.193v-.331h-.005zm-1.29.128c.144.037.191.016.191.192v.192h-.19v.192l-.245.005.021-.453.223-.005v-.123zm.966.395c-.058.25-.138.384-.387.448v-.128h.19l.006-.246.191-.074zm-1.21.277l.51.043.031 5.2-.557.048-.042-.699.106-.576v-.56l.016-.725-.075-.774-.031-.666.032-.587.01-.704zm-43.808.021v.342c0 .101.021.368.037.672h.26v-1.014h-.297zm44.503.47c.234.17.075.053.064.453l.303-.357.148-.032-.138.448h-.25l-.127.192v-.704zm1.545.197h.255l-.075.192.154.123-.095.528c-.165-.011-.24.005-.24-.192v-.651zm-48.325.496c.112.192.09-.032.09.213 0 .379-.17.875-.387 1.035l.127-.325-.068-.256.037-.075-.085-.603.286.011zm3.524.715v1.248h-1.57c.016-.192.047-.326.254-.326h.494v-.922h.822zm13.423 1.632h-2.452v-.192h2.6l-.148.192zm12.404.106l.706.08.26-.016v2.486h-.191v-1.808h.127l-.016-.08-.25.048-.827.01-.324.022v-.614l.515.128v-.256zM62 24.4l.293-.005-.053 2.56h-.048v-.518h-.064v.518h-.063v-.646l.127-.032v-.224l-.08.006-.069-.971h-.366v.71l.016.517-.016.645h-.127v-2.47l.45-.09zm-1.48.005l.642.075v2.475h-.19v-1.872l-.473.128.021.08-.382-.086v.539h.578v.15h-.578v1.066h-.191v-2.485h.324c.143 0 .143.053.254.128v-.198h-.005zm4.41.683v-.005l.335-.07-.175.262c.393.192.069.128-.117.037v.17h.478v-.698h-.52v.304zm-33.346.315v.325l-.191-.064v-.256h.19v-.005zm33.76.517c.032-.144.07-.245.101-.299h-.615v-.96h.022v-.693h-.021v-3.429h.037v-.208h.748v1.018h-.042v2.48h.021v.96h-.021v.827h-.01c.02.059.031.16.031.299 0 .005.17.277.191.325h-.191v-.128l-.186.075-.276-.326.213.059zm-27.46.064h.387c-.037.144-.016.192-.19.192h-.192v-.192h-.005zm26.882-.197h.127v.325h-.127v-.325zm-6.3.97c.111-.112-.117.118 0 0zm-.748-.976h.047l.053.331h.58c.174 0 .174-.032.323-.064v.907h-.515l-.037-.075.483-.261c-.037-.139-.01-.187-.191-.187h-.191v-.192h-.452v.192h.324v.128h-.44l.016-.779zm4.734.395h1.03v.325c0 .15.042.192.19.192H66.7v-.453h.127v.325c0 .224-.111.091-.19.39h-3.09l-.026-.262-.037.262h-.903c-.032-.379-.127-.134-.127-.39v-.389zm-6.109-.907h.127v3.355h-.127v-3.355zm1.348 1.686c0-.283-.037-.139.127-.262v.262h-.127zM51.175 2.693h.17v.822l-.17.085v-.907zm1.374.022l.09-.086v.944h-.09v-.858zm.297-.091h.17v.96h-.17v-.96zm-12.228 15.27l.223.485.138-.011.456-.117-.233-.07.403-.293-.987.005zM29.876 13.28l2.595-.619c2.994-.101 4.676.406 5.923.992l.106.091c-1.263-.299-3.99-1.093-5.742-.79l-3.09.534.208-.208zM51.143 2.07h.185v.33h-.185v-.33zm-.186.01h.1v.288h-.1V2.08zm-.467.037a.103.103 0 01.08 0v.342l-.08.074v-.416zm8.004 8.203c.223.027.557.139.78.24l-.021.997-.308-.048.021-.858-.472-.331zm-12.032.005l-.022.011.059.027.053.042.048.054-.016-.006h-.048l-.122.038-.01.138-.075.123.016.192-.075.176.123.192.047.107.133.016h.042l-.047.048-.053.037-.053.021-.059.006v-.08l-.138-.054-.117-.24-.026-.234-.01-.235.074-.219.122-.106.154-.054zm-17.616 3.04h.499v-.469h-.977v.443l-3.964-.246-.6.47 4.655-.086.387-.112zm9.612.336h1.12v-.469h-1.12v.47zm8.704-2.736l.138.352.292-.026-.355-.315-.075-.01-.382-.603-.16-.022c.144.192.197.528.118.891l.424-.267zm3.896-9.029l-.212.005-.006.448c-.17.027-.26.107-.355.246l.042.069.281.07v-.129H51l-.005-.069 2.065-.027.053.208c.154-.005.377-.064.467-.202l-.01-.422c-.723-.058-.346-.506-.818-.986-.467-.475-.579-.182-.658-1.147-.048.01-.08.016-.106.037-.048.192.069.352-.154.704-.377.288-.669.422-.775 1.195zm5.573 8.165c.228.166.26.715.042 1.03l.324-.075.25.256-.117-.656-.176-.523-.323-.032zm-.531.464l.478.043.01-.048-.106-.139-.005-.101-.096-.075-.058-.096-.117-.032h-.058.005l-.005.006.042-.054.043-.042.058-.027.085-.01.244.111.09.256.037.235-.037.235-.095.192-.122.128-.117.048-.085-.006-.053-.021-.037-.037-.037-.048h.042l.186.032.133-.155.015-.192.022-.107-.467-.042v-.054h.005zm2.181-.282l.313.224.011.912-.34-.086.016-1.05zm-5.27 2.64l-.01-.006v.006h.01zm2.415 1.738l-1.534 1.12v-.117l1.507-1.045.027.042zm.042.395c-.122 0-.239.08-.318.213a1.09 1.09 0 00-.143.539l.159.517c.085.134.175.235.297.235l.319-.213c.084-.139.138-.326.138-.539 0-.208-.054-.4-.139-.539-.08-.133-.19-.213-.313-.213zm3.848 1.136l.096.139-.01 5.696-.07-.32-.016-5.515zm-1.019-.144v1.205h-.207v-.4l-.074.075V16.8h.074v-.763l-.09-.005c-.212-.005-.42-.016-.616-.016h-.016v-.08l-.17-.08h.192c1.003.016 2.011.08 3.009.176v-.24l.451.101v.187c.377.043.876.139 1.189.187l-.17.106c-.308-.042-.653-.09-1.019-.128v.512l-.446-.032-.005-.528c-.42-.042-.86-.074-1.3-.106a40.576 40.576 0 00-.802-.043zm-2.95 9.243h.148l.005 3.333h-.148l-.006-3.333zm3.985 2.405v-.384l-1.65.043v.384l1.65-.043zm.504-.384v.341l2.468-.165v-.219l-2.468.043zM74.49 17.04l1.64.864.027-.005v.016l.122.064-.127.005c-.016.15-.048.15-.25.17.005-.074.005-.122.01-.154l-.164.01-1.8-.911-.413-.038.34.336-.16-.005-.934-.347-1.672-.01v-.176c-.35 0-.684-.006-1.03-.006l-.004-.88-1.8-1.13.51.01 1.751 1.056h.022v.011l.01.005-.01.016.005.726 3.397.005.53.368zm-20.662-.56l1.82.293v-.021h.064l.011.235h-.064l-.015-.091-1.816-.261v-.155zm-.01-.133l1.46.24-.011-.006-.011-.005a.54.54 0 01-.175-.187 1.099 1.099 0 01-.154-.581l.048-.341-.345.042-.818.592v-.133l1.598-1.099.032.064-.085.064a.386.386 0 01.297.032l-.212-.176.09-.08 1.024.923-.026.043-.526-.427-.148-.085c.095.149.154.357.154.581l.111.565-.207.208-.371.048 1.608.256.1.08-3.428-.533-.005-.085zm15.147 2.64h-.217l-.006.085-.085-.085h-.445l-.165.138h.127v.326c0 .149-.042.192-.19.192-.218 0-.155-.107-.287-.246l.148.304-.185.523h.323v-.192l.191-.261.436-.272.217-.187-.074-.192h.387l-.01.17.515-.17-.064.427-.313.154.483.016-.483.683.08.01.753-.911-.302.197-.08-.71h-.642a.256.256 0 01-.112 0zm6.39.453h1.959l-.122.133-1.837.016v-.149zm-4.426.368h5.716l-.085.15h-5.78l.149-.15zm-.1.352h4.17v.064h-4.17v-.064zm.615 5.6l.94.032-.075.219h-.865v-.251zm-2.362.027l1.014-.048-.016.272h-.934l-.064-.224zm-3.18.005h1.604v.219h-1.603v-.219zm-.97-4.96l.52.517v-.016h-.52v-.501zm0 1.35h.52v-.694l-.51-.016-.01.71zm0 .81h.52v-.672h-.52v.672zm0 .827h.52v-.72l-.504-.016-.016.736zm.02.832l.52.016v-.79l-.52.032v.742zm1.158-3.099h.26v.437h-.26v-.437zm.016-.795h.26v.438h-.26v-.438zm-3.684 3.691l2.23-.09v.122l-2.23.01v-.042zm.038.459l2.165-.091v.123l-2.165.01v-.042zm-.043.501l2.288-.075v.123l-2.288-.005v-.043zm3.307-.992l2.229-.09v.122l-2.23.01v-.042zm-.011.443l2.23-.091v.123l-2.23.01v-.042zm-.005.517l2.229-.09v.122l-2.23.01v-.042zm-3.233-10.23l5.764-.207v.272h-5.764v-.064zm0 .251h5.78v.07h-5.78v-.07zm-17.43-4.357l.192-.181-.005.784-.186-.016v-.587zm-2.361 5.744l-.313-.523h-.616l.929.523zm-16.713-.037l.005-.118.908-.261-.345.203.164.048-.217.309-.006-.277-.398.176-.111-.08zm17.642 8.117l.17.016-.17.085v-.101zm0 1.397v-1.205l.902-.133v1.28l-.111.005-.112.005-.111.006-.112.005-.111.005-.112.006-.111.005-.122.021zm0 2.203v-2.005l.111-.006.112-.005.111-.005.111-.006.112-.005.111-.005.112-.006.111-.005v2.005l-.111.006-.112.005-.111.005-.111.006-.112.005-.111.005-.112.006-.111.005zm-.643-2.165V24.82h.17l.314.032v1.409l-.059.006-.058.005-.059.005-.058.006-.058.005-.059.005-.058.006h-.075zm.117 2.272v-.251L42.99 28v-1.504l.059-.005.058-.006.059-.005.058-.005.058-.006.059-.005.058-.005.059-.006v2.005l-.048.022h-.059l-.058.005-.058.006-.059.005-.058.005-.059.006.048.064zm-10.386-2.843c.058-.096-.41-.15.111-.187l.074.187h-.185zm-2.665-5.243h-.403v.144l-.446-.08v-.325c-.133.09-.244.272-.387.272l-1.073.016.032-.501-.371.336c.116.245.127.778.387.778h.191v.262c0 .25.366.864.515.97l.255-1.162.684.698h-.286l-.016 1.243c0 .181-.048.155-.223.208l.16.31-.473.298.016.683 2.192-.011.005-.085.982.053.234-.23v.262h.19c.15 0 .192.043.192.192v.032h-8.11v.07h8.115v.351c0 .214-.117.187-.324.192.021.091.053.176.09.262H29.59v-.07h.133l-.133-.256h-.382v.256l.18-.048.138.123h-.302v.07h2.999c.069.16.138.314.138.442v.453a2.138 2.138 0 01-.356-.08c-.42-.165-.844-.298-1.274-.405-.074-.021-.148-.043-.212-.053-.499-.118-1.534-.299-2.08-.299v-1.877c0-.198-.192-.214-.192-.454l.223-.304-.005-.64-.414-.608h-.324l-.021 2.443c0 .15.525.208.53.208l-.052.656-.133.187.053.432H25.02v-.624c0-.235-.233-.208-.45-.262-.075.272-.128.112-.128.326v.56h-.191l.016-1.312.18-.15c.117.08.112.128.255.128h.324v-.645c0-.203-.117-.181-.26-.261l.069-.326h-.255v.262h-.128v-.262h-.19V23.2l.392-.005-.43-.48.064-.064.743.677c.377-.203.95-.421.966-.97h.191v-.326l-.881.021.764-.72.276.694-.1.778h-.255c-.244 0-.34.363-.595.459l.043.293-.223.352h.45v.187h-.45v.533l1.863-.08c0-.816.122-.458-1.03-.458v-.187h1.258l.048-.581h-.191l.19-.374v-2.41h-2.462c-.265 0-.552.149-.626-.022h-.6v.011l-1.48.08h-3.472v3.232h3.487v.128h-3.487v.517l.706-.016 1.619.011.117.33h.323c.038-.143.064-.26.255-.26h.064c.35 0-.027.218.45.26l-.004-.309-.266-.09.266-.246.01-.389v-.256h-.127v-.261c0-.214-.488-.534-.711-.56-.33-.043-.982 0-1.349 0v-.15h1.089l-.075-.192.059.022.154-.235.44.4h.966v.064l-.833.064.323.395.255-.075c.149.203.255.101.255.325v.262h-.191v.325h.578v.107h-.578v.602c.207-.101 1.22-.197 1.22.128v.843h-1.22l.005.304h-.403l.143-.304h-.515v.304h-.727l.213-.235h.45v-.192h-1.862c-.223 0-.44.214-.44.432h-.064v-.949h-.579l.043.261.02.688h-.19v-.368c0-.224-.048-.25-.064-.453h-.255v.821h-2.473v-.949h1.242v-.325c-.117-.027-.642-.262-.642-.262-.223 0-.25.048-.451.064l-.128-.128v-.128h.128v-.149l1.22.021v-.261c-.27.075-.111.128-.323.128h-.192v-.907h.324v-.117h-.324c.048-.581.24.096.324-.357l.112-.075.849.17v-.266l.255.075.01.24-.77.154v.176l.558.011-.377.901h.42l.286-.896h.26c.016-.202.064-.229.064-.453v-.71h-.51l.053-.207-.25.218-.721-.154.276-.214.61-.149.112.267.085.005.212-.539H18.2c.08-.117.128-.112.128-.256v-.906h-.255c-.265 0-.324.293-.319.57l.255.075-.201.032-.505.741v-.389l.048-.064-.111-.064v-.261c0-.203.116-.374.19-.518h-.19v-.197l-1.348.016-1.094-.016v-.128h3.991l.059.197 8.508-.064V19.2l-.09-.101-.043-.171-1.884.027-.515-.016h-.579v-.022h-.552l-.015.406.053-.038-2.06-.026V19.2l1.736-.07c-.074-.106-.01-.127-.191-.127l-.064.005-2.505.043-1.157-.048v.261h-.127v-.192l-.191.016-1.03-.016v.325h-.451l-2.001.059-.186.139c-.403-.352-1.433-.118-1.932 0v.128h.388l-.26 1.226.159.006-.16.512.144.005-.143.384h-.643V20.16c0-.176.032-.176.059-.336l-.202.075.053-.214-.228-.234-.33-.038.203-.026v-.176l-.643-.08c.282-.246 4.83-.192 5.658-.192 1.89 0 3.752-.128 5.748-.144l-.032-.064h2.723v.01h.95c.143 0 .143-.053.26-.133l.515.064.064-.048 11.32-.15v.129h.191l-.01.373-.064-.01-.19-.3-.112.006.18.347-.117.005-.122-.357h-.265c.09.133.191.176.191.352h-.398c-.149-.198-.462-.038-.632.032v-.39h-.323v.192h.19v.128l-.567-.005-.08-.32h-.106l-.021.39h-.128v-.39c-.074-.021-.175-.064-.19-.064-.15 0-.075.021-.255.064v.39H35.06v.511l.775.006c.175.058.287.213.33.458l-.006 3.227-.128.325h-.578v-.906h-.839v.922l-.605.011-.106-.528v-3.365h-.133v-.134c.165.08 1.157-.026 1.157-.32v-.192h-.706v-.058l.966-.006h.388v-.261l-.902.005h-.388l-.907-.016-.186.139c-.117-.08-.112-.128-.255-.128l-.127.01-.451-.01c-.186.005-.213.128-.388.128-.122 0-.042-.128-.255-.128h-.323v.128-.08l-3.02.016-.467.005-.244.006-.016.378v.662l2.415-.064v.698h-.006zM32.61 26.7v-.902h.319l.058.15.069-.027c-.01-.053-.027-.09-.037-.123h2.192l.095.187h.324a.894.894 0 00-.037-.187l6.793.086.085-.15h-3.779c.032-.037.053-.085.09-.133h-.445v.133h-2.76c-.043-.112-.111-.197-.196-.197-.107 0-.192.037-.192.128a.35.35 0 00.011.07h-.87l-.038-.07c.059-.032.128-.043.128-.128 0-.059-.07-.128-.127-.128-.112 0-.223.203-.292.33h-.988a.79.79 0 01-.01-.133v-.192h-.388v-.48h2.474l.037.288h.313l.053-.282h.6c.016.245.08.277.382.288v-.288l5.923.085.042-.15h-5.965v-.031h-.26l.005-.214.51.15v-.71l-1.083.006-.069.165.196.235.314.346v.032h-.584l.005-.032-.398-.005.202-.24.35.112-.218-.57H34.16c.08.117.127.111.127.26 0 .273-.239.107-.34.358l1.1-.112.026.224H32.87v-.139h.828c.149 0 .255-.064.255-.218V24.3l-.255-.262-3.015.064c.016-.202.064-.229.064-.453l-.016-.128.016-.517-.016-.192.016-.518V20.48h-.021v-.71h.021v-.26h1.964c.196 0 .414.191.414.389v3.365c0 .256-.255.197-.255.453v.192h6.045c.17 0 .191.096.229.139h-.006l-1.99.053h-.1c-.256 0-.197.32-.256.582l.356.032h1.666l.35-.102.383.102h2.32l-.208-.672H39.44c.064-.208.1-.139.435-.139l.255-.128v.128l.642-.032 1.03.032.387.907h.44v1.877H32.61v.01zm-.722-6.032l-.08-.171.054-.539-.244-.026v.736h.27zm-.047 1.141c.026-.336.053-.672.058-1.013h-.281v1.013h.223zm-.032-2.037l.19.053.006 2.672h-.196c0-.192.01-.384.02-.57h-.211v.106h-.123v-.107h-.254c.021.534.01 1.142-.17 1.27v-3.43h.127v.891h.297v-.752l-.222-.027-.011-.117.547.01zm19.367-3.99h-.032v-.401c0-.117-.022-.09-.138-.09h-.373c-.186 0-.228-.048-.228.144v.304h-.042l-.038-.118v-.058.01-.112c0-.234-.721-.234-.721 0v.166c-.016.048-.016.085 0 .117v.027h-.085v-.311c0-.202-.064-.144-.26-.144h-.584v.091a.697.697 0 000 .235v.138h-.085v-.261a.264.264 0 000-.144v-.069c-.244-.038-.526-.043-.68 0h-.106v.458h-.079.058v-.053c0-.059.016-.112.016-.17l-.016-.027v-.208h-.843v.449h-.085v-.448h-.504c-.164 0-.308-.07-.308.117v.331h-.085v-.32c0-.176-.1-.118-.26-.118h-.53c-.08 0-.053.048-.053.118v.33h-.017.032-.064v-.053.021-.069.016-.069.016-.07.016-.069.016-.069.016-.07.016c0-.128.02-.106-.154-.106h-.69v.533-.16.139-.512h-.17v-.075h.169v-.138h.087v.165h.689l.154-.064v-.038h.058-.08.022v.038c0 .053-.016.064.053.064h.53c.075 0 .26.042.26-.043v-.053h.085v.053c0 .085.234.043.308.043h.531v-.119h.085v.087h.048c.233.016.461.021.695 0h.048-.01v-.087h.083v.087h.786v-.087h.085v.087h.584c.053 0 .26.026.26-.027v-.059h.085v.064c0 .043.722.043.722 0v-.064h.085v.064c0 .054.175.027.228.027h.287-.021.047c.064 0 .138.032.138-.037v-.064h.085v.053c0 .07.648.037.712.037.11-.005.196.07 0 .075-.107 0-.712-.027-.712.09v.29c-.016.064.016.106-.063.106zm22.742 11.072h.658v.662h-.658v-.662zm-2.245-.005h.658v.661h-.658v-.661zm-2.399.021h.658v.662h-.658v-.662zM45.73 24.848l6.247-.048-.053.133-6.194-.021v-.064zm-29.987-3.91h.648v1.782h-.648v-1.781zm23.73-2.72l-27.679.64c-.09 0-.09-.16-.005-.16l27.678-.64.006.16zm20.311-8.02c.085.18-.143.335-.36.33-.006-.373-.186-.544-.5-.672-.286.07-.17.096-.19-.032l-.006-.027v.016c-1.077-.224-3.264-.33-4.48-.325V9.36c.94.112 5.197.037 5.536.837zm-13.215-.203l.663-.08c-.005-.006-.005-.011-.01-.022l.445-.042c-.005.005-.005.01-.01.016l.175-.016v-.016l.43-.038v.016l.042-.005v-.016l.085.005c.25-.021.52-.021.765-.058.11-.006.228-.016.34-.022.434-.026.503-.032.95-.048l.45-.192c.006.038.117.139.122.166.552-.022.966-.027 1.508-.032a5.15 5.15 0 01.907 0c.16 0 .313.005.473.005l-.059-.17c-1.417-.011-3.354-.118-4.665.106l.27-.181a66.732 66.732 0 014.48-.07l-.143-.149-1.035-.021-.127-.128.02.197-.212-.133c-.45 0-.764.037-1.215.016v.074h-.324l.01-.074-.195-.027.424-2.187c-.276.566-.499 1.686-.615 2.24l-.648.048c-.186 0-.09-.042-.17.064l-1.008.059-.388.016v-.325c0-.278.165-.918.43-1.52.335-.747.807-1.371 1.226-1.616-.037.032-.042.069.01.085-.291.155-.716.736-.95 1.355l.086.394c.1-.394.143-.496.302-.73l.621-.251.149-.07.239-.431.01.266-.138.187c.367 0 .244-.021.393-.315l-.133-.256c.324-.026.25-.128.388-.389l-.255.128c.021-.261.149-.437.281-.624.048-.064.44-.459.425-.475h-.154l-.525.48-.032-.229c0-.187.02-.117.127-.192l.032.128c.143-.075.223-.139.223-.325-.005-.742-.07-.843.775-.843h1.03c.175 0 .175.032.323.064.032.379.127.133.127.39v.58l.452.193-.319.65c.064-.074.393-.533.435-.602 1.258.288 2.877 1.797 3.1 2.416l-.372.128v.133l.494-.203c.196.384.515.875.648 1.627l.074-.256.143.315c.26.01.515.042.775.106l-.058.299c-1.136-.213-2.415-.325-3.641-.384-.255-.89-.515-1.59-.605-1.75-.09-.165-.01.235.403 1.76l-.828-.015.191.197-.148.24c.106.032.323.01.472.037 2.011.059 3.726.23 4.617.512l-.005.011c.037.027.043.096.032.23l-.467-.16.064-.017c-.043-.01-.08-.021-.123-.026-.005.005-.01.01-.015.021l-.696-.123.016-.021-.026-.005.01.026-.355-.074c-.064-.006-.128-.016-.191-.022l-.44-.048h-.027v.006c-.138 0-.197-.016-.372-.016l-.499-.022c-.016 0-.387-.005-.371-.037l.037-.016c-.064-.005-.122-.005-.186-.01l-.042.037h-.388l-.005-.059-.154-.005a4.341 4.341 0 00-.308.282h-.138c.08-.08.186-.176.308-.288-.711-.026-1.465-.032-2.24-.026l-.207.016c-.233.021-.467.042-.7.074.042-.026.084-.053.138-.08-.133.006-.266.006-.404.011a1.8 1.8 0 01.016.096l-.17.005-.17.006-.17.005-.17.005-.69.022-.227-.08c-.24.016-.483.026-.722.042-.616.043-1.226.096-1.81.16-.711.075-1.385.171-2.012.278h-.005l-.005.48c-.526-.011-.945-.208-.642-.518.095-.128 1.226-.293 1.953-.33zm5.642 2.714h.185c.048-.053.144-.042.282-.048l-.011.048.398-.005v-.17l.032-.16-.801.015-.176-.037-.085-.048v.357h.128l.048.048zm-.367 0h.064v-.245h-.127c.037.181.058.117.063.245zm-.217.006h.085v-.246l-.255-.074c-.043.074-.07.08-.07.138.006.107.118.16.24.182zm-.971 0l.589.005-.006-.016-.042-.368-.26-.053.005.314c-.207-.138-.287-.378-.387 0l.1.118zm-.075.005c-.048-.165-.138-.315-.286-.315l-1.996.059v-.779c0-.25.096.059.127-.325l2.367-.107 1.004-.01v-.07l-.207-.042-.202-.128-.186-.432.053-.235.138-.192.202-.128.25-.09.11.01.102.07.095.042.085.053-.005-.005h.005-.164v.33l.08.097h.355a.676.676 0 00-.366-.56l.323.005.383.603-.101.565-.388.075-.048-.118c.117-.096.191-.272.197-.453h-.44v.39h-.064v-.39h-.319v-.112h.319v-.427l-.144-.005-.292.192-.175.048.096.176.037.357.244.096.202.091.164.032h.08l-.085.048-.09.037-.08.016v.075l.971-.01c0 .122.117.191.191.191.218 0 .176-.08.128-.192 1.072.011 2.139.043 3.21.096v.139l.155-.187.217.118.786.016c.186 0 .133.096.17.176l-.17-.011v.17l.053.054.244-.245.027-.144.387.074.005.438.404-.23-.276-.032v-.192h.127v.128h.128v-.128l.127-.074.026.202c.706.096 1.614.368 2.102.603l.037-.192.144.261c.653.235.907.4 1.226.694-1.184-.203-2.51-.315-3.923-.416v-.486h-.127v.454h-.578l.02-.582h-.084v.582c-1.322-.048-2.187-.166-3.407-.102l.106-.08-.07-.064-.122.118h-.302l-.032-.128c.01-.016.096-.032.075-.059-.139-.197-.186.25-.494.25h-.191l-.075.198a35.611 35.611 0 012.262.005c-.006.006-.016.011-.038.022h.229v-.027l1.995.128v.133h-.255v.128h.128l-.128.128c-.106-.4-.286.08-.45-.325-.303 0-.399-.096-.643-.064l-.525.053v.006h-.059l-.063.005v-.005l-.696.005c-.355.117-.79.245-.902.256v-.01l.233-.193-.01-.048h-.26l-.032.064h-.202a.206.206 0 00-.016-.058l-.62.005-.006.01-.021-.01-1.067.01-.048.043h-.154c.07-.085.075.054.075-.042h-.17c-.01.01-.016.021-.027.032l-.132-.032-.388.005.016.016-.27.01v.006h-.064v-.005l-.075.005h-.185v-.027h-.122v.027h-.112l-.053-.027h-.16c-.015.027.054.016-.127.016a.113.113 0 01-.063-.016h-.122l-.006.016h-.254c-.149 0-.165-.021-.255-.064-.17.086.053.064-.191.064-.165 0-.064-.042-.324-.064v.128l-.324-.128v-.09l2.086-.043zm1.773 6.464h.302v3.195l-.302-.086v-3.109zm-10.647-1.307l.494.352-.515.054v.064c.186 0 .743.074.796-.08.053-.15-.281-.128-.01-.214.286-.096-.133.054.27.123l.191.325.064-.005.106-.219.255.075v-.192l.239.043.005 1.344h1.263l.027-.811h.238l-.01-.016h.17c0 .192.005-.005-.075.096l.075.053c.01.011.047-.058.09-.149h.807l-.027.016c.26.005.855-.016 1.035 0 .233.021.371.016.456-.016h.552v.016h.308v-.016h.706l.07.016h.954l.032-.016h.659l.742.016v-.016h.139l-.006.016h.515l.048-.176h-8.105l-.286-.101H52.4l.031-.107h-8.74l-.086-.07h8.922l.281-.346-1.369.01v.017h-.058l.02-.016h-.567l-.027.016h-.175v-.022l-2.027.022h-.16v-.048h-.196l.005.048h-.54l-.006-.048h-.16v.048h-1.47l-.138-.064v.064h-.939l-.027-.048-3.269-.038zm1.242-.597l.138-.005-.43-.219-.01-.005c-.266-.134-.616-.315-.956-.486h-.94l-.206-.16.021.16h-.812l-.01-.922h-.181l.037.922h-.897l-.233.299c-2.824.07-7.521.144-10.642-.592-.207 0 .042.261-.239.341l.138.187h-.308l-.053-.101.25-.198-.037-.069-.775.277.276-.17v-.192c0-.208.276-.283.45-.326v.128h.165l.016-.869.69-.357.059.197-.653.32.021.075.605-.24v.608h.839v.192h.127v-.182h.706v.192h.127v-.192l.595-.005c.26 0 .005.048.106.123.117-.08.111-.128.255-.128h.45l.038.202.026-.202.139.005-.064.123 1.926-.038c.197 0 .165.064.202-.085l1.11-.016v.192h.323c.175 0 .175.032.324.064l-.122-.24 1.316.005v-.256h.839l.01.256h.186l.058-.32.229.086 1.019-.011-.006-.464.881.016v-.33c-2.282-1.014-4.368-1.697-6.602-1.67-2.988.032-5.111 1.44-7.728 2.41l.175.155c.616 0 .712.091.796.432l-.212-.202-.414.074.202-.197-.44.155v-.134l-.139-.016.138-.112-.265.006.138.192-.255-.075c-.053.133-.175.181-.26.277l-.297-.218-4.14 1.701 4.055-.048-.064.027.473-.011.026-.021.902-.011.346.064.19-.07.117-.005.287-.005-.005-.005.642-.016-.096-.054h.786l.01.038.075-.038h.51c0 .006 0 .011-.006.016h.255v-.016h.212v.006h.255v-.006h.461c1.316-.032 2.632-.064 3.948-.09.101 0 .128-.016.143-.048h.24l-.075.042c.908-.026 1.81-.042 2.717-.064.17-.01.24-.08.35-.17l.043.181.409-.155.032.128 1.672-.021c0 .021 0 .043-.006.064h.303l.026-.064h.462-.005l.074.059h.112v-.064h.127v.064h.25c-.006-.011-.011-.022-.022-.032l.005-.032 1.943-.011zm-23.263-3.333l2.58-.166v.39l-2.245.165-.335-.39zm-7.01 11.962v.011h-.325v-.021c.112 0 .218.005.324.01zm22.561 2.726l7.213.08.043-.15h-7.325a9.565 9.565 0 00-1.114-.874l8.051.08.043-.15h-8.2c-.107-.069-.218-.138-.324-.208-.345-.234-.69-.432-.94-.506l-.069-.032v-.107l10.026.085v3.43h.339v-.598l-.043-.106.043-.288v-.592l.058-.006.059-.005.058-.005.058-.006.059-.005.058-.005.059-.006.058-.005v.811l.085.24-.074.17.005.208-.016.182h.169v-1.014l-.015-.16.016-.245v-.203l.111-.005.112-.005.122-.043.106.027.111-.006.112-.005.111-.005.112-.006c.058.352.026.667-.07 1.067l.07.203v.426h.292l.35-.01-.212-.448h.138v-1.259h7.648l.053-.176-7.701.117v-.88h6.82l.063-.16-6.873.107-.01-.864h7.627l.026-.107-7.643.064-.01-.912 7.255.064.026-.133-7.281.027v-.912l.355-.054.197-.165-2.532.016-.393-.064-.45-.053.01-.075h.514v-.128h.515v-.128h-1.093l-.069.32-.074-.224.074-.293c.61.144 1.534.138.966-.715l.186-.059.085.192-.011-1.616c0-.16-.223-.128-.387-.128v-.064h.387v-1.226c0-.144-.053-.144-.127-.262h.127v-.325c0-.197.064-.261.127-.405l-.514.08v-.192c0-.198-.032-.235-.08-.4l.218-.192-.176-.038-.164.176-.059.374h-.19v.384h.132l-.042 3.349c-.027.107.016.144.1.15.176.01.197-.23.26-.369l.213.07-.143.293-.191.021-.027.592-.202-.48-.223.475-.254-.016h-.372v-.955h-.754v.955h-.546l-.377.016-.005-1.413c0-.214-.107-.048-.202-.075-.07.299-.207.357-.324.581-.164.32 0 .443-.462.448l.075-.384c.403-.01.669-.453.514-.778h.388v-1.163c0-.176-.032-.176-.064-.325h.128c-.053-.614-.24-.336-.452-.651.213.048.388.24.388-.064l.154-.032.095-.235 2.023.016v-.554h-3.026l.25-.294h1.077c-.005-.272-.042-.821-.223-.917h-.87v-.085c-.149.144-.425.128-.892.165l-14.447.293h-.472l-5.08.091-4.325.272h-2.378v-.117l1.863-.203v-.197l.144.005-.075.192.037.059.473-.384c.265.128.42.154.446-.171l-.584-.08.01-.07c-.175 0-.45.043-.45-.127 0-.15.042-.192.19-.192h.388v.261h.578c.144 0 .144.053.244.107l.207-.107c.149.037.191.064.388.064.244 0 .25-.16.706-.128v-.261h.127l.021.362.26.155.027-.053-.18-.4h.45l-.005.485h.128l.005-.464h.414l-.255.315.075.112c.217.117.652-1.046-.234-1.163-.35-.048-.541.059-.77.261l-.015-.16-.308.15-.711-.118v.262l.323-.011.451.01c.165-.005.064-.02.255-.063v.261h-.19v-.128l-.054-.053-.265.394v-.261l-1.481.01v-.154h.902c-.042-.192-.095-.325-.324-.325-.223 0-.1.133-.318.117l-.44.005-.139-.186c.08-.043.07-.064.191-.064l1.221-.016 5.212.08v-.038l-2.505-.16h-.902v-.128l1.03.016 3.608-.08h.064v-.117l-3.933-.08-3.922-.027-2.128.043v-.304l1.613-.176v-.25h.451v.255c.276-.037.308-.474.568-.933.335-.592 1.056-1.2 1.672-1.28-.467.437-1.226.95-1.465 2.021l.377-.005-.09-.56 1.258-1.387.43-.005-.229.299.627-.352v.192l.186-.006.074-.256h-.579v-.261h.191v-.192h.388v.192h.19v.261c-.318.107.086.283.24.326l-.048-.326c1.396.203 1.943 1.286 2.065 1.536l2.388.022c.18.005.318.037.318.117l.006 1.237h.329l-.032-1.408h-.191v-.272h.19v-.709c-.334-.112.218-.192.388-.192.144 0 .144.053.255.128l-.01 1.05h-.117v-1.05h-.388v.907l.436.437.005 1.115h.186l.02-1.12 2.251.021.101.17c2.516-1.429 4.83-2.069 7.09-2.09 2.24-.027 4.422.55 6.699 1.557v-.453c-.059-.043-.977-.219-1.078-.277l-.053-.027-.053-.027-.053-.026-.053-.027-.053-.027-.053-.026-.053-.027-.053-.027h.966c.08.192.318.192.578.192h.128c.207 0 .047-.058.323-.128.022.278.038.251.319.262l.016.896.44.005v-.123h.191c-.042-.08-.063-.069-.063-.192v-.325h-.191c.042.176.074.01.074.144 0 .25-.032.17-.17.304l.037-.608 1.401.16-.053-.256-.44-.123.382-.144v.134l2.25-.39v.128h.324l-.005.118-.223.074.01.251c-.982-.021-1.215.32-2.165.01v.262l.026-.075c2.707 1.163.425.624.425.592h-.191c-.175 0-.175.032-.35.022l.212-.134-.51-.208v.192l.33.038-.202.026v.128h.074l-.01.192-.664.838.16.01.159.011.159.01.159.011.16.011.158.01.16.011.159.011.16.01.158.011.16.011.159.01.16.011.158.011.16.01.159.011 6.507-.08 3.105-2.336c-2.702-.154-5.361.118-7.988.31l-.133-.102-.329.048-.074-.384.09-.042-.074-.155h.19v.192c0 .197.075.181.25.192l.117-.325 1.63-.07c.291 0 .498-.138.594.022h.201c.038-.048.08-.075.17-.075h.191c0 .027-.02.15-.026.17l.36.022.096-.144 4.352-.048.17.064.202-.048 1.406.053 1.29.016.833-.08c.022.096.016.192.128.192.143 0 .143 0 .255-.08.291.107 2.08.176 2.574.272v.4c-1.194-.154-2.68-.32-3.986-.336h-.324v-.069h.515l.255-.09.063-.022-.976-.075.08.256h-.643v.144h-.228l-.467.299.568.005c.223 0 .366.299.45.459l.256-.075v.192c0 .235.201.32.45.326l-.052.048 1.189 1.109-.016.24-2.261-2.139-.244.16-.701.006-.16.085.765-.01-.33.25-.763.005-.17.102.775.005-.738.475c-.09-.048-.106-.064-.255-.064h-.19c-.234 0-.23.074-.452.128v-.128l.048.048.255-.262-.096-.117.25-.123-.059.219.435-.288c-.223 0-.902-.085-.902.128 0 .15.021.075.058.24l-.371.139c.042.08.048.08.048.202l-.048.235h.111l.117-.272 1.035-.027-.233.128h-.807v.262c0 .181.047.154.19.192l.006 1.269.754.17.18-.207h-.324v-.075l.255-.043.006-.565 2.314.395.254.213.41-.016-.16-.192.053-.027.663.555-.706-.187-.472.155-.01-.181-.478.112-1.789-.8.005.48 3.461 1.045.239-.032.005.581-.297.038.25.266.052-.042-.132.256h.255c-.054.229-.128.304-.128.581v.843h-.191c-.233 0-.191-.166-.196-.384l.196.058c-.08-.117-.127-.112-.127-.261v-.39h-.191c-.197 0-.255.193-.255.39v.192h-.191l-.01 8.272.907-.005-.213-.614-.106-.005v-3.701h.128l.005-.31.191-.074-.037-.342.1.214c.266-.07.256-.358.325-.64l-.653.186.069.267-.24-.059-.19.192-.064-.064.255-.261.048.048v-.325c0-.15.042-.192.19-.192h.255l-.047-.048.254-.262.048.048v-.128h-.19c0-.821.052.016.185-.506l-.186-.075v.203l-.18-.086-.064-.042-.207.16.005-.395.451.027v-.39c0-.245.123-.346.218-.538l1.104-.006-.228.87h-.775v.128h.19v.97h-.323v.134l.319-.07v.971c-.175-.043-.123-.064-.255-.064-.096 0-.096.08-.127.128h1.417l.016.219.244-.155.318.07v-.129h-.191v-.192l.149-.005-.149-.512c-.17.043-.122.064-.255.064-.037 0-.132-.09-.19-.128v.645h-.903v-.906h.451c.175 0 .175.032.324.064a.615.615 0 00-.515-.262h-.255l-.005-.581c.414-.01.25-.037.387-.325h.643c-.08.117-.128.112-.128.261v.261h.128v-.192h.08l-.017.454-.196.016v.373h-.127l.005.139.318-.139v-.192l.117.005.09.267.197-.23-.271-.24c.133-.053.191-.133.191-.325 0-.154-.127-.288-.191-.389.143-.032.186-.085.324-.08l.578.08c0 1.099.133.672-.387 1.035h.387v.97h.255v-.97h.324l.01.949.388.144-.144-.187.006-1.162v-.843h.515c.148 0 .111.043.111.192v1.99h.212v-3.28l-.148.042v1.099c-.048-.096-.064-.107-.24-.107h-.45v-.645c0-.15.042-.192.19-.192.176 0 .176.032.325.064v-.128h-.324c-.149 0-.191-.043-.191-.192v-.779l.552.01.286.705v-.704h5.425v-.15h-5.425v-.24h3.28v-.453l-3.28-.075.006-3.114.398.224v1.013l2 .512.038-.379h.127l-.01.406.721.208.011-.326-.27-.224.944-.021.276.085.005-.154.314.154h.642v-.064h-.579v-.064h.706l.07.326h-.192v-.128h-.77v.197l.319-.07v.086h.515v.107h-1.285v-.064h.324c-.037-.427-.117-.16-.451-.326v.128l-.382.038.01.384 1.614.512h1.491l-.063-.043.037-.059.26.091.186-.133.206.053.16.096h.743l-.01-.283h.185l.074.134c-.27.09-.053.128.064.128h.451v-.134l.191.128h.579l-.096-.08-.228-.048v-.064l.658.214-.005-.219h-.52l-.011-.064.536-.005-.005-.384-4.607.01.021-.117h5.032v.096l-.213.016c-.196 0-.159.203-.175.384h.579v-.133h.19v-.123l-.19-.075h.19v-.122h1.158l-.064.026.196.427h-.19v.064h-.914v.15c0 .069.059.069.207.069h.913l-.016-.283.605-.016-.005-.443h.074c0 .8.377.192.616.518l-.61-.016.01.234h.664l.255.299v-.192h.254c.297 0 .133-.256.271-.539l.239.139.26-.053v-.192h-.191l-.085-.112-.372-.182.218-.149.138.144-.01-.07 1.22.614-.01.15.127-.07.19.064v.155h-.19v.618l-1.22.006-.091-.155-.043.01.16-.511c-.255.069-.255.501-.276.773h2.303l-.026.064-.934.24-.255-.016.223.16v.064h-.191l-.022.043.149.41h-.127v-.128l.063-.069-.17-.048-.148.363.26.08-.07.128-.063.128v.384h-.127l.016.17.26.15-.085-.256.069-.128v-.454l.127-.128v-.064l-.074.523.138.187.042 5.157H67.092v.139h10.593l.022 2.416-5.494-.027 4.029.965.005 4.331h3.944v13.461c-7.542.39-16.146.358-24.033.31-1.385.026-1.64-1.467 1.439-1.35h8.046c-2.113-.165-3.837-1.056-5.148-2.736-1.142-1.498.228-3.354 1.565-1.605l.425.565 1.762 2.342c.727.944 1.704 1.397 2.792 1.429h5.18c-1.094-.085-1.985-.544-2.665-1.413l-3.55-4.704a3.444 3.444 0 00-2.76-1.371h-5.467c1.083-.021 1.943.368 2.648 1.072.977.976-.69 2.101-1.751 1.28l-1.804-2.395c-2.42-3.21.939-7.136 4.389-6.874 1.083.08 2.367.149 4.017.341l-.413-.528h-11.72l-.297.528 2.017-.283c4.002-.56.855 4.896-1.236 2.518a6.679 6.679 0 00-5.334-2.651H37.794l.998 1.328h.016l7.16 9.456c1.709 1.899 3.848.448 2.309-1.621l-4.9-6.496c-1.294-1.606-3.072-2.699-5.588-2.667l-1.31-1.915a12.054 12.054 0 00-1.243-1.354zM11.852 25.92v.01H7.696c-1.46 0-3.02.625-4.087 2.027l-1.73 2.294h7.85l1.72-2.278c2.956-3.717 6.867-.88 9.144 2.07l1.842 2.442-.043-.005 9.325 12.437c1.678 2.016 3.875 3.238 6.82 3.302h3.8c.76.016 1.136.293.776.981-1.195 1.67-3.54 3.605-9.814 2.907l.828.528 16.644.037c.212-.507 1.783-2.56 2.696-3.728.627-.8.648-.715 1.667-.715 9.272-.005 22.758.006 31.866-.064L81.995 54h-49.62l-16.14-20.477L0 33.517l.005-6.37h1.73l.515-.192v-3.947l.138-.39h-.392l-.064-.063-.642-.064-.064-.064v-.39l.064-.064.387-.064h.706l-.064-.389-.127-.192v-.192l1.03-1.616h.642l.064.064v.261l-.054.064.027.011 3.052-.032v-.24l.764-.277.037.149 4.082-.064v.325c0 .086-.144.144-.361.176l-5.175.08-.308.272.064-.266-.44.074-.06-.138-.54.373.074-.31h-.324l-.08.385.335.005-.292.896-.154-.064-.005.144c.722-.016.504-.613.902-.907l-.387.843c.69-.016.35-.363.77-.645l-.155.442c.6-.042.727-.901.796-.832l.075.054-.34.65c.472-.032.711-.645.716-.64l.075.054c-.154.218-.17.528-.234.565-.159.101-.063-.059-.313.15-.212.175-.1.223-.17.01l-.223.347-.037-.214-.276.171c-.164-.016-.09-.037-.239-.037-.159 0-.546.128-.578.261h.255l.514-.016c.192.016.085-.315.192.016l.955-.592-.653.57.037.065.52-.246h.048l-.218.192.41-.096.238.134.01-.219h-.127l.133-.256-.196.059.074-.251h-.202c.053-.23-.005-.517.324-.517h4.76v1.168h.064v-.523h.107v.71h-.17v.778h.063v-.517h.107v.709h.085v.192h.323c.229 0 .25.155.255.39h-.127v.191l-.016.518.016.453c.005.17-.08.096-.128.219h-.45v.106h.514v1.014h-.324v-.432c0-.368-.324-.491-.324-.71v-.842h.324v-.064h-.424v2.042h-.165.165v.022h-.07v-.027zM65.6 38.875h5.467c.987 0 2.038.421 2.76 1.37l3.55 4.704c.68.87 1.572 1.328 2.665 1.414h-5.18c-1.088-.032-2.065-.491-2.792-1.43l-1.762-2.341-1.762-2.341c-.69-.838-1.619-1.403-2.946-1.376zm-12.96 9.354l-7.484-.01c-.902.064-1.608.874-1.704 1.754-.074 1.046.473 2.203 2.091 2.294 3.907.08 5.987-1.899 7.309-3.318.286-.394.86-.714-.212-.72zm1.225-.73c.93-.326 1.21-.971-.116-1.382-1.354-.4-2.559-1.21-3.535-2.474-1.667-1.579-2.85 1.866-.934 3.333 1.433 1.099 3.19 1.013 4.585.523zm14.771-26.587h-.557v.213l.037.326-.037.277v.299l.037.394.021.336-.058.288v.48l.042.299v.896l-.074.277.032.326-.027.325-.207.043V26h1.099l-.085-.31-.191-.015-.032-4.763zm-.552-.17h.552v-.326h-.138v-.32h-.127v.32h-.446c.016.016-.005.053.016.059a.349.349 0 01.143.266zm2.505-.07l.494-.053.026-.208-.567.005v.187l-.053.016v-.448l.222.048-.148-.299.25-.203h-.192c.064-.778.876-.528 1.592-.528l-.19-.122-1.423-.006.053-.117-.228.005-.037.118-.563-.016.027.266.398.208-.006 1.254c0 .16.186.224.303.229l.085.395-.09.197v.88l.042.24-.043.352.054.624-.053-.032v.293l.02.374-.02.218.138.342-.054.282.053.304-.143.251h-.212v.283h1.013v-.283l-.19-.059-.006-1.861h.887v1.877h.17c0-2.112.6-2.149-1.057-2.304v-1.045l.834-.043v.027h.17v-2.085h-.17v1.712h-.834v-.912h.733v-.128h-.733v-.118h-.525v-.117h-.027zm2.155.107h.632v-.374l-.584-.085-.244.096.032.16.164.203zm.637.16l-.616-.043.112.89-.075.278v.992l.054.4-.053.256v.33l.031.475-.037.187.09.384.07.33-.165.278-.212.032-.032.283h.244l.552.069.244-.07v-.037h.122l-.01.038h1.114v-.256h-.462v-.011l-.77-.005h-.19l-.006-1.92h.627v1.424h.17V23.45h-.17v.026h-.627c-.005-.896-.005-1.658-.005-2.538zm.207 1.104v.341h.409l.17.027v-1.792h-.17v1.424h-.409zm-15.094-5.814l.62.048v.694h-.62v-.742zm-.038.896h.664l-.021.779-.643-.037v-.23l-.185-.058v.128h-.191c.063-.246.1-.192.376-.256v-.326zm.096.96h.621v.742h-.621v-.294l-.154-.048-.122.07-.196-.07v-.128h.472v-.272zm0 .896h.621l.01.918-.631-.176v-.219l-.488.256 1.178.31-.196.709-1.13-.006.042-.421-.207-.043.005-.474.207-.075-.144-.117.218-.379.01-.384-.286.053.075-.202.472-.086-.01.854.26.005v-.523h-.006zm1.045-2.666l.621.058v.683h-.62v-.741zm-.026.853h.621v.741l-.621-.026v-.715zm-.016.901l.621.038v.704h-.62v-.742zm0 .854h.621v.938h-.62v-.938zm3.1-2.811l5.626-.005.074.133h-5.7v-.128z" fill="#F9F6F3"/></svg>