<svg width="91" height="29" fill="none" xmlns="http://www.w3.org/2000/svg"><path d="M11.54 22.3c-2.12 0-4.04-.46-5.76-1.38-1.7-.94-3.04-2.23-4.02-3.87C.8 15.41.32 13.56.32 11.5c0-2.06.49-3.91 1.47-5.55a10.31 10.31 0 014.02-3.84C7.53 1.17 9.45.7 11.57.7c1.72 0 3.29.3 4.71.9 1.42.6 2.62 1.47 3.6 2.61l-2.52 2.37c-1.52-1.64-3.39-2.46-5.61-2.46-1.44 0-2.73.32-3.87.96a6.705 6.705 0 00-2.67 2.61c-.64 1.12-.96 2.39-.96 3.81s.32 2.69.96 3.81c.64 1.12 1.53 2 2.67 2.64 1.14.62 2.43.93 3.87.93 2.22 0 4.09-.83 5.61-2.49l2.52 2.4c-.98 1.14-2.19 2.01-3.63 2.61-1.42.6-2.99.9-4.71.9zM29.23 5.8c2.36 0 4.16.57 5.4 1.71 1.26 1.12 1.89 2.82 1.89 5.1V22h-3.54v-1.95c-.46.7-1.12 1.24-1.98 1.62-.84.36-1.86.54-3.06.54s-2.25-.2-3.15-.6c-.9-.42-1.6-.99-2.1-1.71-.48-.74-.72-1.57-.72-2.49 0-1.44.53-2.59 1.59-3.45 1.08-.88 2.77-1.32 5.07-1.32h4.14v-.24c0-1.12-.34-1.98-1.02-2.58-.66-.6-1.65-.9-2.97-.9-.9 0-1.79.14-2.67.42-.86.28-1.59.67-2.19 1.17l-1.47-2.73c.84-.64 1.85-1.13 3.03-1.47 1.18-.34 2.43-.51 3.75-.51zm-.51 13.68c.94 0 1.77-.21 2.49-.63.74-.44 1.26-1.06 1.56-1.86v-1.86H28.9c-2.16 0-3.24.71-3.24 2.13 0 .68.27 1.22.81 1.62.54.4 1.29.6 2.25.6zM44.903 8.32c1.08-1.68 2.98-2.52 5.7-2.52v3.57a4.76 4.76 0 00-.87-.09c-1.46 0-2.6.43-3.42 1.29-.82.84-1.23 2.06-1.23 3.66V22h-3.75V5.98h3.57v2.34zm24.635-2.34v13.59c0 5.64-2.88 8.46-8.64 8.46-1.54 0-3-.2-4.38-.6-1.38-.38-2.52-.94-3.42-1.68l1.68-2.82c.7.58 1.58 1.04 2.64 1.38 1.08.36 2.17.54 3.27.54 1.76 0 3.05-.4 3.87-1.2.82-.8 1.23-2.02 1.23-3.66v-.84c-.64.7-1.42 1.23-2.34 1.59-.92.36-1.93.54-3.03.54-1.52 0-2.9-.32-4.14-.96a7.568 7.568 0 01-2.91-2.76c-.7-1.18-1.05-2.53-1.05-4.05s.35-2.86 1.05-4.02a7.35 7.35 0 012.91-2.73c1.24-.64 2.62-.96 4.14-.96 1.16 0 2.21.19 3.15.57.96.38 1.76.96 2.4 1.74V5.98h3.57zm-8.55 12.12c1.42 0 2.58-.42 3.48-1.26.92-.86 1.38-1.97 1.38-3.33 0-1.34-.46-2.43-1.38-3.27-.9-.84-2.06-1.26-3.48-1.26-1.44 0-2.62.42-3.54 1.26-.9.84-1.35 1.93-1.35 3.27 0 1.36.45 2.47 1.35 3.33.92.84 2.1 1.26 3.54 1.26zm20.68 4.11c-1.62 0-3.08-.35-4.38-1.05-1.3-.7-2.32-1.67-3.06-2.91-.72-1.26-1.08-2.68-1.08-4.26 0-1.58.36-2.99 1.08-4.23a7.793 7.793 0 013.06-2.91c1.3-.7 2.76-1.05 4.38-1.05 1.64 0 3.11.35 4.41 1.05 1.3.7 2.31 1.67 3.03 2.91.74 1.24 1.11 2.65 1.11 4.23 0 1.58-.37 3-1.11 4.26-.72 1.24-1.73 2.21-3.03 2.91-1.3.7-2.77 1.05-4.41 1.05zm0-3.21c1.38 0 2.52-.46 3.42-1.38.9-.92 1.35-2.13 1.35-3.63s-.45-2.71-1.35-3.63c-.9-.92-2.04-1.38-3.42-1.38s-2.52.46-3.42 1.38c-.88.92-1.32 2.13-1.32 3.63s.44 2.71 1.32 3.63c.9.92 2.04 1.38 3.42 1.38z" fill="#333"/></svg>