<svg xmlns="http://www.w3.org/2000/svg" width="50pt" height="50pt" viewBox="0 0 50 50"><path d="M25.738 33.793v-.195a41.456 41.456 0 01-2.867-.141 13.12 13.12 0 01-2.078 3.559c1.656.273 3.332.422 5.012.445zm-4.383-7.164a10.866 10.866 0 00-7.378-8.129 10.855 10.855 0 00-10.453 2.328c-4.407 4.004-4.72 10.832-.715 15.238 4.004 4.403 10.832 4.715 15.234.711a10.7 10.7 0 003.527-7.972c0-.727-.074-1.461-.215-2.176zm-10.574.726a4.092 4.092 0 013.942 2.973 4.088 4.088 0 01-2.836 5.043v.953c0 .594-.489 1.082-1.082 1.082a1.087 1.087 0 01-1.082-1.082v-.941a4.113 4.113 0 01-3.032-3.95c0-.593.489-1.081 1.082-1.081.598 0 1.082.488 1.082 1.082a1.922 1.922 0 003.844-.012 1.922 1.922 0 00-1.926-1.914 4.08 4.08 0 01-3.941-3.031 4.112 4.112 0 012.902-5v-.465c0-.594.485-1.082 1.082-1.082.594 0 1.082.488 1.082 1.082v.488a4.091 4.091 0 012.977 3.938 1.082 1.082 0 11-2.164 0 1.933 1.933 0 00-1.93-1.926 1.932 1.932 0 00-1.926 1.925c0 1.063.868 1.918 1.926 1.918zm14.926 4.067l-.066-3.832a34.637 34.637 0 01-1.957-.074c.03.433.054.855.054 1.277 0 .844-.09 1.7-.25 2.531a23.9 23.9 0 002.219.098zm11.848-17.91a12.87 12.87 0 01-2.348.941c-2.434.738-5.629 1.137-8.96 1.137-3.192 0-6.231-.367-8.583-1.047a12.24 12.24 0 01-2.336-.898l.074 3.05a12.412 12.412 0 013.387 1.914c.035.012.055.012.09.024 2.078.527 4.695.808 7.367.808 3.098 0 6.137-.386 8.332-1.046 2.348-.715 2.867-1.461 2.867-1.602 0-.152-.008-.293.11-.445zM34.57 9.219c-2.199-.672-5.238-1.051-8.336-1.051-3.113 0-6.035.379-8.222 1.05-2.282.692-2.782 1.372-2.793 1.59 0 0 .011 0 .011.02.055.238.704.977 3.032 1.645 2.152.629 4.988.976 7.972.976 3.098 0 6.125-.379 8.325-1.039 2.347-.703 2.879-1.45 2.879-1.601 0-.141-.52-.88-2.868-1.59zM49.977 39.16v-3.246c-.723.367-1.48.68-2.27.918-2.426.738-5.598 1.137-8.941 1.137-2.965 0-5.852-.336-8.125-.93a14.191 14.191 0 01-2.696-.984L28 39.19v.024c0 .16.477.887 2.758 1.59 2.164.66 5.086 1.027 8.215 1.027 3.117 0 6.05-.379 8.234-1.059 2.285-.714 2.781-1.46 2.781-1.613zM37.535 19.55a13.77 13.77 0 01-2.34.93c-2.433.739-5.625 1.137-8.968 1.137a38.69 38.69 0 01-4.903-.312 12.913 12.913 0 011.938 4.023c.93.067 1.937.11 2.972.11h.11c1.773-1.946 6.547-2.922 11.191-3.051zm10.094 11.298c-2.41.715-5.55 1.105-8.84 1.105-3.191 0-6.234-.367-8.582-1.05a13.204 13.204 0 01-2.36-.91l.044 2.491.011.907c.844 1.05 4.88 2.402 10.875 2.402 3.13 0 6.082-.367 8.301-1.04 2.336-.71 2.848-1.448 2.848-1.6 0-.118.062-.247.062-.356H50V29.93a12.21 12.21 0 01-2.371.918zm-.508-5.246c-2.207-.672-5.238-1.028-8.332-1.028h-.184c-2.878 0-5.617.324-7.714.918-2.243.63-3.008 1.344-3.106 1.633-.012.023-.012.035-.012.043l.02.047c.066.226.703.96 3.031 1.644 2.153.618 4.988.961 7.977.961 3.082 0 6.004-.355 8.222-1.015 2.403-.715 2.946-1.461 2.954-1.625v-.012c-.008-.16-.551-.875-2.856-1.566zm0 0"/></svg>