<svg xmlns="http://www.w3.org/2000/svg" width="50pt" height="50pt" viewBox="0 0 50 50"><path d="M3.125 26.531v18.75a3.127 3.127 0 003.125 3.125h15.625V26.531zm43.75-12.5h-9.887c.707-.484 1.317-.965 1.742-1.394 2.524-2.535 2.524-6.66 0-9.196-2.449-2.468-6.718-2.46-9.164 0-1.355 1.36-4.949 6.895-4.453 10.59h-.226c.496-3.695-3.098-9.23-4.453-10.59-2.45-2.46-6.72-2.46-9.164 0-2.52 2.536-2.52 6.66-.004 9.196.43.43 1.039.91 1.746 1.394H3.125A3.132 3.132 0 000 17.156v4.688c0 .863.7 1.562 1.563 1.562h20.312v-6.25h6.25v6.25h20.313c.863 0 1.562-.699 1.562-1.562v-4.688a3.13 3.13 0 00-3.125-3.125zm-25.184-.101s-.132.101-.578.101c-2.16 0-6.281-2.242-7.629-3.597a3.412 3.412 0 010-4.79 3.322 3.322 0 012.368-.988c.89 0 1.734.352 2.367.989 2.105 2.12 4.199 7.53 3.472 8.285zm7.192.101c-.442 0-.574-.097-.574-.101-.727-.754 1.367-6.164 3.472-8.285 1.258-1.27 3.461-1.278 4.735 0a3.405 3.405 0 010 4.789c-1.348 1.355-5.47 3.597-7.633 3.597zm-.758 12.5v21.875H43.75a3.124 3.124 0 003.125-3.125v-18.75zm0 0"/></svg>