<svg width="18" height="18" fill="none" xmlns="http://www.w3.org/2000/svg"><path d="M8.998 5.999a3.008 3.008 0 00-3.002 3 3.008 3.008 0 003.002 3.002 3.008 3.008 0 003-3.001 3.008 3.008 0 00-3-3.001zm9.001 3c0-1.242.011-2.474-.058-3.714-.07-1.441-.4-2.72-1.453-3.774C15.432.455 14.156.13 12.715.06 11.472-.01 10.24.001 9 .001 7.757 0 6.525-.011 5.285.059 3.844.13 2.565.458 1.51 1.511.455 2.567.13 3.844.06 5.285-.01 6.528.001 7.759.001 9c0 1.24-.012 2.474.058 3.715.07 1.44.399 2.72 1.452 3.773 1.056 1.056 2.333 1.383 3.774 1.453 1.243.07 2.474.058 3.715.058 1.243 0 2.474.011 3.715-.058 1.44-.07 2.72-.4 3.773-1.453 1.056-1.056 1.383-2.332 1.453-3.773.072-1.24.058-2.472.058-3.715zm-9.001 4.619A4.611 4.611 0 014.38 9a4.611 4.611 0 014.618-4.618A4.611 4.611 0 0113.615 9a4.611 4.611 0 01-4.617 4.618zm4.807-8.347a1.077 1.077 0 01-1.079-1.078c0-.597.482-1.079 1.079-1.079a1.077 1.077 0 01.412 2.076c-.13.054-.27.082-.412.081z" fill="#333"/></svg>