<svg xmlns="http://www.w3.org/2000/svg" width="40" height="40" viewBox="0 0 30 30"><path d="M28.219 2.496H10.402c-.98 0-1.78.8-1.78 1.781V6.86c0 .985.8 1.782 1.78 1.782H28.22c.98 0 1.781-.797 1.781-1.782V4.277c0-.98-.8-1.78-1.781-1.78zm0 9.434H10.402c-.98 0-1.78.797-1.78 1.78v2.58c0 .983.8 1.78 1.78 1.78H28.22c.98 0 1.781-.797 1.781-1.78v-2.58c0-.983-.8-1.78-1.781-1.78zm0 9.43H10.402c-.98 0-1.78.796-1.78 1.78v2.583c0 .98.8 1.78 1.78 1.78H28.22c.98 0 1.781-.8 1.781-1.78V23.14c0-.985-.8-1.782-1.781-1.782zM4.645 2.496H1.78c-.98 0-1.781.8-1.781 1.781V6.86c0 .985.8 1.782 1.781 1.782h2.864c.98 0 1.78-.797 1.78-1.782V4.277c0-.98-.8-1.78-1.78-1.78zm0 9.434H1.78c-.98 0-1.781.797-1.781 1.78v2.58c0 .983.8 1.78 1.781 1.78h2.864c.98 0 1.78-.797 1.78-1.78v-2.58c0-.983-.8-1.78-1.78-1.78zm0 9.43H1.78c-.98 0-1.781.796-1.781 1.78v2.583c0 .98.8 1.78 1.781 1.78h2.864c.98 0 1.78-.8 1.78-1.78V23.14c0-.985-.8-1.782-1.78-1.782zm0 0"/></svg>