<svg xmlns="http://www.w3.org/2000/svg" width="50pt" height="50pt" viewBox="0 0 50 50"><path d="M20.703 29.297c-4.77-4.774-5.848-9.547-6.094-11.457a1.723 1.723 0 01.493-1.434l3.863-3.863a1.72 1.72 0 00.242-2.133L13.059.863a1.724 1.724 0 00-2.235-.629L.954 4.883c-.641.316-1.02 1-.946 1.71.515 4.915 2.656 16.997 14.527 28.868 11.871 11.871 23.95 14.012 28.867 14.531a1.721 1.721 0 001.711-.949l4.649-9.871a1.72 1.72 0 00-.625-2.23l-9.547-6.149a1.725 1.725 0 00-2.133.242l-3.863 3.863a1.723 1.723 0 01-1.434.493c-1.91-.246-6.683-1.325-11.457-6.094zm0 0"/><path d="M39.656 26.723c-.953 0-1.726-.77-1.726-1.723-.008-7.137-5.793-12.922-12.93-12.93a1.724 1.724 0 010-3.449C34.043 8.63 41.371 15.957 41.379 25c0 .953-.774 1.723-1.723 1.723zm0 0"/><path d="M48.277 26.723c-.953 0-1.726-.77-1.726-1.723C46.539 13.102 36.898 3.46 25 3.45A1.724 1.724 0 0125 0c13.8.016 24.984 11.2 25 25a1.72 1.72 0 01-1.723 1.723zm0 0"/></svg>