<svg xmlns="http://www.w3.org/2000/svg" width="50pt" height="50pt" viewBox="0 0 50 50"><path d="M1.754 30.844V9.57c0-1.183.957-2.14 2.14-2.14h21.262c1.184 0 2.14.957 2.14 2.14v21.274c0 .394-.32.715-.71.715H2.469a.715.715 0 01-.715-.715zm17.172 7.289a4.44 4.44 0 11-8.88-.006 4.44 4.44 0 018.88.006zm-2.223 0a2.22 2.22 0 00-2.219-2.223 2.22 2.22 0 000 4.442 2.22 2.22 0 002.22-2.22zM10.66 33.69H.715a.715.715 0 00-.715.715v2.164c0 .395.32.711.715.711h7.973a5.864 5.864 0 011.972-3.59zm31.492 4.442a4.44 4.44 0 11-8.88-.006 4.44 4.44 0 018.88.006zm-2.218 0a2.224 2.224 0 00-2.223-2.223 2.223 2.223 0 00-2.219 2.223c0 1.222.996 2.219 2.219 2.219a2.223 2.223 0 002.223-2.22zM50 34.406v2.164c0 .395-.32.711-.715.711h-5.773a5.87 5.87 0 00-5.801-5.015c-2.945 0-5.383 2.183-5.797 5.015H20.281a5.845 5.845 0 00-1.972-3.59h11.027V13.285c0-.789.64-1.43 1.43-1.43H37.5c1.898 0 3.668.946 4.73 2.516l4.344 6.43c.637.945.977 2.058.977 3.195v9.695h1.734c.395 0 .715.32.715.715zM42.762 20.97l-3.473-4.938a.716.716 0 00-.582-.3h-5.418c-.394 0-.71.32-.71.714v4.934c0 .394.316.71.71.71h8.89a.71.71 0 00.583-1.12zm0 0"/></svg>