<svg width="18" height="18" fill="none" xmlns="http://www.w3.org/2000/svg"><path d="M2 0a2 2 0 00-2 2v14a2 2 0 002 2h14a2 2 0 002-2V2a2 2 0 00-2-2H2zm.5 5.5H4c.36 0 .5.16.64.57C5.36 8.17 6.57 10 7.07 10c.19 0 .28-.08.28-.55V7.28c-.06-1-.59-1.09-.59-1.44 0-.17.14-.34.38-.34h2.31c.32 0 .42.17.42.54v2.92c0 .31.13.42.23.42.19 0 .35-.11.69-.45 1.06-1.19 1.81-3.01 1.81-3.01.1-.22.27-.42.64-.42h1.47c.45 0 .55.23.45.54-.19.86-1.98 3.39-1.98 3.39-.18.25-.22.37 0 .66.15.21.67.65 1.01 1.06.64.71 1.11 1.31 1.25 1.72.12.42-.09.63-.51.63h-1.48c-.56 0-.72-.45-1.72-1.45-.88-.84-1.23-.95-1.47-.95-.3 0-.39.08-.39.51v1.32c0 .36-.11.57-1.05.57-1.56 0-3.28-.95-4.49-2.7C2.5 8.24 2 6.31 2 5.92c0-.22.08-.42.5-.42z" fill="#333"/></svg>