<svg width="18" height="18" fill="none" xmlns="http://www.w3.org/2000/svg"><path d="M17.298 1.545C16.648.448 15.45 0 13.158 0H4.842C2.498 0 1.278.477.632 1.645 0 2.785 0 4.463 0 6.786v4.428C0 15.714.749 18 4.842 18h8.316c1.987 0 3.088-.395 3.8-1.364.73-.993 1.042-2.614 1.042-5.422V6.786c0-2.45-.049-4.138-.702-5.24zm-5.742 8.066L7.78 12.416a.449.449 0 01-.27.094.46.46 0 01-.3-.12c-.174-.15-.28-.417-.28-.705V6.094c0-.288.106-.556.28-.705a.435.435 0 01.568-.028l3.777 2.787c.192.142.313.423.313.731s-.12.59-.312.732z" fill="#333"/></svg>