<svg xmlns="http://www.w3.org/2000/svg" width="40pt" height="40pt" viewBox="0 0 40 40"><path d="M31.613 24.777c-.82-.851-1.808-1.308-2.855-1.308-1.035 0-2.035.449-2.887 1.3l-2.668 2.66c-.219-.116-.437-.226-.648-.34a9.638 9.638 0 01-.836-.444c-2.5-1.586-4.77-3.657-6.95-6.332-1.054-1.333-1.765-2.458-2.277-3.598.692-.633 1.332-1.29 1.957-1.922.239-.238.473-.484.711-.719 1.77-1.773 1.77-4.07 0-5.844l-2.305-2.304c-.261-.262-.535-.531-.785-.801a40.296 40.296 0 00-1.59-1.57c-.816-.809-1.796-1.243-2.828-1.243-1.027 0-2.023.434-2.87 1.243-.009.007-.009.007-.016.015l-2.871 2.9a6.184 6.184 0 00-1.833 3.926c-.203 2.464.524 4.761 1.083 6.261 1.367 3.692 3.41 7.11 6.457 10.774 3.699 4.414 8.148 7.902 13.23 10.36 1.941.917 4.535 2.007 7.43 2.194.175.008.363.016.531.016 1.95 0 3.586-.7 4.871-2.094.008-.015.023-.023.035-.043.438-.531.946-1.011 1.477-1.527a36.25 36.25 0 001.097-1.09c.836-.867 1.274-1.883 1.274-2.922 0-1.047-.445-2.05-1.3-2.894zm3.024 8.891c-.012 0-.012.008 0 0-.332.355-.668.676-1.032 1.031-.55.524-1.105 1.07-1.628 1.688-.856.91-1.86 1.343-3.176 1.343-.125 0-.262 0-.387-.011-2.508-.16-4.84-1.137-6.586-1.973-4.777-2.312-8.973-5.598-12.46-9.762-2.88-3.468-4.806-6.675-6.079-10.12-.785-2.102-1.074-3.739-.945-5.286.082-.988.465-1.805 1.164-2.508l2.879-2.879c.414-.386.851-.597 1.285-.597.531 0 .96.32 1.23.59l.028.027c.511.48 1.004.976 1.52 1.508.26.273.53.543.8.82l2.305 2.305c.894.894.894 1.722 0 2.617-.246.246-.48.488-.727.726a41.851 41.851 0 01-2.117 2.06c-.02.019-.035.026-.043.042-.727.727-.59 1.438-.441 1.918.011.023.02.05.027.074.598 1.453 1.445 2.82 2.726 4.45l.008.007c2.332 2.871 4.79 5.11 7.496 6.825.348.218.703.394 1.04.562.304.152.59.297.835.45.036.015.067.042.102.058.289.144.559.21.836.21.7 0 1.14-.437 1.285-.581l2.887-2.887c.285-.29.742-.633 1.273-.633.524 0 .953.328 1.215.613a.047.047 0 00.02.02l4.648 4.652c.871.86.871 1.746.012 2.641zM21.617 9.516a10.687 10.687 0 015.824 3.023 10.739 10.739 0 013.024 5.824c.094.555.574.946 1.12.946.071 0 .13-.008.196-.016a1.144 1.144 0 00.938-1.32 13.023 13.023 0 00-3.657-7.047 13.023 13.023 0 00-7.046-3.656 1.148 1.148 0 00-1.32.93 1.13 1.13 0 00.921 1.316zm18.336 8.129c-.75-4.407-2.828-8.418-6.02-11.61A21.43 21.43 0 0022.325.015c-.613-.109-1.195.313-1.308.93a1.147 1.147 0 00.937 1.317c3.938.668 7.524 2.535 10.379 5.379 2.852 2.855 4.707 6.441 5.375 10.375.094.558.574.945 1.125.945.066 0 .125-.008.191-.016a1.12 1.12 0 00.93-1.3zm0 0"/></svg>