<svg xmlns="http://www.w3.org/2000/svg" width="40pt" height="40pt" viewBox="0 0 40 40"><path d="M20 16.023A3.983 3.983 0 0016.023 20 3.983 3.983 0 0020 23.977 3.983 3.983 0 0023.977 20 3.983 3.983 0 0020 16.023zm0 0A3.983 3.983 0 0016.023 20 3.983 3.983 0 0020 23.977 3.983 3.983 0 0023.977 20 3.983 3.983 0 0020 16.023zm6.625-6.484h-13.25a3.838 3.838 0 00-3.836 3.836v13.25a3.838 3.838 0 003.836 3.836h13.25a3.838 3.838 0 003.836-3.836v-13.25a3.838 3.838 0 00-3.836-3.836zM20 26.891c-3.797 0-6.89-3.094-6.89-6.891s3.093-6.89 6.89-6.89c3.797 0 6.89 3.093 6.89 6.89 0 3.797-3.093 6.89-6.89 6.89zm7.11-12.356a1.63 1.63 0 01-1.63-1.629 1.63 1.63 0 013.258 0 1.63 1.63 0 01-1.629 1.63zM20 16.023A3.983 3.983 0 0016.023 20 3.983 3.983 0 0020 23.977 3.983 3.983 0 0023.977 20 3.983 3.983 0 0020 16.023zm6.625-6.484h-13.25a3.838 3.838 0 00-3.836 3.836v13.25a3.838 3.838 0 003.836 3.836h13.25a3.838 3.838 0 003.836-3.836v-13.25a3.838 3.838 0 00-3.836-3.836zM20 26.891c-3.797 0-6.89-3.094-6.89-6.891s3.093-6.89 6.89-6.89c3.797 0 6.89 3.093 6.89 6.89 0 3.797-3.093 6.89-6.89 6.89zm7.11-12.356a1.63 1.63 0 01-1.63-1.629 1.63 1.63 0 013.258 0 1.63 1.63 0 01-1.629 1.63zM20 16.023A3.983 3.983 0 0016.023 20 3.983 3.983 0 0020 23.977 3.983 3.983 0 0023.977 20 3.983 3.983 0 0020 16.023zM0 0v40h40V0zm33.375 26.625a6.757 6.757 0 01-6.75 6.75h-13.25a6.757 6.757 0 01-6.75-6.75v-13.25a6.757 6.757 0 016.75-6.75h13.25a6.757 6.757 0 016.75 6.75zm-6.75-17.086h-13.25a3.838 3.838 0 00-3.836 3.836v13.25a3.838 3.838 0 003.836 3.836h13.25a3.838 3.838 0 003.836-3.836v-13.25a3.838 3.838 0 00-3.836-3.836zM20 26.891c-3.797 0-6.89-3.094-6.89-6.891s3.093-6.89 6.89-6.89c3.797 0 6.89 3.093 6.89 6.89 0 3.797-3.093 6.89-6.89 6.89zm7.11-12.356a1.63 1.63 0 01-1.63-1.629 1.63 1.63 0 013.258 0 1.63 1.63 0 01-1.629 1.63zM20 16.023A3.983 3.983 0 0016.023 20 3.983 3.983 0 0020 23.977 3.983 3.983 0 0023.977 20 3.983 3.983 0 0020 16.023zm0 0A3.983 3.983 0 0016.023 20 3.983 3.983 0 0020 23.977 3.983 3.983 0 0023.977 20 3.983 3.983 0 0020 16.023zm0 0A3.983 3.983 0 0016.023 20 3.983 3.983 0 0020 23.977 3.983 3.983 0 0023.977 20 3.983 3.983 0 0020 16.023zm6.625-6.484h-13.25a3.838 3.838 0 00-3.836 3.836v13.25a3.838 3.838 0 003.836 3.836h13.25a3.838 3.838 0 003.836-3.836v-13.25a3.838 3.838 0 00-3.836-3.836zM20 26.891c-3.797 0-6.89-3.094-6.89-6.891s3.093-6.89 6.89-6.89c3.797 0 6.89 3.093 6.89 6.89 0 3.797-3.093 6.89-6.89 6.89zm7.11-12.356a1.63 1.63 0 01-1.63-1.629 1.63 1.63 0 013.258 0 1.63 1.63 0 01-1.629 1.63zM20 16.023A3.983 3.983 0 0016.023 20 3.983 3.983 0 0020 23.977 3.983 3.983 0 0023.977 20 3.983 3.983 0 0020 16.023zm0 0A3.983 3.983 0 0016.023 20 3.983 3.983 0 0020 23.977 3.983 3.983 0 0023.977 20 3.983 3.983 0 0020 16.023zm0 0A3.983 3.983 0 0016.023 20 3.983 3.983 0 0020 23.977 3.983 3.983 0 0023.977 20 3.983 3.983 0 0020 16.023zm6.625-6.484h-13.25a3.838 3.838 0 00-3.836 3.836v13.25a3.838 3.838 0 003.836 3.836h13.25a3.838 3.838 0 003.836-3.836v-13.25a3.838 3.838 0 00-3.836-3.836zM20 26.891c-3.797 0-6.89-3.094-6.89-6.891s3.093-6.89 6.89-6.89c3.797 0 6.89 3.093 6.89 6.89 0 3.797-3.093 6.89-6.89 6.89zm7.11-12.356a1.63 1.63 0 01-1.63-1.629 1.63 1.63 0 013.258 0 1.63 1.63 0 01-1.629 1.63zM20 16.023A3.983 3.983 0 0016.023 20 3.983 3.983 0 0020 23.977 3.983 3.983 0 0023.977 20 3.983 3.983 0 0020 16.023zm0 0"/></svg>