<svg xmlns="http://www.w3.org/2000/svg" width="40pt" height="40pt" viewBox="0 0 40 40"><path d="M0 0v40h40V0zm33.773 25.363c-3.132 7.996-11.535 10.825-17.836 8.828.47-1.16 1.008-2.308 1.399-3.504.394-1.199.644-2.445.941-3.601.254.215.512.441.778.652 1.394 1.102 2.968 1.207 4.617.809 1.754-.418 3.14-1.414 4.168-2.875 1.734-2.473 2.348-5.27 1.926-8.211-.434-3.043-2.235-5.246-5.059-6.356-4.254-1.668-8.289-1.105-11.785 1.957-2.688 2.352-3.59 6.344-2.297 9.454.445 1.078 1.156 1.922 2.227 2.43.543.257.773.152.93-.415.011-.043.027-.082.042-.125.301-.793.23-1.445-.304-2.21-.977-1.395-.805-3.012-.332-4.56.894-2.937 3.515-4.898 6.593-4.925.824-.008 1.672.062 2.469.258 2.375.578 3.906 2.414 4.063 4.847.12 1.954-.184 3.852-1.032 5.633-.422.883-.976 1.668-1.8 2.223-.774.523-1.626.734-2.544.492-1.269-.332-1.988-1.488-1.667-2.758.332-1.312.761-2.605 1.09-3.922.136-.554.21-1.16.152-1.726-.153-1.547-1.614-2.266-2.977-1.512-.957.527-1.418 1.41-1.629 2.434-.222 1.05-.113 2.09.227 3.11.07.202.078.456.031.667-.621 2.703-1.281 5.398-1.871 8.11-.172.788-.137 1.624-.195 2.44-.012.157 0 .313 0 .52C7.566 30.801 3.32 23.027 6.02 15.13c2.675-7.81 11.324-11.9 19.109-9.01 7.808 2.9 11.671 11.517 8.644 19.243zm0 0"/></svg>