<svg xmlns="http://www.w3.org/2000/svg" width="50pt" height="50pt" viewBox="0 0 50 50"><path d="M27.473 31c-.68-1.492-1.535-2.285-2.473-2.285s-1.793.793-2.473 2.285c-.484 1.07-.812 2.36-.812 3.215 0 1.168.617 1.746 1.133 2.023.52.282 1.203.41 2.152.41.95 0 1.633-.128 2.152-.41.516-.277 1.133-.855 1.133-2.023 0-.856-.328-2.145-.812-3.215zM25 35.184c-1.82 0-1.82-.536-1.82-.97 0-.55.234-1.624.68-2.609.476-1.043.945-1.425 1.14-1.425.195 0 .664.383 1.14 1.425.446.985.68 2.06.68 2.61 0 .433 0 .969-1.82.969zm-1.008-10.34a2.196 2.196 0 00-2.066-2.192 2.2 2.2 0 00-3.07-1.418 2.199 2.199 0 00-2.946-.078 2.134 2.134 0 00-1.082-.273c-.84.012-1.336.363-1.605.656a2.06 2.06 0 00-.461.809 2.202 2.202 0 00-2.016 2.726 2.191 2.191 0 00-.332 3.305 2.24 2.24 0 00-.184.867c-.007.793.313 1.281.586 1.555.352.351.782.515 1.149.59a2.2 2.2 0 002.09 1.527c.207 0 .406-.031.601-.086.395.352.906.547 1.45.547.66 0 1.273-.3 1.683-.79a1.9 1.9 0 00.738.102c.864-.054 1.364-.425 1.625-.726.215-.242.344-.508.418-.75a2.2 2.2 0 001.957-2.168 2.26 2.26 0 00.774-.445c.43-.387.668-.93.691-1.575a2.097 2.097 0 00-.281-1.109 2.22 2.22 0 00.281-1.074zm-4.746-2.102a.734.734 0 01.559-.258c.402 0 .812.282.718.868a.823.823 0 00-.003.218 6.319 6.319 0 00-1.723-.578.744.744 0 00.45-.25zm-2.57-.226a.731.731 0 011.336.03.725.725 0 00.343.372 8.694 8.694 0 00-2.016-.063.745.745 0 00.337-.34zm-2.38.015c.044-.047.169-.18.556-.183a.695.695 0 01.574.293c.101.136.25.23.41.27a5.818 5.818 0 00-1.078.257 4.044 4.044 0 00-.73.344.723.723 0 00.081-.383c-.004-.106.02-.418.188-.598zm-1.421 1.282c.086 0 .285.117.61.082-.45.375-.81.84-1.06 1.359a.7.7 0 00-.128-.266.732.732 0 01.578-1.176zm3.934 7.574a.732.732 0 01-1.328.176c-.102-.168-.274-.27-.465-.333-.23-.078-.442.024-.559.102a.733.733 0 01-1.133-.613.724.724 0 00-.219-.52.753.753 0 00-.535-.21c-.18 0-.539-.044-.718-.227-.04-.04-.16-.157-.157-.5a.757.757 0 01.223-.532.727.727 0 00-.21-1.191.739.739 0 01-.43-.668c0-.348.245-.648.585-.719a.691.691 0 00.274-.12 4.118 4.118 0 00.11 2.402 4.12 4.12 0 004.73 2.66.71.71 0 00-.168.293zm.21-1.825a2.667 2.667 0 01-3.395-1.617 2.663 2.663 0 011.622-3.394c.465-.164 1.125-.262 1.813-.262 1.87 0 3.253.633 3.46 1.215.118.332-.035 1.07-.855 2.062-.738.895-1.8 1.7-2.644 1.997zm3.313.2a.693.693 0 01-.195-.028.728.728 0 00-.649.133.72.72 0 00-.277.602c0 .008.016.332-.156.527-.121.137-.328.215-.621.234-.184.012-.356-.113-.438-.187a.746.746 0 00-.316-.164c1.11-.442 2.406-1.45 3.293-2.606a.755.755 0 00.03.473c.04.09.06.188.06.285 0 .403-.329.73-.731.73zm1.367-2.032a.728.728 0 00-.426.125c.622-.953.938-1.968.625-2.84a2.214 2.214 0 00-.515-.812c.047-.008.316-.09.414-.09a.732.732 0 01.492 1.27.736.736 0 000 1.082c.074.066.246.254.238.515-.023.668-.582.747-.828.75zm18.492-.859c0-.73-.367-1.394-.933-1.797a2.202 2.202 0 00-2.02-2.727 2.098 2.098 0 00-.457-.808c-.27-.293-.77-.644-1.61-.656-.378-.008-.75.09-1.081.273a2.206 2.206 0 00-1.426-.527c-.578 0-1.117.223-1.52.61a2.13 2.13 0 00-.949-.22 2.2 2.2 0 00-2.12 1.633 2.196 2.196 0 00-2.067 2.192c0 .379.101.75.285 1.074-.2.34-.297.723-.285 1.11.023.644.262 1.187.695 1.574.238.214.512.355.77.445a2.203 2.203 0 001.957 2.168c.074.242.203.508.418.75.261.3.761.672 1.629.726.246.016.496-.02.734-.101.41.488 1.023.789 1.684.789.546 0 1.054-.195 1.449-.547.195.055.398.086.601.086.977 0 1.809-.645 2.094-1.527.363-.075.797-.239 1.148-.59.27-.27.59-.762.583-1.555a2.205 2.205 0 00-.184-.863c.379-.403.605-.942.605-1.512zm-3.066-3.058c.402 0 .73.328.73.73 0 .203-.253.617-.28.71a4.063 4.063 0 00-1.06-1.358c.118.015.524-.082.61-.082zm-2.55-1.172a.7.7 0 01.573-.293c.387.004.512.136.555.183.168.18.192.492.188.594a.731.731 0 00.086.387 4.21 4.21 0 00-.735-.344 5.743 5.743 0 00-1.078-.258.727.727 0 00.41-.27zm-2.587-.094a.732.732 0 011.34-.031.72.72 0 00.332.34 8.694 8.694 0 00-2.012.062.734.734 0 00.34-.371zm-1.793-.063c.215-.027.418.094.559.258a.744.744 0 00.45.25 6.27 6.27 0 00-1.72.578c.008-.07-.234-.957.711-1.086zm-1.894 5.246c-.246-.003-.805-.082-.828-.75-.008-.261.164-.449.238-.515a.734.734 0 000-1.082.728.728 0 01-.238-.54c0-.402.328-.73.734-.73.094 0 .363.082.41.09-.23.238-.41.508-.515.813-.309.87.003 1.89.628 2.84a.749.749 0 00-.43-.126zm3.703 3.313c-.082.074-.25.2-.438.187-.293-.02-.5-.097-.62-.234-.173-.195-.157-.5-.157-.504 0-.008.02-.36-.273-.625a.7.7 0 00-.653-.133.733.733 0 01-.867-.988.755.755 0 00.031-.473c.887 1.16 2.192 2.168 3.305 2.61a.733.733 0 00-.328.16zm-1.668-3.477c-.82-.992-.973-1.73-.856-2.062.207-.582 1.59-1.215 3.461-1.215.688 0 1.348.098 1.813.262a2.663 2.663 0 011.621 3.394 2.664 2.664 0 01-3.395 1.617c-.843-.296-1.906-1.101-2.644-1.996zm7.957-.027a.727.727 0 00-.211 1.191c.14.137.219.329.223.532.004.343-.114.46-.153.5-.183.183-.543.226-.722.226a.736.736 0 00-.754.73.733.733 0 01-.73.735.714.714 0 01-.4-.121.736.736 0 00-1.026.23.732.732 0 01-1.329-.175.71.71 0 00-.168-.293 4.12 4.12 0 004.73-2.66 4.118 4.118 0 00.11-2.403c.082.059.82.133.864.84.015.285-.172.547-.434.668zM25 3.836a2.476 2.476 0 00-2.473 2.473c0 .62.23 1.734.551 2.648.512 1.465 1.14 2.18 1.922 2.18.781 0 1.41-.715 1.922-2.18.32-.914.55-2.027.55-2.648A2.476 2.476 0 0025 3.836zm0 5.762c-.434-.5-1.008-2.45-1.008-3.29a1.008 1.008 0 112.016 0c0 .84-.574 2.79-1.008 3.29zm-4.91 3.199c-.45-.606-1.067-1.242-1.469-1.516-.453-.308-1-.418-1.535-.316-.54.101-1.008.41-1.313.863a2.048 2.048 0 00.543 2.848c.403.273 1.223.613 1.95.808.226.059.683.184 1.152.184.465 0 .941-.121 1.223-.535.566-.832-.274-1.965-.551-2.336zm-2.95.668c-.269-.18-.316-.531-.156-.817a.568.568 0 01.817-.152c.48.324 1.18 1.188 1.453 1.695-.574-.07-1.633-.398-2.113-.726zm17.087-1.637a2.028 2.028 0 00-1.309-.863 2.06 2.06 0 00-1.54.316c-.401.274-1.019.91-1.468 1.516-.277.371-1.117 1.504-.55 2.336.28.414.757.535 1.222.535.469 0 .926-.125 1.152-.184.727-.195 1.547-.535 1.95-.808a2.048 2.048 0 00.543-2.848zm-1.368 1.637c-.48.328-1.539.656-2.113.726.274-.507.973-1.37 1.453-1.695.38-.273.73.024.817.152a.585.585 0 01-.157.817zm0 0"/><path d="M42.285 24.188a18.181 18.181 0 00-1.363-14.844 18.551 18.551 0 00-6.164-6.504.733.733 0 00-.79 1.238 16.994 16.994 0 012.833 2.258 2.7 2.7 0 00-.598.371c-.836.695-1.203 1.848-.887 2.797.09.27.262.617.602.937-.43.325-.719.766-.84 1.29-.273 1.183.414 2.535 1.535 3.011a2.22 2.22 0 001.54.074c.046.38.171.672.288.875 1 1.715 3.016 1.079 3.286.961a16.854 16.854 0 01-.824 7.063 3.598 3.598 0 00.163 2.777 6.93 6.93 0 01.739 3.13c0 2.644-.91 4.57-2.7 5.726-1.554 1.004-3.417 1.199-4.394 1.226a2.23 2.23 0 00-2.04 1.485l-.237.66a1.295 1.295 0 01-1.22.855h-.784v-.59a.733.733 0 10-1.465 0v.59h-1.668v-.59a.733.733 0 10-1.465 0v.59h-1.664v-.59a.734.734 0 10-1.465 0v.59h-1.668v-.59a.734.734 0 10-1.465 0v.59h-.785a1.295 1.295 0 01-1.219-.855l-.238-.66a2.23 2.23 0 00-2.039-1.485c-.976-.027-2.84-.222-4.394-1.226-1.79-1.157-2.7-3.082-2.7-5.727 0-1.101.25-2.152.739-3.129.421-.84.484-1.855.168-2.777a16.754 16.754 0 01-.907-5.473 16.74 16.74 0 01.688-4.722c.094.007.625.07 1.164-.122.297.524.414.993.332 1.336a.767.767 0 01-.387.504.734.734 0 00-.262 1.004c.137.235.594.469 1 .262.57-.285.93-.828 1.075-1.43.02-.086.035-.172.047-.258.515.16 1.043.133 1.535-.078 1.12-.472 1.808-1.824 1.535-3.008a2.217 2.217 0 00-.84-1.289c.34-.32.516-.668.602-.937.316-.95-.051-2.102-.887-2.797a2.613 2.613 0 00-.598-.371C16.375 3.196 20.56 1.465 25 1.465c2.18 0 4.305.414 6.313 1.234.37.156.8-.023.953-.398a.735.735 0 00-.403-.957A18.085 18.085 0 0025 0c-4.867 0-9.45 1.91-12.91 5.375-3.45 3.453-5.352 8.023-5.36 12.867a18.147 18.147 0 00.985 5.945c.187.555.156 1.157-.09 1.649a8.355 8.355 0 00-.895 3.785c0 3.176 1.133 5.516 3.368 6.957 1.855 1.195 4.023 1.43 5.148 1.461a.778.778 0 01.703.516l.239.66a2.771 2.771 0 002.597 1.824h.785v.59a.733.733 0 101.465 0v-.59h1.668v.59a.733.733 0 101.465 0v-.59h1.664v.59a.734.734 0 101.465 0v-.59h1.668v.59a.734.734 0 101.465 0v-.59h.785c1.16 0 2.203-.734 2.598-1.824l.238-.66a.778.778 0 01.703-.516c.215-.004.465-.02.746-.047v2.973c0 3.918-2.988 7.148-6.805 7.531a4.25 4.25 0 00-.543-.687c.184.086.395.129.641.129.324 0 .7-.075 1.125-.22.621-.214 1.297-.57 1.645-.863a1.945 1.945 0 00.222-2.742 1.945 1.945 0 00-2.742-.226c-.348.293-.809.902-1.117 1.48-.465.86-.547 1.531-.258 2.008A4.362 4.362 0 0025 46.473c-.992 0-1.922.328-2.672.902.293-.477.211-1.148-.254-2.008-.312-.578-.77-1.187-1.117-1.48a1.945 1.945 0 00-2.742.226 1.945 1.945 0 00.223 2.742c.347.293 1.023.649 1.644.864.426.144.8.218 1.125.218a1.5 1.5 0 00.64-.128 4.25 4.25 0 00-.542.687c-3.817-.383-6.805-3.613-6.805-7.531v-.754a.732.732 0 00-1.465 0v.754c0 4.984 4.055 9.035 9.035 9.035h5.86c4.98 0 9.035-4.05 9.035-9.035v-3.2c.937-.21 1.976-.57 2.933-1.187 2.239-1.441 3.372-3.781 3.372-6.957a8.352 8.352 0 00-.895-3.785c-.246-.492-.277-1.094-.09-1.648zM37.188 13.39c-.473-.2-.797-.832-.68-1.332.148-.637.988-.758 1.547-.762.105.488.336.93.66 1.293-.336.445-.926 1.058-1.528.8zm.94-3.575c-.773-.09-1.288-.363-1.421-.773-.125-.379.059-.898.434-1.207.195-.164.5-.313.867-.168.277.34.543.687.793 1.047a2.864 2.864 0 00-.672 1.101zm1.329.813a1.36 1.36 0 01.172-.598c.008.012.012.024.02.031.359.645.68 1.31.953 1.989a1.371 1.371 0 01-1.145-1.422zm1.29 4.773c-.446.032-.864-.152-1.04-.453-.207-.351-.117-.906.25-1.55.559.214 1.063.132 1.156.12.149.504.274 1.012.375 1.528-.215.285-.578.344-.742.355zM12.813 13.39c-.602.257-1.192-.356-1.528-.801.324-.363.555-.805.66-1.293.559.004 1.403.125 1.547.762.117.5-.207 1.132-.68 1.332zm-.829-5.72c.371-.151.68 0 .875.165.375.309.559.828.434 1.207-.133.41-.648.684-1.422.773a2.85 2.85 0 00-.672-1.105c.246-.356.508-.703.785-1.04zm-1.617 2.356a1.365 1.365 0 01-.976 2.024c.28-.696.605-1.371.976-2.024zm19.625 34.977c.09-.078.434-.254.676.055a.485.485 0 01-.055.68c-.324.273-1.117.616-1.582.71.172-.445.637-1.172.961-1.445zm-10.605.734a.476.476 0 01-.055-.68c.25-.316.586-.132.676-.054.324.273.789 1 .96 1.445-.464-.094-1.257-.437-1.581-.71zm3.84 2.797a2.931 2.931 0 013.546 0zm0 0"/><path d="M25.73 44.785a.732.732 0 11-1.463-.003.732.732 0 011.463.003zm1.653-28.871h-1.649v-1.98a.734.734 0 10-1.468 0v1.98h-1.649a.733.733 0 000 1.465h1.649v4.289a.734.734 0 101.468 0v-4.29h1.649a.732.732 0 000-1.464zm-4.809-4.668l-1.57-2.297a.735.735 0 00-1.02-.191.738.738 0 00-.191 1.02l1.574 2.296c.387.535.89.278 1.02.192a.733.733 0 00.187-1.02zm7.442-2.488a.735.735 0 00-1.02.191l-1.57 2.297a.734.734 0 00.187 1.02c.13.086.676.28 1.02-.192l1.574-2.297a.738.738 0 00-.191-1.02zm-10.524 8.015h-1.305a.734.734 0 100 1.465h1.305a.732.732 0 000-1.465zm12.321 0h-1.305a.733.733 0 000 1.465h1.305a.733.733 0 100-1.465zm0 0"/></svg>