<svg xmlns="http://www.w3.org/2000/svg" width="40pt" height="40pt" viewBox="0 0 40 40"><g fill-rule="evenodd"><path d="M0 0v40h40V0zm33.828 8.852l-4.7 22.605a.75.75 0 01-1.175.453l-6.418-4.656a1.056 1.056 0 00-1.293.035l-3.555 2.898a.751.751 0 01-1.195-.359l-2.469-7.941-6.378-2.383c-.649-.242-.657-1.156-.008-1.406L32.824 7.996a.75.75 0 011.004.856zm0 0"/><path d="M27.566 12.938L15.094 20.62c-.477.293-.7.871-.547 1.41l1.348 4.739c.097.335.582.3.628-.047l.352-2.598c.066-.488.3-.938.66-1.277l10.293-9.567c.192-.176-.039-.48-.262-.344zm0 0"/></g></svg>