<svg xmlns="http://www.w3.org/2000/svg" width="75.43" height="91.142"><path data-name="Path 144" d="M74.836 10.633a3.962 3.962 0 00-2.4-3.421A85.973 85.973 0 0037.671 0C19.827 0 7.529 4.9 2.906 7.119A4.163 4.163 0 00.595 10.54c-.648 8.321-2.219 36.891 5.27 51.685 7.581 14.886 25.427 25.7 30.511 28.57a2.767 2.767 0 002.681 0c5.085-2.866 22.93-13.684 30.511-28.57 7.488-14.7 5.917-43.177 5.268-51.592z" fill="#216eb6"/><path data-name="Path 145" d="M44.974 32.362V18.308a.632.632 0 00-.648-.647H31.011a.632.632 0 00-.648.647v13.961h-13.96a.632.632 0 00-.648.648v13.315a.633.633 0 00.648.648h13.963v13.961a.632.632 0 00.648.647h13.315a.632.632 0 00.648-.647V46.879h13.961a.633.633 0 00.648-.648V33.009a.632.632 0 00-.648-.648z" fill="#fff"/></svg>