<svg xmlns="http://www.w3.org/2000/svg" width="91.142" height="91.143"><g data-name="Group 170" fill="#556080"><path data-name="Path 157" d="M54.999 9.429a9.4 9.4 0 01-6.286 8.878 9.253 9.253 0 01-6.286 0 9.424 9.424 0 1112.571-8.878z"/><path data-name="Path 158" d="M48.714 11.004v41.287l-3.127 1.141h-.016l-3.143-1.141V11.004a6.931 6.931 0 006.286 0z"/></g><g data-name="Group 171" fill="#b0d3f0"><path data-name="Path 159" d="M42.428 25.144v4.714c-11 6.286-17.285 1.571-17.285 1.571C9.428 39.286-.002 23.576-.002 23.576a13.349 13.349 0 001.367.094 19.031 19.031 0 008.633-2.502 69.338 69.338 0 008.093-5.186 51.206 51.206 0 016.694-4.4 4.343 4.343 0 013.881-.534 4.389 4.389 0 011.54 2.074 20.448 20.448 0 001.587 2.719 30.78 30.78 0 0010.635 9.303z"/><path data-name="Path 160" d="M91.142 23.577S81.713 39.291 66 31.434c0 0-6.286 4.714-17.285-1.571v-4.719a30.779 30.779 0 0010.638-9.3 20.447 20.447 0 001.587-2.719 4.388 4.388 0 011.54-2.074 4.343 4.343 0 013.881.534 51.218 51.218 0 016.694 4.4 69.338 69.338 0 008.093 5.186 19.031 19.031 0 008.627 2.5 13.3 13.3 0 001.367-.094z"/></g><path data-name="Path 161" d="M61.092 68.325l-3.9-1.1 4.934-1.383a6.295 6.295 0 00-.078-12.131l-4.337-1.163 3.63-.974a6.294 6.294 0 001.65-11.44l-3.19-1.964a3.153 3.153 0 00-3.3 5.374l3.206 1.949-11 2.954-3.127.833h-.016l-3.143-.833-10.977-2.951 3.206-1.949a3.153 3.153 0 10-3.3-5.374l-3.19 1.964a6.294 6.294 0 001.65 11.44l3.63.974-4.337 1.163a6.295 6.295 0 00-.079 12.131l4.934 1.383-3.9 1.1a6.281 6.281 0 00-.629 11.88l13.341 5.343 2.8 5.594 2.781-5.579h.016l13.357-5.358a6.281 6.281 0 00-.629-11.88zm-30.36-8.548l11.691-3.127 3.158-.849 3.127.833 11.707 3.143-11.707 3.3-3.127.88-3.158-.9zM48.709 78.65l-3.127 1.257-3.158-1.273-10.67-4.259 10.67-3 3.158-.88 3.127.88 10.686 3z" fill="#4482c3"/><g data-name="Group 172" fill="#285680"><path data-name="Path 162" d="M65.669 74.046a6.16 6.16 0 01-3.944 6.16l-13.356 5.358h-.016l-2.784 5.579.016-11.236 3.127-1.257 10.687-4.272-10.686-3-3.127-.88 11.613-3.268 3.9 1.1a6.189 6.189 0 014.57 5.716z"/><path data-name="Path 163" d="M65.937 46.389a6.308 6.308 0 01-4.589 5.186l-3.63.974-12.131-3.268 3.127-.833 11-2.954-3.206-1.949a3.153 3.153 0 113.3-5.374l3.19 1.964a6.292 6.292 0 012.939 6.254z"/><path data-name="Path 164" d="M42.429 63.062l3.158.9-3.158.88-8.47 2.389-4.934-1.383a6.295 6.295 0 01.078-12.131l4.337-1.163 8.989 2.4 3.158.849-3.158.849-11.691 3.127z"/></g></svg>