<?xml version="1.0" encoding="utf-8"?><svg viewBox="0 0 80 80" xmlns="http://www.w3.org/2000/svg" xmlns:xlink="http://www.w3.org/1999/xlink"><style>:root>svg{display:none}:root>svg:target{display:block}</style><svg viewBox="0 0 480 480" id="art" xmlns="http://www.w3.org/2000/svg"><path d="M409.705 70.303C364.376 24.977 304.106.016 240 .016S115.625 24.977 70.296 70.303C24.965 115.628 0 175.896 0 239.999c0 64.106 24.965 124.372 70.296 169.698 45.329 45.325 105.598 70.287 169.704 70.287s124.376-24.962 169.705-70.287C455.035 364.372 480 304.105 480 239.999c0-64.103-24.965-124.371-70.295-169.696zm-348.2 298.14c.246-.186.485-.384.718-.596l61.576-56.277c5.672 6.234 14.925 15.72 30.025 30.813 15.13 15.122 24.628 24.376 30.865 30.043l-53.296 58.827c-27.557-15.709-51.405-37.2-69.888-62.81zm158.938-123.15c-7.841 0-15.21 3.033-20.785 8.576-11.517 11.562-11.45 30.366.138 41.908 5.659 5.654 13.16 8.768 21.12 8.768 7.863 0 15.251-3.052 20.833-8.623 8.994-9.056 10.868-22.582 5.659-33.57l112.495-112.515-46.746 157.726c-.813 1.169-2.627 3.267-3.61 4.214-7.656 3.913-68.15 30.366-108.943 48.063-12.966-11.628-52.526-51.165-64.223-64.182 17.922-40.54 44.64-100.531 48.625-108.292.99-1.018 3.121-2.86 4.303-3.686l154.186-45.717-110.21 110.228a29.689 29.689 0 00-12.842-2.898zm7.147 36.504a9.379 9.379 0 01-6.674 2.748c-2.622 0-5.102-1.036-6.996-2.927-3.784-3.77-3.825-9.887-.127-13.601 1.768-1.757 4.129-2.725 6.65-2.725 2.622.001 5.101 1.035 6.976 2.908 3.848 3.848 3.909 9.834.171 13.597zM240 459.985c-32.102 0-62.617-6.914-90.142-19.325l55.238-60.971c6.999-3.035 31.481-13.663 55.791-24.307 16.819-7.364 30.265-13.296 39.963-17.63 16.948-7.573 20.186-9.021 21.828-10.892 1.735-1.554 3.476-3.545 4.529-4.81 3.141-3.77 4.754-6.573 5.28-9.33l54.605-184.243c.36-1.215.485-2.487.371-3.749-.762-8.354-8.209-15.412-16.263-15.412-.963 0-1.92.139-2.843.412l-184.988 54.85.003.009c-5.232 1.48-10.458 6.51-13.082 9.35-.413.347-.827.787-1.326 1.494-.259.306-.402.486-.412.5l.052.035c-2.758 4.273-8.212 16.504-27.441 59.628a20057.546 20057.546 0 00-24.649 55.537l-66.076 60.392C31.111 318.8 20 280.676 20 239.999c0-121.3 98.691-219.984 220-219.984S460 118.7 460 239.999c0 121.301-98.691 219.986-220 219.986z"/></svg><svg class="bicon bicon-tabler bicon-tabler-license" viewBox="0 0 24 24" stroke-width="1.5" stroke="#000" fill="none" stroke-linecap="round" stroke-linejoin="round" id="author" xmlns="http://www.w3.org/2000/svg"><path d="M0 0h24v24H0z" stroke="none"/><path d="M15 21H6a3 3 0 01-3-3v-1h10v2a2 2 0 004 0V5a2 2 0 112 2h-2m2-4H8a3 3 0 00-3 3v11M9 7h4m-4 4h4"/></svg><svg viewBox="0 0 24 24" id="email" xmlns="http://www.w3.org/2000/svg"><path d="M12 0C5.371 0 0 5.371 0 12c0 6.625 5.371 12 12 12s12-5.375 12-12c0-6.629-5.371-12-12-12zm0 4.215l7.102 4.43H4.898zm7.191 11.5h-.003c0 .71-.575 1.285-1.286 1.285H6.098a1.283 1.283 0 01-1.285-1.285v-6.79c0-.077.007-.148.019-.222l6.785 4.23a.084.084 0 00.024.016.06.06 0 01.027.016.76.76 0 00.164.058.622.622 0 00.336 0c.004 0 .012 0 .016-.003a.678.678 0 00.148-.055c.008-.008.02-.012.027-.016.008-.004.016-.008.024-.015l6.785-4.23c.016.073.023.144.023.222zm0 0"/></svg><svg class="dicon dicon-tabler dicon-tabler-help" viewBox="0 0 24 24" stroke-width="1.5" stroke="#000" fill="none" stroke-linecap="round" stroke-linejoin="round" id="help" xmlns="http://www.w3.org/2000/svg"><path d="M0 0h24v24H0z" stroke="none"/><circle cx="12" cy="12" r="9"/><path d="M12 17v.01m0-3.51a1.5 1.5 0 011-1.5 2.6 2.6 0 10-3-4"/></svg><svg class="eicon eicon-tabler eicon-tabler-history" viewBox="0 0 24 24" stroke="#000" fill="none" stroke-linecap="round" stroke-linejoin="round" id="history" xmlns="http://www.w3.org/2000/svg"><path d="M0 0h24v24H0z" stroke="none"/><path d="M12 8v4l2 2"/><path d="M3.05 11a9 9 0 11.5 4m-.5 5v-5h5"/></svg><svg viewBox="0 0 384.97 384.97" id="menu" xmlns="http://www.w3.org/2000/svg"><path d="M12.03 120.303h360.909c6.641 0 12.03-5.39 12.03-12.03 0-6.641-5.39-12.03-12.03-12.03H12.03c-6.641 0-12.03 5.39-12.03 12.03s5.39 12.03 12.03 12.03zm360.909 60.152H12.03c-6.641 0-12.03 5.39-12.03 12.03s5.39 12.03 12.03 12.03h360.909c6.641 0 12.03-5.39 12.03-12.03s-5.389-12.03-12.03-12.03zm0 84.212H132.333c-6.641 0-12.03 5.39-12.03 12.03 0 6.641 5.39 12.03 12.03 12.03h240.606c6.641 0 12.03-5.39 12.03-12.03.001-6.641-5.389-12.03-12.03-12.03z"/></svg><svg viewBox="0 0 24 24" id="odnok" xmlns="http://www.w3.org/2000/svg"><path d="M11.98 9.922a2.055 2.055 0 002.051-2.07 2.055 2.055 0 00-2.062-2.059c-1.153 0-2.074.93-2.063 2.086a2.054 2.054 0 002.074 2.043zm0 0"/><path d="M11.969 0C5.359 0 0 5.36 0 11.969c0 6.61 5.36 11.969 11.969 11.969 6.61 0 11.969-5.36 11.969-11.97C23.938 5.36 18.578 0 11.967 0zm.02 3.64c2.327.005 4.198 1.915 4.187 4.27-.012 2.305-1.914 4.168-4.238 4.16-2.305-.008-4.196-1.918-4.18-4.222a4.221 4.221 0 014.23-4.207zm4.718 10.087a4.999 4.999 0 01-1.824 1.18c-.653.253-1.363.382-2.07.464.105.117.156.176.222.242.961.961 1.922 1.922 2.88 2.89.323.329.394.735.214 1.118-.195.422-.637.695-1.067.668-.273-.02-.484-.156-.675-.348-.723-.726-1.461-1.441-2.168-2.183-.207-.215-.309-.176-.489.012-.73.75-1.468 1.488-2.214 2.222-.332.328-.73.39-1.118.2-.414-.2-.675-.622-.656-1.044.016-.285.156-.503.352-.699.949-.949 1.894-1.898 2.844-2.847.062-.063.12-.13.21-.227-1.289-.137-2.453-.453-3.453-1.234-.12-.098-.25-.192-.363-.301-.437-.418-.48-.899-.137-1.39.297-.427.793-.54 1.309-.294.101.047.195.106.285.168 1.86 1.278 4.41 1.313 6.277.055.184-.14.383-.254.61-.313a.952.952 0 011.097.438c.274.445.27.879-.066 1.223zm0 0"/></svg><svg viewBox="0 0 24 24" id="search" xmlns="http://www.w3.org/2000/svg"><path d="M22.926 17.61l-3.512-3.512a10.08 10.08 0 00.77-3.871c0-5.567-4.528-10.094-10.09-10.094C4.527.133 0 4.66 0 10.227 0 15.793 4.527 20.32 10.094 20.32c1.48 0 2.922-.32 4.242-.933l3.406 3.406a3.646 3.646 0 002.594 1.074c.977 0 1.898-.383 2.59-1.074A3.646 3.646 0 0024 20.199c0-.976-.383-1.898-1.074-2.59zm-1.453 3.726a1.6 1.6 0 01-2.274 0l-4.515-4.516a8.035 8.035 0 113.445-6.594 7.986 7.986 0 01-1.23 4.266l4.574 4.574a1.608 1.608 0 010 2.27zm0 0"/><path d="M10.094 4.48a5.753 5.753 0 00-5.746 5.747 5.753 5.753 0 005.746 5.746 5.753 5.753 0 005.746-5.746 5.753 5.753 0 00-5.746-5.747zm0 9.434a3.69 3.69 0 01-3.688-3.687 3.69 3.69 0 013.688-3.688 3.692 3.692 0 013.687 3.688 3.692 3.692 0 01-3.687 3.687zm0 0"/></svg><svg viewBox="0 0 24 24" id="telegram" xmlns="http://www.w3.org/2000/svg"><path d="M12 0C5.371 0 0 5.371 0 12s5.371 12 12 12 12-5.371 12-12S18.629 0 12 0zm5.895 8.223l-1.97 9.277c-.148.66-.538.82-1.085.508l-3-2.207-1.445 1.39a.766.766 0 01-.602.297h-.004l.215-3.054 5.559-5.024c.238-.21-.055-.332-.376-.12L8.32 13.616l-2.96-.926c-.641-.203-.657-.636.136-.953L17.063 7.28c.535-.195 1.003.13.832.942zm0 0"/></svg><svg viewBox="0 0 24 24" id="up" xmlns="http://www.w3.org/2000/svg"><path d="M12 24C5.4 24 0 18.6 0 12S5.4 0 12 0s12 5.4 12 12-5.4 12-12 12zm0-22C6.5 2 2 6.5 2 12s4.5 10 10 10 10-4.5 10-10S17.5 2 12 2z"/><path d="M15 14c-.3 0-.5-.1-.7-.3L12 11.4l-2.3 2.3c-.4.4-1 .4-1.4 0s-.4-1 0-1.4l3-3c.4-.4 1-.4 1.4 0l3 3c.4.4.4 1 0 1.4-.2.2-.4.3-.7.3z"/></svg><svg class="kicon kicon-tabler kicon-tabler-user-circle" viewBox="0 0 24 24" stroke="#000" fill="none" stroke-linecap="round" stroke-linejoin="round" id="users" xmlns="http://www.w3.org/2000/svg"><path d="M0 0h24v24H0z" stroke="none"/><circle cx="12" cy="12" r="9"/><circle cx="12" cy="10" r="3"/><path d="M6.168 18.849A4 4 0 0110 16h4a4 4 0 013.834 2.855"/></svg></svg>