<?xml version="1.0" encoding="utf-8"?><svg viewBox="0 0 50 50" xmlns="http://www.w3.org/2000/svg" xmlns:xlink="http://www.w3.org/1999/xlink"><style>:root>svg{display:none}:root>svg:target{display:block}</style><svg viewBox="0 0 144 144" id="facebook" xmlns="http://www.w3.org/2000/svg"><g fill-rule="evenodd"><path d="M72 0a72 72 0 0172 72A72 72 0 1172 0z"/><path d="M66.948 125.446h19.69V72h13.784c1.312 0 1.508-7.333 1.665-8.743.327-2.936.867-6.602.867-9.541H86.638V41.9c0-3.544 2.96-5.063 6.47-5.063h9.846V18.554h-1.126c-13.184 0-23.282-1.241-30.169 5.555-2.605 2.571-4.534 8.023-4.703 13.018-.09 2.616-.29 5.62-.29 8.713 0 1.636.64 7.876-.843 7.876H53.165V72h13.502z" fill="#fefefe"/></g></svg><svg fill-rule="evenodd" clip-rule="evenodd" viewBox="0 0 24 24" id="footer" xmlns="http://www.w3.org/2000/svg"><path d="M11.342 10.892c.412-.514.725-.907.888-1.117.115-.148.132-.361.088-.543-.226-.836-.608-2.334.839-3.849C14.819 3.642 17.912.969 19.023 0L24 3.889c-.652 1.294-2.477 4.957-3.741 6.994-1.152 1.858-2.726 1.813-3.622 1.785a.634.634 0 00-.497.229c-.248.317-.847 1.064-1.615 2.018l3.971 5.05a2.503 2.503 0 01-.43 3.509 2.566 2.566 0 01-1.563.526 2.434 2.434 0 01-1.948-.957l-3.273-4.107a437.848 437.848 0 00-3.237 4.051C7.537 23.636 6.806 24 6.056 24c-.511 0-1.03-.168-1.494-.531-1.24-.968-1.314-2.464-.457-3.56.4-.513 2.163-2.725 3.972-4.966l-.622-.776-2.006 1.568C3.534 13.107 0 6.146 0 2.434 0-.095 1.774.001 1.837.001a1.86 1.86 0 011.459.723c.424.534 4.308 5.443 8.046 10.168m-3.542.469l8.331 10.451c.231.295.578.184.702.087l.001-.001a.5.5 0 00.086-.702S3.501 4.22 1.961 2.262c-.07 1.426 1.185 5.668 4.002 10.534L7.8 11.361zm1.557 5.177l-3.613 4.521c-.173.222-.325.542.003.798.328.257.601.054.785-.182l3.466-4.339-.641-.798zm3.89-3.239l1.425-1.771c.359-.461.762-.856 1.771-.862.758-.004 1.475.197 2.118-.837 1.123-1.813 3.044-5.273 3.044-5.273l-.396-.31-3.053 3.96-.658-.514 2.981-4.016-.412-.322-3.187 3.854-.645-.503 3.078-3.939-.375-.294s-2.867 2.755-4.334 4.292c-.809.847-.449 1.513-.278 2.238.231.98-.086 1.453-.44 1.907l-1.276 1.586.637.804z" fill="#030405"/></svg><svg preserveAspectRatio="xMidYMid" viewBox="0 0 256 256" id="instagram" xmlns="http://www.w3.org/2000/svg"><path d="M128 23.064c34.177 0 38.225.13 51.722.745 12.48.57 19.258 2.655 23.769 4.408 5.974 2.322 10.238 5.096 14.717 9.575 4.48 4.479 7.253 8.743 9.575 14.717 1.753 4.511 3.838 11.289 4.408 23.768.615 13.498.745 17.546.745 51.723 0 34.178-.13 38.226-.745 51.723-.57 12.48-2.655 19.257-4.408 23.768-2.322 5.974-5.096 10.239-9.575 14.718-4.479 4.479-8.743 7.253-14.717 9.574-4.511 1.753-11.289 3.839-23.769 4.408-13.495.616-17.543.746-51.722.746-34.18 0-38.228-.13-51.723-.746-12.48-.57-19.257-2.655-23.768-4.408-5.974-2.321-10.239-5.095-14.718-9.574-4.479-4.48-7.253-8.744-9.574-14.718-1.753-4.51-3.839-11.288-4.408-23.768-.616-13.497-.746-17.545-.746-51.723 0-34.177.13-38.225.746-51.722.57-12.48 2.655-19.258 4.408-23.769 2.321-5.974 5.095-10.238 9.574-14.717 4.48-4.48 8.744-7.253 14.718-9.575 4.51-1.753 11.288-3.838 23.768-4.408 13.497-.615 17.545-.745 51.723-.745M128 0C93.237 0 88.878.147 75.226.77c-13.625.622-22.93 2.786-31.071 5.95-8.418 3.271-15.556 7.648-22.672 14.764C14.367 28.6 9.991 35.738 6.72 44.155 3.555 52.297 1.392 61.602.77 75.226.147 88.878 0 93.237 0 128c0 34.763.147 39.122.77 52.774.622 13.625 2.785 22.93 5.95 31.071 3.27 8.417 7.647 15.556 14.763 22.672 7.116 7.116 14.254 11.492 22.672 14.763 8.142 3.165 17.446 5.328 31.07 5.95 13.653.623 18.012.77 52.775.77s39.122-.147 52.774-.77c13.624-.622 22.929-2.785 31.07-5.95 8.418-3.27 15.556-7.647 22.672-14.763 7.116-7.116 11.493-14.254 14.764-22.672 3.164-8.142 5.328-17.446 5.95-31.07.623-13.653.77-18.012.77-52.775s-.147-39.122-.77-52.774c-.622-13.624-2.786-22.929-5.95-31.07-3.271-8.418-7.648-15.556-14.764-22.672C227.4 14.368 220.262 9.99 211.845 6.72c-8.142-3.164-17.447-5.328-31.071-5.95C167.122.147 162.763 0 128 0zm0 62.27c-36.302 0-65.73 29.43-65.73 65.73 0 36.302 29.428 65.73 65.73 65.73 36.301 0 65.73-29.428 65.73-65.73 0-36.301-29.429-65.73-65.73-65.73zm0 108.397c-23.564 0-42.667-19.103-42.667-42.667S104.436 85.333 128 85.333s42.667 19.103 42.667 42.667-19.103 42.667-42.667 42.667zm83.686-110.994c0 8.484-6.876 15.36-15.36 15.36-8.483 0-15.36-6.876-15.36-15.36 0-8.483 6.877-15.36 15.36-15.36 8.484 0 15.36 6.877 15.36 15.36z" fill="#0A0A08"/></svg><svg viewBox="0 0 409.221 409.221" id="logo" xmlns="http://www.w3.org/2000/svg"><path d="M10.937 209.257c-11.139-27.778 2.647-57.93 17.244-89.852 13.794-30.167 29.427-64.358 28.14-102.951a10 10 0 016.273-9.616l8.58-3.439a10 10 0 0112.878 5.265c32.819 74.808 60.106 111.646 88.476 119.443 18.812 5.172 40.467-1.644 68.149-21.442a10.002 10.002 0 0115.099 4.412c5.769 14.386 8.31 29.62 7.553 45.281a9.994 9.994 0 01-10.472 9.505c-5.516-.267-9.771-4.955-9.505-10.472.41-8.484-.364-16.809-2.307-24.873-27.965 17.604-51.657 22.965-73.818 16.874-18.77-5.159-36.141-18.746-53.106-41.537-12.494-16.784-24.971-38.599-38.64-67.67-3.578 33.692-17.009 63.069-29.112 89.538-13.315 29.122-24.816 54.272-16.87 74.09 4.693 11.702 11.77 22.098 21.031 30.898 4.004 3.804 4.166 10.134.361 14.137a9.969 9.969 0 01-7.251 3.112 9.962 9.962 0 01-6.886-2.751c-11.36-10.794-20.047-23.563-25.817-37.952zm398.284 130.789c0 5.522-4.478 10-10 10h-43.437c-.133.002-.27.002-.402 0h-32.853l-31.255 51.672a10.003 10.003 0 01-8.557 4.824H126.501c-3.5 0-6.745-1.83-8.557-4.824L86.69 350.046H53.839c-.133.002-.27.002-.402 0H10c-5.522 0-10-4.478-10-10s4.478-10 10-10h33.945c5.182-84.12 75.264-150.972 160.665-150.972 13.135 0 26.211 1.59 38.865 4.727 5.361 1.328 8.63 6.751 7.301 12.111-1.328 5.36-6.755 8.628-12.111 7.301a141.725 141.725 0 00-34.055-4.139c-74.369 0-135.473 57.89-140.622 130.972h84.548a81.04 81.04 0 01-13.847-14.803c-9.732-13.463-16.427-32.717-8.129-43.178 3.301-4.161 9.774-7.376 18.051-3.91 24.594 10.292 47.806 10.628 68.995.991 25.461-11.578 45.704-36.674 56.999-70.663 5.963-17.944 23.752-26.162 41.386-26.45a53.875 53.875 0 00-8.544-23.756c-3.037-4.612-1.762-10.814 2.851-13.853 4.613-3.036 10.815-1.762 13.853 2.851 7.518 11.414 11.638 24.603 12.119 38.053 20.207 7.215 31.667 24.903 28.937 45.729-3.235 24.669-15.979 50.502-35.88 72.739-13.106 14.645-28.586 27.071-44.954 36.249h64.861a140.725 140.725 0 00-4.977-28.528c-1.506-5.313 1.581-10.842 6.895-12.348 5.315-1.504 10.842 1.581 12.348 6.895a160.778 160.778 0 015.777 33.981h33.944c5.522.001 10 4.479 10 10.001zm-249.679-26.947c12.44 11.139 40.99 27.008 92.404 8.144 39.22-14.391 83.395-56.771 89.43-102.785 1.6-12.2-5.017-18.779-11.318-22.231-.111.444-.228.888-.348 1.33-1.446 5.33-6.94 8.478-12.269 7.034-5.33-1.445-8.479-6.938-7.034-12.269l.068-.255c-9.462.572-18.223 4.694-20.892 12.724-13.069 39.332-37.112 68.653-67.698 82.563-24.097 10.958-51.014 11.573-78.244 1.868 1.78 6.117 6.53 15.487 15.901 23.877zm139.613 36.947H110.064l22.075 36.496h144.939l22.077-36.496zM178.822 245.228c-5.522 0-10 4.478-10 10s4.478 10 10 10h1.9c5.522 0 10-4.478 10-10s-4.478-10-10-10h-1.9zm-81.358 50.385h-1.9c-5.522 0-10 4.478-10 10s4.478 10 10 10h1.9c5.522 0 10-4.478 10-10s-4.478-10-10-10zm43.497-67.743c-5.522 0-10 4.478-10 10s4.478 10 10 10h1.9c5.522 0 10-4.478 10-10s-4.478-10-10-10h-1.9zm69.828-14.97c-5.522 0-10 4.478-10 10s4.478 10 10 10h1.9c5.522 0 10-4.478 10-10s-4.478-10-10-10h-1.9z"/></svg><svg viewBox="0 0 330.002 330.002" id="right" xmlns="http://www.w3.org/2000/svg"><path d="M233.252 155.997L120.752 6.001c-4.972-6.628-14.372-7.97-21-3-6.628 4.971-7.971 14.373-3 21l105.75 140.997-105.75 141.003c-4.971 6.627-3.627 16.03 3 21a14.93 14.93 0 008.988 3.001c4.561 0 9.065-2.072 12.012-6.001l112.5-150.004a15 15 0 000-18z"/></svg><svg viewBox="0 0 244.552 244.552" id="up" xmlns="http://www.w3.org/2000/svg"><path d="M122.276 25.223c-53.515 0-97.053 43.538-97.053 97.054s43.538 97.054 97.053 97.054c53.516 0 97.054-43.538 97.054-97.054s-43.538-97.054-97.054-97.054zm0 177.107c-44.142 0-80.053-35.912-80.053-80.054s35.912-80.054 80.053-80.054 80.054 35.912 80.054 80.054-35.912 80.054-80.054 80.054z"/><path d="M122.276 0C54.853 0 0 54.853 0 122.276s54.853 122.276 122.276 122.276c67.424 0 122.276-54.853 122.276-122.276S189.7 0 122.276 0zm0 227.553C64.227 227.553 17 180.326 17 122.276S64.227 17 122.276 17s105.276 47.227 105.276 105.276-47.226 105.277-105.276 105.277z"/><path d="M157.995 99.048l-31.445-18.29a8.57 8.57 0 00-1.239-.593h-.001l-.016-.006h-.001l-.016-.007-.008-.003h-.001c-.003-.002-.007 0-.009-.004-.006 0-.008-.003-.01-.003-.003-.002-.004 0-.01-.004-.003.001-.006-.002-.009-.003-.003 0-.006-.003-.009-.004h-.001l-.009-.003-.008-.003a8.505 8.505 0 00-6.405.222l-.012.006-.006.002c-.002.002-.004.005-.008.004l-.007.003-.022.011a8.086 8.086 0 00-.742.384l-31.445 18.29a8.497 8.497 0 00-3.074 11.621 8.498 8.498 0 0011.621 3.074l18.672-10.86v53.564a8.5 8.5 0 0017 0v-53.564l18.672 10.86a8.501 8.501 0 0011.621-3.074 8.496 8.496 0 00-3.073-11.62z"/></svg></svg>