<?xml version="1.0" encoding="utf-8"?><svg viewBox="0 0 50 50" xmlns="http://www.w3.org/2000/svg" xmlns:xlink="http://www.w3.org/1999/xlink"><style>:root>svg{display:none}:root>svg:target{display:block}</style><svg viewBox="0 0 144 144" id="facebook" xmlns="http://www.w3.org/2000/svg"><g fill-rule="evenodd"><path d="M72 0a72 72 0 0172 72A72 72 0 1172 0z"/><path d="M66.948 125.446h19.69V72h13.784c1.312 0 1.508-7.333 1.665-8.743.327-2.936.867-6.602.867-9.541H86.638V41.9c0-3.544 2.96-5.063 6.47-5.063h9.846V18.554h-1.126c-13.184 0-23.282-1.241-30.169 5.555-2.605 2.571-4.534 8.023-4.703 13.018-.09 2.616-.29 5.62-.29 8.713 0 1.636.64 7.876-.843 7.876H53.165V72h13.502z" fill="#fefefe"/></g></svg><svg fill-rule="evenodd" clip-rule="evenodd" viewBox="0 0 24 24" id="footer" xmlns="http://www.w3.org/2000/svg"><path d="M11.342 10.892c.412-.514.725-.907.888-1.117.115-.148.132-.361.088-.543-.226-.836-.608-2.334.839-3.849C14.819 3.642 17.912.969 19.023 0L24 3.889c-.652 1.294-2.477 4.957-3.741 6.994-1.152 1.858-2.726 1.813-3.622 1.785a.634.634 0 00-.497.229c-.248.317-.847 1.064-1.615 2.018l3.971 5.05a2.503 2.503 0 01-.43 3.509 2.566 2.566 0 01-1.563.526 2.434 2.434 0 01-1.948-.957l-3.273-4.107a437.848 437.848 0 00-3.237 4.051C7.537 23.636 6.806 24 6.056 24c-.511 0-1.03-.168-1.494-.531-1.24-.968-1.314-2.464-.457-3.56.4-.513 2.163-2.725 3.972-4.966l-.622-.776-2.006 1.568C3.534 13.107 0 6.146 0 2.434 0-.095 1.774.001 1.837.001a1.86 1.86 0 011.459.723c.424.534 4.308 5.443 8.046 10.168m-3.542.469l8.331 10.451c.231.295.578.184.702.087l.001-.001a.5.5 0 00.086-.702S3.501 4.22 1.961 2.262c-.07 1.426 1.185 5.668 4.002 10.534L7.8 11.361zm1.557 5.177l-3.613 4.521c-.173.222-.325.542.003.798.328.257.601.054.785-.182l3.466-4.339-.641-.798zm3.89-3.239l1.425-1.771c.359-.461.762-.856 1.771-.862.758-.004 1.475.197 2.118-.837 1.123-1.813 3.044-5.273 3.044-5.273l-.396-.31-3.053 3.96-.658-.514 2.981-4.016-.412-.322-3.187 3.854-.645-.503 3.078-3.939-.375-.294s-2.867 2.755-4.334 4.292c-.809.847-.449 1.513-.278 2.238.231.98-.086 1.453-.44 1.907l-1.276 1.586.637.804z" fill="#030405"/></svg><svg preserveAspectRatio="xMidYMid" viewBox="0 0 256 256" id="instagram" xmlns="http://www.w3.org/2000/svg"><path d="M128 23.064c34.177 0 38.225.13 51.722.745 12.48.57 19.258 2.655 23.769 4.408 5.974 2.322 10.238 5.096 14.717 9.575 4.48 4.479 7.253 8.743 9.575 14.717 1.753 4.511 3.838 11.289 4.408 23.768.615 13.498.745 17.546.745 51.723 0 34.178-.13 38.226-.745 51.723-.57 12.48-2.655 19.257-4.408 23.768-2.322 5.974-5.096 10.239-9.575 14.718-4.479 4.479-8.743 7.253-14.717 9.574-4.511 1.753-11.289 3.839-23.769 4.408-13.495.616-17.543.746-51.722.746-34.18 0-38.228-.13-51.723-.746-12.48-.57-19.257-2.655-23.768-4.408-5.974-2.321-10.239-5.095-14.718-9.574-4.479-4.48-7.253-8.744-9.574-14.718-1.753-4.51-3.839-11.288-4.408-23.768-.616-13.497-.746-17.545-.746-51.723 0-34.177.13-38.225.746-51.722.57-12.48 2.655-19.258 4.408-23.769 2.321-5.974 5.095-10.238 9.574-14.717 4.48-4.48 8.744-7.253 14.718-9.575 4.51-1.753 11.288-3.838 23.768-4.408 13.497-.615 17.545-.745 51.723-.745M128 0C93.237 0 88.878.147 75.226.77c-13.625.622-22.93 2.786-31.071 5.95-8.418 3.271-15.556 7.648-22.672 14.764C14.367 28.6 9.991 35.738 6.72 44.155 3.555 52.297 1.392 61.602.77 75.226.147 88.878 0 93.237 0 128c0 34.763.147 39.122.77 52.774.622 13.625 2.785 22.93 5.95 31.071 3.27 8.417 7.647 15.556 14.763 22.672 7.116 7.116 14.254 11.492 22.672 14.763 8.142 3.165 17.446 5.328 31.07 5.95 13.653.623 18.012.77 52.775.77s39.122-.147 52.774-.77c13.624-.622 22.929-2.785 31.07-5.95 8.418-3.27 15.556-7.647 22.672-14.763 7.116-7.116 11.493-14.254 14.764-22.672 3.164-8.142 5.328-17.446 5.95-31.07.623-13.653.77-18.012.77-52.775s-.147-39.122-.77-52.774c-.622-13.624-2.786-22.929-5.95-31.07-3.271-8.418-7.648-15.556-14.764-22.672C227.4 14.368 220.262 9.99 211.845 6.72c-8.142-3.164-17.447-5.328-31.071-5.95C167.122.147 162.763 0 128 0zm0 62.27c-36.302 0-65.73 29.43-65.73 65.73 0 36.302 29.428 65.73 65.73 65.73 36.301 0 65.73-29.428 65.73-65.73 0-36.301-29.429-65.73-65.73-65.73zm0 108.397c-23.564 0-42.667-19.103-42.667-42.667S104.436 85.333 128 85.333s42.667 19.103 42.667 42.667-19.103 42.667-42.667 42.667zm83.686-110.994c0 8.484-6.876 15.36-15.36 15.36-8.483 0-15.36-6.876-15.36-15.36 0-8.483 6.877-15.36 15.36-15.36 8.484 0 15.36 6.877 15.36 15.36z" fill="#0A0A08"/></svg><svg viewBox="0 0 48 48" id="logo" xmlns="http://www.w3.org/2000/svg"><path d="M1.281 24.547c-1.304-3.262.313-6.797 2.024-10.543 1.617-3.535 3.453-7.547 3.3-12.074A1.175 1.175 0 017.344.8L8.348.399c.59-.234 1.257.04 1.511.618 3.848 8.773 7.051 13.097 10.38 14.011 2.206.606 4.745-.195 7.991-2.515a1.174 1.174 0 011.77.515c.68 1.688.977 3.477.887 5.313a1.168 1.168 0 01-1.227 1.113 1.172 1.172 0 01-1.117-1.226c.05-.997-.043-1.973-.27-2.918-3.28 2.066-6.058 2.695-8.66 1.98-2.199-.605-4.238-2.2-6.226-4.871-1.465-1.969-2.93-4.527-4.532-7.938-.421 3.95-1.996 7.395-3.418 10.5-1.558 3.418-2.91 6.368-1.976 8.692a10.228 10.228 0 002.465 3.625 1.17 1.17 0 01.043 1.656 1.168 1.168 0 01-1.656.043 12.585 12.585 0 01-3.032-4.45zM48 39.887a1.17 1.17 0 01-1.172 1.172h-8.996l-3.668 6.062a1.17 1.17 0 01-1.004.566H14.84c-.414 0-.793-.214-1.004-.566l-3.668-6.062H1.172A1.17 1.17 0 010 39.887a1.17 1.17 0 011.172-1.172h3.984C5.762 28.848 13.984 21.004 24 21.004c1.54 0 3.074.187 4.559.555a1.173 1.173 0 01-.563 2.277c-1.3-.32-2.644-.484-3.996-.484-8.723 0-15.89 6.789-16.496 15.363h9.918a9.858 9.858 0 01-1.625-1.738c-1.14-1.579-1.926-3.836-.953-5.063.386-.488 1.148-.867 2.117-.46 2.887 1.206 5.61 1.245 8.094.116 2.988-1.36 5.363-4.3 6.687-8.289.7-2.105 2.785-3.07 4.852-3.101a6.293 6.293 0 00-1-2.79 1.176 1.176 0 01.332-1.624 1.176 1.176 0 011.625.336 8.658 8.658 0 011.422 4.464c2.37.844 3.715 2.918 3.394 5.364-.379 2.894-1.875 5.922-4.207 8.53a20.91 20.91 0 01-5.273 4.255h7.61a16.692 16.692 0 00-.587-3.348 1.175 1.175 0 01.809-1.449 1.175 1.175 0 011.449.809c.367 1.296.594 2.632.676 3.988h3.984A1.17 1.17 0 0148 39.887zm-29.285-3.16c1.457 1.304 4.808 3.168 10.836.953 4.601-1.688 9.785-6.657 10.492-12.055.187-1.434-.59-2.203-1.328-2.61a1.824 1.824 0 01-.043.157 1.169 1.169 0 01-1.438.824 1.169 1.169 0 01-.824-1.437l.008-.032c-1.11.07-2.137.551-2.45 1.493-1.534 4.613-4.355 8.054-7.94 9.687-2.829 1.285-5.985 1.355-9.18.219.21.715.765 1.816 1.867 2.8zm16.375 4.332H12.91l2.59 4.28h17zM20.977 28.766c-.649 0-1.176.523-1.176 1.172 0 .648.527 1.171 1.176 1.171h.222a1.173 1.173 0 000-2.343zm-9.543 5.91h-.223a1.173 1.173 0 100 2.344h.223a1.173 1.173 0 000-2.344zm5.101-7.95a1.174 1.174 0 100 2.348h.223a1.174 1.174 0 000-2.348zm8.192-1.753c-.649 0-1.176.523-1.176 1.172 0 .648.527 1.171 1.176 1.171h.222a1.173 1.173 0 000-2.343zm0 0"/></svg><svg viewBox="0 0 48 48" id="menu" xmlns="http://www.w3.org/2000/svg"><path d="M17.145 0H3.43A3.43 3.43 0 000 3.43v13.715a3.428 3.428 0 003.43 3.425h13.715a3.428 3.428 0 003.425-3.425V3.43A3.428 3.428 0 0017.145 0zm0 27.43H3.43A3.428 3.428 0 000 30.855V44.57A3.43 3.43 0 003.43 48h13.715a3.428 3.428 0 003.425-3.43V30.855a3.428 3.428 0 00-3.425-3.425zM44.57 0H30.855a3.428 3.428 0 00-3.425 3.43v13.715a3.428 3.428 0 003.425 3.425H44.57A3.428 3.428 0 0048 17.145V3.43A3.43 3.43 0 0044.57 0zm0 27.43H30.855a3.428 3.428 0 00-3.425 3.425V44.57A3.428 3.428 0 0030.855 48H44.57A3.43 3.43 0 0048 44.57V30.855a3.428 3.428 0 00-3.43-3.425zm0 0"/></svg><svg viewBox="0 0 48 48" id="right" xmlns="http://www.w3.org/2000/svg"><path d="M33.926 22.691L17.562.871a2.184 2.184 0 00-3.054-.433 2.184 2.184 0 00-.434 3.054L29.454 24l-15.38 20.508A2.184 2.184 0 0015.816 48c.664 0 1.32-.3 1.746-.871l16.364-21.82a2.18 2.18 0 000-2.618zm0 0"/></svg><svg viewBox="0 0 48 48" id="up" xmlns="http://www.w3.org/2000/svg"><path d="M24 4.95C13.496 4.95 4.95 13.495 4.95 24c0 10.504 8.546 19.05 19.05 19.05 10.504 0 19.05-8.546 19.05-19.05 0-10.504-8.546-19.05-19.05-19.05zm0 34.76c-8.664 0-15.71-7.046-15.71-15.71 0-8.664 7.046-15.71 15.71-15.71 8.664 0 15.71 7.046 15.71 15.71 0 8.664-7.046 15.71-15.71 15.71zm0 0"/><path d="M24 0C10.766 0 0 10.766 0 24s10.766 24 24 24 24-10.766 24-24S37.234 0 24 0zm0 44.664c-11.395 0-20.664-9.27-20.664-20.664 0-11.395 9.27-20.664 20.664-20.664 11.395 0 20.664 9.27 20.664 20.664 0 11.395-9.27 20.664-20.664 20.664zm0 0"/><path d="M31.012 19.441l-6.172-3.59a1.421 1.421 0 00-.246-.117c-.004 0-.004-.004-.004-.004h-.012v-.003h-.004a1.698 1.698 0 00-1.258.043l-.003.003c-.004 0-.004 0-.008.004-.047.02-.094.047-.14.075h-.005l-6.172 3.59a1.666 1.666 0 00-.601 2.28 1.666 1.666 0 002.281.602l3.664-2.129v10.512a1.667 1.667 0 103.336 0V20.195l3.664 2.13c.797.464 1.82.195 2.281-.602a1.666 1.666 0 00-.601-2.282zm0 0"/></svg></svg>