<svg viewBox="0 0 50 50" xmlns="http://www.w3.org/2000/svg" xmlns:xlink="http://www.w3.org/1999/xlink"><style>:root&gt;svg{display:none}:root&gt;svg:target{display:block}</style><svg viewBox="0 0 40 40" id="call" xmlns="http://www.w3.org/2000/svg"><path d="M31.613 24.777c-.82-.851-1.808-1.308-2.855-1.308-1.035 0-2.035.449-2.887 1.3l-2.668 2.66c-.219-.116-.437-.226-.648-.34a9.638 9.638 0 01-.836-.444c-2.5-1.586-4.77-3.657-6.95-6.332-1.054-1.333-1.765-2.458-2.277-3.598.692-.633 1.332-1.29 1.957-1.922.239-.238.473-.484.711-.719 1.77-1.773 1.77-4.07 0-5.844l-2.305-2.304c-.261-.262-.535-.531-.785-.801a40.296 40.296 0 00-1.59-1.57c-.816-.809-1.796-1.243-2.828-1.243-1.027 0-2.023.434-2.87 1.243-.009.007-.009.007-.016.015l-2.871 2.9a6.184 6.184 0 00-1.833 3.926c-.203 2.464.524 4.761 1.083 6.261 1.367 3.692 3.41 7.11 6.457 10.774 3.699 4.414 8.148 7.902 13.23 10.36 1.941.917 4.535 2.007 7.43 2.194.175.008.363.016.531.016 1.95 0 3.586-.7 4.871-2.094.008-.015.023-.023.035-.043.438-.531.946-1.011 1.477-1.527a36.25 36.25 0 001.097-1.09c.836-.867 1.274-1.883 1.274-2.922 0-1.047-.445-2.05-1.3-2.894zm3.024 8.891c-.012 0-.012.008 0 0-.332.355-.668.676-1.032 1.031-.55.524-1.105 1.07-1.628 1.688-.856.91-1.86 1.343-3.176 1.343-.125 0-.262 0-.387-.011-2.508-.16-4.84-1.137-6.586-1.973-4.777-2.312-8.973-5.598-12.46-9.762-2.88-3.468-4.806-6.675-6.079-10.12-.785-2.102-1.074-3.739-.945-5.286.082-.988.465-1.805 1.164-2.508l2.879-2.879c.414-.386.851-.597 1.285-.597.531 0 .96.32 1.23.59l.028.027c.511.48 1.004.976 1.52 1.508.26.273.53.543.8.82l2.305 2.305c.894.894.894 1.722 0 2.617-.246.246-.48.488-.727.726a41.851 41.851 0 01-2.117 2.06c-.02.019-.035.026-.043.042-.727.727-.59 1.438-.441 1.918.011.023.02.05.027.074.598 1.453 1.445 2.82 2.726 4.45l.008.007c2.332 2.871 4.79 5.11 7.496 6.825.348.218.703.394 1.04.562.304.152.59.297.835.45.036.015.067.042.102.058.289.144.559.21.836.21.7 0 1.14-.437 1.285-.581l2.887-2.887c.285-.29.742-.633 1.273-.633.524 0 .953.328 1.215.613a.047.047 0 00.02.02l4.648 4.652c.871.86.871 1.746.012 2.641zM21.617 9.516a10.687 10.687 0 015.824 3.023 10.739 10.739 0 013.024 5.824c.094.555.574.946 1.12.946.071 0 .13-.008.196-.016a1.144 1.144 0 00.938-1.32 13.023 13.023 0 00-3.657-7.047 13.023 13.023 0 00-7.046-3.656 1.148 1.148 0 00-1.32.93 1.13 1.13 0 00.921 1.316zm18.336 8.129c-.75-4.407-2.828-8.418-6.02-11.61A21.43 21.43 0 0022.325.015c-.613-.109-1.195.313-1.308.93a1.147 1.147 0 00.937 1.317c3.938.668 7.524 2.535 10.379 5.379 2.852 2.855 4.707 6.441 5.375 10.375.094.558.574.945 1.125.945.066 0 .125-.008.191-.016a1.12 1.12 0 00.93-1.3zm0 0"/></svg><svg viewBox="0 0 40 40" id="f" xmlns="http://www.w3.org/2000/svg"><path d="M0 0v40h40V0zm26.46 11.008h-3.124c-.621 0-1.246.64-1.246 1.117v3.188h4.367c-.176 2.445-.539 4.68-.539 4.68H22.07v13.855h-5.738V19.992h-2.793v-4.664h2.793v-3.812c0-.696-.14-5.364 5.879-5.364h4.25zm0 0" fill-rule="evenodd"/></svg><svg viewBox="0 0 40 40" id="i" xmlns="http://www.w3.org/2000/svg"><path d="M20 16.023A3.983 3.983 0 0016.023 20 3.983 3.983 0 0020 23.977 3.983 3.983 0 0023.977 20 3.983 3.983 0 0020 16.023zm0 0A3.983 3.983 0 0016.023 20 3.983 3.983 0 0020 23.977 3.983 3.983 0 0023.977 20 3.983 3.983 0 0020 16.023zm6.625-6.484h-13.25a3.838 3.838 0 00-3.836 3.836v13.25a3.838 3.838 0 003.836 3.836h13.25a3.838 3.838 0 003.836-3.836v-13.25a3.838 3.838 0 00-3.836-3.836zM20 26.891c-3.797 0-6.89-3.094-6.89-6.891s3.093-6.89 6.89-6.89c3.797 0 6.89 3.093 6.89 6.89 0 3.797-3.093 6.89-6.89 6.89zm7.11-12.356a1.63 1.63 0 01-1.63-1.629 1.63 1.63 0 013.258 0 1.63 1.63 0 01-1.629 1.63zM20 16.023A3.983 3.983 0 0016.023 20 3.983 3.983 0 0020 23.977 3.983 3.983 0 0023.977 20 3.983 3.983 0 0020 16.023zm6.625-6.484h-13.25a3.838 3.838 0 00-3.836 3.836v13.25a3.838 3.838 0 003.836 3.836h13.25a3.838 3.838 0 003.836-3.836v-13.25a3.838 3.838 0 00-3.836-3.836zM20 26.891c-3.797 0-6.89-3.094-6.89-6.891s3.093-6.89 6.89-6.89c3.797 0 6.89 3.093 6.89 6.89 0 3.797-3.093 6.89-6.89 6.89zm7.11-12.356a1.63 1.63 0 01-1.63-1.629 1.63 1.63 0 013.258 0 1.63 1.63 0 01-1.629 1.63zM20 16.023A3.983 3.983 0 0016.023 20 3.983 3.983 0 0020 23.977 3.983 3.983 0 0023.977 20 3.983 3.983 0 0020 16.023zM0 0v40h40V0zm33.375 26.625a6.757 6.757 0 01-6.75 6.75h-13.25a6.757 6.757 0 01-6.75-6.75v-13.25a6.757 6.757 0 016.75-6.75h13.25a6.757 6.757 0 016.75 6.75zm-6.75-17.086h-13.25a3.838 3.838 0 00-3.836 3.836v13.25a3.838 3.838 0 003.836 3.836h13.25a3.838 3.838 0 003.836-3.836v-13.25a3.838 3.838 0 00-3.836-3.836zM20 26.891c-3.797 0-6.89-3.094-6.89-6.891s3.093-6.89 6.89-6.89c3.797 0 6.89 3.093 6.89 6.89 0 3.797-3.093 6.89-6.89 6.89zm7.11-12.356a1.63 1.63 0 01-1.63-1.629 1.63 1.63 0 013.258 0 1.63 1.63 0 01-1.629 1.63zM20 16.023A3.983 3.983 0 0016.023 20 3.983 3.983 0 0020 23.977 3.983 3.983 0 0023.977 20 3.983 3.983 0 0020 16.023zm0 0A3.983 3.983 0 0016.023 20 3.983 3.983 0 0020 23.977 3.983 3.983 0 0023.977 20 3.983 3.983 0 0020 16.023zm0 0A3.983 3.983 0 0016.023 20 3.983 3.983 0 0020 23.977 3.983 3.983 0 0023.977 20 3.983 3.983 0 0020 16.023zm6.625-6.484h-13.25a3.838 3.838 0 00-3.836 3.836v13.25a3.838 3.838 0 003.836 3.836h13.25a3.838 3.838 0 003.836-3.836v-13.25a3.838 3.838 0 00-3.836-3.836zM20 26.891c-3.797 0-6.89-3.094-6.89-6.891s3.093-6.89 6.89-6.89c3.797 0 6.89 3.093 6.89 6.89 0 3.797-3.093 6.89-6.89 6.89zm7.11-12.356a1.63 1.63 0 01-1.63-1.629 1.63 1.63 0 013.258 0 1.63 1.63 0 01-1.629 1.63zM20 16.023A3.983 3.983 0 0016.023 20 3.983 3.983 0 0020 23.977 3.983 3.983 0 0023.977 20 3.983 3.983 0 0020 16.023zm0 0A3.983 3.983 0 0016.023 20 3.983 3.983 0 0020 23.977 3.983 3.983 0 0023.977 20 3.983 3.983 0 0020 16.023zm0 0A3.983 3.983 0 0016.023 20 3.983 3.983 0 0020 23.977 3.983 3.983 0 0023.977 20 3.983 3.983 0 0020 16.023zm6.625-6.484h-13.25a3.838 3.838 0 00-3.836 3.836v13.25a3.838 3.838 0 003.836 3.836h13.25a3.838 3.838 0 003.836-3.836v-13.25a3.838 3.838 0 00-3.836-3.836zM20 26.891c-3.797 0-6.89-3.094-6.89-6.891s3.093-6.89 6.89-6.89c3.797 0 6.89 3.093 6.89 6.89 0 3.797-3.093 6.89-6.89 6.89zm7.11-12.356a1.63 1.63 0 01-1.63-1.629 1.63 1.63 0 013.258 0 1.63 1.63 0 01-1.629 1.63zM20 16.023A3.983 3.983 0 0016.023 20 3.983 3.983 0 0020 23.977 3.983 3.983 0 0023.977 20 3.983 3.983 0 0020 16.023zm0 0"/></svg><svg viewBox="0 0 30 30" id="menu" xmlns="http://www.w3.org/2000/svg"><path d="M29.969 9.445H0V3.992h29.969zM.953 8.488h28.063V4.945H.953zm29.016 9.222H0v-5.452h29.969zM.953 16.759h28.063V13.21H.953zm29.016 9.218H0v-5.454h29.969zM.953 25.023h28.063V21.48H.953zm0 0"/></svg><svg viewBox="0 0 40 40" id="p" xmlns="http://www.w3.org/2000/svg"><path d="M0 0v40h40V0zm33.773 25.363c-3.132 7.996-11.535 10.825-17.836 8.828.47-1.16 1.008-2.308 1.399-3.504.394-1.199.644-2.445.941-3.601.254.215.512.441.778.652 1.394 1.102 2.968 1.207 4.617.809 1.754-.418 3.14-1.414 4.168-2.875 1.734-2.473 2.348-5.27 1.926-8.211-.434-3.043-2.235-5.246-5.059-6.356-4.254-1.668-8.289-1.105-11.785 1.957-2.688 2.352-3.59 6.344-2.297 9.454.445 1.078 1.156 1.922 2.227 2.43.543.257.773.152.93-.415.011-.043.027-.082.042-.125.301-.793.23-1.445-.304-2.21-.977-1.395-.805-3.012-.332-4.56.894-2.937 3.515-4.898 6.593-4.925.824-.008 1.672.062 2.469.258 2.375.578 3.906 2.414 4.063 4.847.12 1.954-.184 3.852-1.032 5.633-.422.883-.976 1.668-1.8 2.223-.774.523-1.626.734-2.544.492-1.269-.332-1.988-1.488-1.667-2.758.332-1.312.761-2.605 1.09-3.922.136-.554.21-1.16.152-1.726-.153-1.547-1.614-2.266-2.977-1.512-.957.527-1.418 1.41-1.629 2.434-.222 1.05-.113 2.09.227 3.11.07.202.078.456.031.667-.621 2.703-1.281 5.398-1.871 8.11-.172.788-.137 1.624-.195 2.44-.012.157 0 .313 0 .52C7.566 30.801 3.32 23.027 6.02 15.13c2.675-7.81 11.324-11.9 19.109-9.01 7.808 2.9 11.671 11.517 8.644 19.243zm0 0"/></svg><svg viewBox="0 0 50 50" id="skull" xmlns="http://www.w3.org/2000/svg"><path d="M27.473 31c-.68-1.492-1.535-2.285-2.473-2.285s-1.793.793-2.473 2.285c-.484 1.07-.812 2.36-.812 3.215 0 1.168.617 1.746 1.133 2.023.52.282 1.203.41 2.152.41.95 0 1.633-.128 2.152-.41.516-.277 1.133-.855 1.133-2.023 0-.856-.328-2.145-.812-3.215zM25 35.184c-1.82 0-1.82-.536-1.82-.97 0-.55.234-1.624.68-2.609.476-1.043.945-1.425 1.14-1.425.195 0 .664.383 1.14 1.425.446.985.68 2.06.68 2.61 0 .433 0 .969-1.82.969zm-1.008-10.34a2.196 2.196 0 00-2.066-2.192 2.2 2.2 0 00-3.07-1.418 2.199 2.199 0 00-2.946-.078 2.134 2.134 0 00-1.082-.273c-.84.012-1.336.363-1.605.656a2.06 2.06 0 00-.461.809 2.202 2.202 0 00-2.016 2.726 2.191 2.191 0 00-.332 3.305 2.24 2.24 0 00-.184.867c-.007.793.313 1.281.586 1.555.352.351.782.515 1.149.59a2.2 2.2 0 002.09 1.527c.207 0 .406-.031.601-.086.395.352.906.547 1.45.547.66 0 1.273-.3 1.683-.79a1.9 1.9 0 00.738.102c.864-.054 1.364-.425 1.625-.726.215-.242.344-.508.418-.75a2.2 2.2 0 001.957-2.168 2.26 2.26 0 00.774-.445c.43-.387.668-.93.691-1.575a2.097 2.097 0 00-.281-1.109 2.22 2.22 0 00.281-1.074zm-4.746-2.102a.734.734 0 01.559-.258c.402 0 .812.282.718.868a.823.823 0 00-.003.218 6.319 6.319 0 00-1.723-.578.744.744 0 00.45-.25zm-2.57-.226a.731.731 0 011.336.03.725.725 0 00.343.372 8.694 8.694 0 00-2.016-.063.745.745 0 00.337-.34zm-2.38.015c.044-.047.169-.18.556-.183a.695.695 0 01.574.293c.101.136.25.23.41.27a5.818 5.818 0 00-1.078.257 4.044 4.044 0 00-.73.344.723.723 0 00.081-.383c-.004-.106.02-.418.188-.598zm-1.421 1.282c.086 0 .285.117.61.082-.45.375-.81.84-1.06 1.359a.7.7 0 00-.128-.266.732.732 0 01.578-1.176zm3.934 7.574a.732.732 0 01-1.328.176c-.102-.168-.274-.27-.465-.333-.23-.078-.442.024-.559.102a.733.733 0 01-1.133-.613.724.724 0 00-.219-.52.753.753 0 00-.535-.21c-.18 0-.539-.044-.718-.227-.04-.04-.16-.157-.157-.5a.757.757 0 01.223-.532.727.727 0 00-.21-1.191.739.739 0 01-.43-.668c0-.348.245-.648.585-.719a.691.691 0 00.274-.12 4.118 4.118 0 00.11 2.402 4.12 4.12 0 004.73 2.66.71.71 0 00-.168.293zm.21-1.825a2.667 2.667 0 01-3.395-1.617 2.663 2.663 0 011.622-3.394c.465-.164 1.125-.262 1.813-.262 1.87 0 3.253.633 3.46 1.215.118.332-.035 1.07-.855 2.062-.738.895-1.8 1.7-2.644 1.997zm3.313.2a.693.693 0 01-.195-.028.728.728 0 00-.649.133.72.72 0 00-.277.602c0 .008.016.332-.156.527-.121.137-.328.215-.621.234-.184.012-.356-.113-.438-.187a.746.746 0 00-.316-.164c1.11-.442 2.406-1.45 3.293-2.606a.755.755 0 00.03.473c.04.09.06.188.06.285 0 .403-.329.73-.731.73zm1.367-2.032a.728.728 0 00-.426.125c.622-.953.938-1.968.625-2.84a2.214 2.214 0 00-.515-.812c.047-.008.316-.09.414-.09a.732.732 0 01.492 1.27.736.736 0 000 1.082c.074.066.246.254.238.515-.023.668-.582.747-.828.75zm18.492-.859c0-.73-.367-1.394-.933-1.797a2.202 2.202 0 00-2.02-2.727 2.098 2.098 0 00-.457-.808c-.27-.293-.77-.644-1.61-.656-.378-.008-.75.09-1.081.273a2.206 2.206 0 00-1.426-.527c-.578 0-1.117.223-1.52.61a2.13 2.13 0 00-.949-.22 2.2 2.2 0 00-2.12 1.633 2.196 2.196 0 00-2.067 2.192c0 .379.101.75.285 1.074-.2.34-.297.723-.285 1.11.023.644.262 1.187.695 1.574.238.214.512.355.77.445a2.203 2.203 0 001.957 2.168c.074.242.203.508.418.75.261.3.761.672 1.629.726.246.016.496-.02.734-.101.41.488 1.023.789 1.684.789.546 0 1.054-.195 1.449-.547.195.055.398.086.601.086.977 0 1.809-.645 2.094-1.527.363-.075.797-.239 1.148-.59.27-.27.59-.762.583-1.555a2.205 2.205 0 00-.184-.863c.379-.403.605-.942.605-1.512zm-3.066-3.058c.402 0 .73.328.73.73 0 .203-.253.617-.28.71a4.063 4.063 0 00-1.06-1.358c.118.015.524-.082.61-.082zm-2.55-1.172a.7.7 0 01.573-.293c.387.004.512.136.555.183.168.18.192.492.188.594a.731.731 0 00.086.387 4.21 4.21 0 00-.735-.344 5.743 5.743 0 00-1.078-.258.727.727 0 00.41-.27zm-2.587-.094a.732.732 0 011.34-.031.72.72 0 00.332.34 8.694 8.694 0 00-2.012.062.734.734 0 00.34-.371zm-1.793-.063c.215-.027.418.094.559.258a.744.744 0 00.45.25 6.27 6.27 0 00-1.72.578c.008-.07-.234-.957.711-1.086zm-1.894 5.246c-.246-.003-.805-.082-.828-.75-.008-.261.164-.449.238-.515a.734.734 0 000-1.082.728.728 0 01-.238-.54c0-.402.328-.73.734-.73.094 0 .363.082.41.09-.23.238-.41.508-.515.813-.309.87.003 1.89.628 2.84a.749.749 0 00-.43-.126zm3.703 3.313c-.082.074-.25.2-.438.187-.293-.02-.5-.097-.62-.234-.173-.195-.157-.5-.157-.504 0-.008.02-.36-.273-.625a.7.7 0 00-.653-.133.733.733 0 01-.867-.988.755.755 0 00.031-.473c.887 1.16 2.192 2.168 3.305 2.61a.733.733 0 00-.328.16zm-1.668-3.477c-.82-.992-.973-1.73-.856-2.062.207-.582 1.59-1.215 3.461-1.215.688 0 1.348.098 1.813.262a2.663 2.663 0 011.621 3.394 2.664 2.664 0 01-3.395 1.617c-.843-.296-1.906-1.101-2.644-1.996zm7.957-.027a.727.727 0 00-.211 1.191c.14.137.219.329.223.532.004.343-.114.46-.153.5-.183.183-.543.226-.722.226a.736.736 0 00-.754.73.733.733 0 01-.73.735.714.714 0 01-.4-.121.736.736 0 00-1.026.23.732.732 0 01-1.329-.175.71.71 0 00-.168-.293 4.12 4.12 0 004.73-2.66 4.118 4.118 0 00.11-2.403c.082.059.82.133.864.84.015.285-.172.547-.434.668zM25 3.836a2.476 2.476 0 00-2.473 2.473c0 .62.23 1.734.551 2.648.512 1.465 1.14 2.18 1.922 2.18.781 0 1.41-.715 1.922-2.18.32-.914.55-2.027.55-2.648A2.476 2.476 0 0025 3.836zm0 5.762c-.434-.5-1.008-2.45-1.008-3.29a1.008 1.008 0 112.016 0c0 .84-.574 2.79-1.008 3.29zm-4.91 3.199c-.45-.606-1.067-1.242-1.469-1.516-.453-.308-1-.418-1.535-.316-.54.101-1.008.41-1.313.863a2.048 2.048 0 00.543 2.848c.403.273 1.223.613 1.95.808.226.059.683.184 1.152.184.465 0 .941-.121 1.223-.535.566-.832-.274-1.965-.551-2.336zm-2.95.668c-.269-.18-.316-.531-.156-.817a.568.568 0 01.817-.152c.48.324 1.18 1.188 1.453 1.695-.574-.07-1.633-.398-2.113-.726zm17.087-1.637a2.028 2.028 0 00-1.309-.863 2.06 2.06 0 00-1.54.316c-.401.274-1.019.91-1.468 1.516-.277.371-1.117 1.504-.55 2.336.28.414.757.535 1.222.535.469 0 .926-.125 1.152-.184.727-.195 1.547-.535 1.95-.808a2.048 2.048 0 00.543-2.848zm-1.368 1.637c-.48.328-1.539.656-2.113.726.274-.507.973-1.37 1.453-1.695.38-.273.73.024.817.152a.585.585 0 01-.157.817zm0 0"/><path d="M42.285 24.188a18.181 18.181 0 00-1.363-14.844 18.551 18.551 0 00-6.164-6.504.733.733 0 00-.79 1.238 16.994 16.994 0 012.833 2.258 2.7 2.7 0 00-.598.371c-.836.695-1.203 1.848-.887 2.797.09.27.262.617.602.937-.43.325-.719.766-.84 1.29-.273 1.183.414 2.535 1.535 3.011a2.22 2.22 0 001.54.074c.046.38.171.672.288.875 1 1.715 3.016 1.079 3.286.961a16.854 16.854 0 01-.824 7.063 3.598 3.598 0 00.163 2.777 6.93 6.93 0 01.739 3.13c0 2.644-.91 4.57-2.7 5.726-1.554 1.004-3.417 1.199-4.394 1.226a2.23 2.23 0 00-2.04 1.485l-.237.66a1.295 1.295 0 01-1.22.855h-.784v-.59a.733.733 0 10-1.465 0v.59h-1.668v-.59a.733.733 0 10-1.465 0v.59h-1.664v-.59a.734.734 0 10-1.465 0v.59h-1.668v-.59a.734.734 0 10-1.465 0v.59h-.785a1.295 1.295 0 01-1.219-.855l-.238-.66a2.23 2.23 0 00-2.039-1.485c-.976-.027-2.84-.222-4.394-1.226-1.79-1.157-2.7-3.082-2.7-5.727 0-1.101.25-2.152.739-3.129.421-.84.484-1.855.168-2.777a16.754 16.754 0 01-.907-5.473 16.74 16.74 0 01.688-4.722c.094.007.625.07 1.164-.122.297.524.414.993.332 1.336a.767.767 0 01-.387.504.734.734 0 00-.262 1.004c.137.235.594.469 1 .262.57-.285.93-.828 1.075-1.43.02-.086.035-.172.047-.258.515.16 1.043.133 1.535-.078 1.12-.472 1.808-1.824 1.535-3.008a2.217 2.217 0 00-.84-1.289c.34-.32.516-.668.602-.937.316-.95-.051-2.102-.887-2.797a2.613 2.613 0 00-.598-.371C16.375 3.196 20.56 1.465 25 1.465c2.18 0 4.305.414 6.313 1.234.37.156.8-.023.953-.398a.735.735 0 00-.403-.957A18.085 18.085 0 0025 0c-4.867 0-9.45 1.91-12.91 5.375-3.45 3.453-5.352 8.023-5.36 12.867a18.147 18.147 0 00.985 5.945c.187.555.156 1.157-.09 1.649a8.355 8.355 0 00-.895 3.785c0 3.176 1.133 5.516 3.368 6.957 1.855 1.195 4.023 1.43 5.148 1.461a.778.778 0 01.703.516l.239.66a2.771 2.771 0 002.597 1.824h.785v.59a.733.733 0 101.465 0v-.59h1.668v.59a.733.733 0 101.465 0v-.59h1.664v.59a.734.734 0 101.465 0v-.59h1.668v.59a.734.734 0 101.465 0v-.59h.785c1.16 0 2.203-.734 2.598-1.824l.238-.66a.778.778 0 01.703-.516c.215-.004.465-.02.746-.047v2.973c0 3.918-2.988 7.148-6.805 7.531a4.25 4.25 0 00-.543-.687c.184.086.395.129.641.129.324 0 .7-.075 1.125-.22.621-.214 1.297-.57 1.645-.863a1.945 1.945 0 00.222-2.742 1.945 1.945 0 00-2.742-.226c-.348.293-.809.902-1.117 1.48-.465.86-.547 1.531-.258 2.008A4.362 4.362 0 0025 46.473c-.992 0-1.922.328-2.672.902.293-.477.211-1.148-.254-2.008-.312-.578-.77-1.187-1.117-1.48a1.945 1.945 0 00-2.742.226 1.945 1.945 0 00.223 2.742c.347.293 1.023.649 1.644.864.426.144.8.218 1.125.218a1.5 1.5 0 00.64-.128 4.25 4.25 0 00-.542.687c-3.817-.383-6.805-3.613-6.805-7.531v-.754a.732.732 0 00-1.465 0v.754c0 4.984 4.055 9.035 9.035 9.035h5.86c4.98 0 9.035-4.05 9.035-9.035v-3.2c.937-.21 1.976-.57 2.933-1.187 2.239-1.441 3.372-3.781 3.372-6.957a8.352 8.352 0 00-.895-3.785c-.246-.492-.277-1.094-.09-1.648zM37.188 13.39c-.473-.2-.797-.832-.68-1.332.148-.637.988-.758 1.547-.762.105.488.336.93.66 1.293-.336.445-.926 1.058-1.528.8zm.94-3.575c-.773-.09-1.288-.363-1.421-.773-.125-.379.059-.898.434-1.207.195-.164.5-.313.867-.168.277.34.543.687.793 1.047a2.864 2.864 0 00-.672 1.101zm1.329.813a1.36 1.36 0 01.172-.598c.008.012.012.024.02.031.359.645.68 1.31.953 1.989a1.371 1.371 0 01-1.145-1.422zm1.29 4.773c-.446.032-.864-.152-1.04-.453-.207-.351-.117-.906.25-1.55.559.214 1.063.132 1.156.12.149.504.274 1.012.375 1.528-.215.285-.578.344-.742.355zM12.813 13.39c-.602.257-1.192-.356-1.528-.801.324-.363.555-.805.66-1.293.559.004 1.403.125 1.547.762.117.5-.207 1.132-.68 1.332zm-.829-5.72c.371-.151.68 0 .875.165.375.309.559.828.434 1.207-.133.41-.648.684-1.422.773a2.85 2.85 0 00-.672-1.105c.246-.356.508-.703.785-1.04zm-1.617 2.356a1.365 1.365 0 01-.976 2.024c.28-.696.605-1.371.976-2.024zm19.625 34.977c.09-.078.434-.254.676.055a.485.485 0 01-.055.68c-.324.273-1.117.616-1.582.71.172-.445.637-1.172.961-1.445zm-10.605.734a.476.476 0 01-.055-.68c.25-.316.586-.132.676-.054.324.273.789 1 .96 1.445-.464-.094-1.257-.437-1.581-.71zm3.84 2.797a2.931 2.931 0 013.546 0zm0 0"/><path d="M25.73 44.785a.732.732 0 11-1.463-.003.732.732 0 011.463.003zm1.653-28.871h-1.649v-1.98a.734.734 0 10-1.468 0v1.98h-1.649a.733.733 0 000 1.465h1.649v4.289a.734.734 0 101.468 0v-4.29h1.649a.732.732 0 000-1.464zm-4.809-4.668l-1.57-2.297a.735.735 0 00-1.02-.191.738.738 0 00-.191 1.02l1.574 2.296c.387.535.89.278 1.02.192a.733.733 0 00.187-1.02zm7.442-2.488a.735.735 0 00-1.02.191l-1.57 2.297a.734.734 0 00.187 1.02c.13.086.676.28 1.02-.192l1.574-2.297a.738.738 0 00-.191-1.02zm-10.524 8.015h-1.305a.734.734 0 100 1.465h1.305a.732.732 0 000-1.465zm12.321 0h-1.305a.733.733 0 000 1.465h1.305a.733.733 0 100-1.465zm0 0"/></svg><svg viewBox="0 0 40 40" id="t" xmlns="http://www.w3.org/2000/svg"><g fill-rule="evenodd"><path d="M0 0v40h40V0zm33.828 8.852l-4.7 22.605a.75.75 0 01-1.175.453l-6.418-4.656a1.056 1.056 0 00-1.293.035l-3.555 2.898a.751.751 0 01-1.195-.359l-2.469-7.941-6.378-2.383c-.649-.242-.657-1.156-.008-1.406L32.824 7.996a.75.75 0 011.004.856zm0 0"/><path d="M27.566 12.938L15.094 20.62c-.477.293-.7.871-.547 1.41l1.348 4.739c.097.335.582.3.628-.047l.352-2.598c.066-.488.3-.938.66-1.277l10.293-9.567c.192-.176-.039-.48-.262-.344zm0 0"/></g></svg></svg>