<svg width="65" height="42" fill="none" xmlns="http://www.w3.org/2000/svg"><path fill-rule="evenodd" clip-rule="evenodd" d="M37.29 4.264l.23-.103-.127.369.337-.315-.04-.187.076-.166c-.274.066-.408.1-.476.402zm.242-.153c.008-.008.02.02.02.02s-.028-.012-.02-.02zm-1.586 1.008c-.35.008-.325.249-.535.41l.043.021.12-.1a4.863 4.863 0 00-.719 1.573l-1.122.29-.035.224 1.574-.207c.226 0 .77.025.77-.203v-.2h-.386c0-.684.635-1.875 1.016-2.17l-.056-.04c-.016-.017-.032.05-.04.058a.529.529 0 01-.043.053c-.036.042-.056.059-.095.1-.08.083-.143.141-.219.224-.11.129-.241.37-.325.519-.11.199-.432.962-.432 1.256-.095.054-.143.1-.29.1h-.19c.064-.784 1.186-2.373 1.777-2.514.055.174.365-.211.44-.328-.389.05-1.174.623-1.253.934zm-.321.365l.186-.353.063.058-.25.295zM33.408 7.86c.813-.141 2.439-.386 3.267-.415l.064-.075c-.793.03-2.213.179-3.065.295-.25.016-.226.157-.266.195zm10.544-.63l-.028.22c.19.024.389.07.58.173.063-.249-.39-.356-.552-.394zm-5.65-2.465l.11-.348-.11-.004.055-.403c.143-.041.214-.041.04-.103l.079-.245.456-.013c-.278.195-.5 1.125-.63 1.116zM35.034 8.98l-.607.095.004.245-.61.1-.005-.233c-.463.054-1.709.407-2.14.552-.151 0-.282.14-.334.261l.278-.05.107.092 2.113-.245c.107-.017.131.02.199.058l.138-.108c.004.253.048.349.242.402h.29v.1l.134-.004.056-.15h.19c-.027-.111-.011-.149-.142-.149l-.627.063v-.2l1.717-.112-.036-.838-.967.12zm8.264 1.066h.19c-.056-.083-.008-.1-.143-.1h-.19c.055.083.004.1.143.1zm.23.062l2.859.236-.242-.132-2.554-.253-.063.149zm-7.872-.162h-.527c.028.112.012.15.143.15.123 0 .115-.013.19-.05 0 0 .091.05.095.05.147 0 .206-.07.242-.204-.055.038-.051.054-.143.054zm-4.468.365l-.108.228c.163.05 2.066-.398 2.17-.344.04-.029.118-.1.142-.1.008 0 .258.183.286.2l.146-.046c-.008-.402-.329-.22-.769-.203l-1.867.265zm2.692-.215l.242.05c-.008-.1.004-.204-.095-.204-.12.004-.147.037-.147.154zm1.97-.05c0 .133.068.15.143.203v-.303c-.07.017-.142.013-.142.1zm11.19.469l-.197-.258-.215-.033-.202.067.615.224zm-13.307.136c.04.146-.02.096.095.05.016.195-.027.154.143.2l-.004-.312-.234.062zm-8.311.353l.726.02c-.02-.248-.595-.315-.821-.198l.095.178zm-1.681.05h.142c0-.282-.142-.282-.142 0zm21.579-.013c.69.141 1.011.465 1.067 1.087.004.05.194-.336.218-.29l.008-.958-.417-.129-.02.075-.864-.117.008.332zm-19.081.013l.428.066.087.12-.52-.087v.954h.48c.04-.178.096-.236.096-.452l-.004-.444-.091-.074.765.153v-.174a6.062 6.062 0 00-1.28-.24l.039.178zm-3.652.249l.245.02-.245.08v.804h.527v-.938l-.23.046-.147-.033.385-.108.008-.124-.016-.046c-.297.025-.52-.008-.527.299zm-5.817.162h.19l.004-.867-.179-.125-.015.992zm1.344 0h.079l.004-.838h-.08l-.003.838zm.388-.009h.08v-.676h-.08v.676zm2.887-.933l-.166.162-.171-.034-.119.162-.222-.016-.071.124-.23.033-.004-.352-.068.004-.004.464-.32.112-.35.166-.016-.742-.067-.008.004.846 1.289-.519 1.237-.535-.722.133zm-2.443.942l.068-.013v-.817l-.068.012v.818zm3.018-.059c0 .112.04.112.095.204h-.095v.655h.527v-.805c-.142.034-.281.108-.408.146l-.004-.092c.266-.087.389-.05.409-.303h-.19c-.136-.008-.334.092-.334.195zm1.25.349l.142-.05v-.253h-.143v.303zm5.436.004l-.44-.104v.403h.575l-.016-.154.016-.352-.088.004-.047.203zm-1.023-.353l-.088-.004v.303c0 .125.373.353.433.353h.19l-.004-.486-.428-.166c.253 0 .234.054.285-.145l-.5-.095.112.24zm-2.213.726l.587.025c.11 0 .142-.033.142-.15v-.903h-.337c-.13 0-.305-.009-.368-.03.09.312.055.693-.024 1.058zm1.451-.025h.385c.11 0 .242-.132.242-.253l-.028-.49-.587-.107-.012.85zm-3.652-.954l.19-.066v.1l-.19.066v.1c.135.012.19 0 .19.149v.15c0 .153-.055.14-.19.149v.402h.19c.167 0 .187-.038.35-.05l-.06-.601c-.024-.224.246-.395-.194-.407l.186-.108.04-.216-.516.125v.207h.004zm23.495 1.166l.329-.025.008-.145h-.337v.17zm.432.07l1.59-.107.238-.12h-1.82l-.008.227zm2.308-.232h-.385v.299l1.943-.046.004-.344c-.067.037-.777.091-.892.091h-.29c-.122 0-.114-.012-.19-.05-.067.038-.08.05-.19.05zm-28.11-.249v.353h.527v-.606l-.345.096v-.1l.345-.095v-.204c-.385.096-.527.187-.527.556zm3.299.303h.067v.1h.143c.599-.262.535-1.02.384-1.257l-.194.012-.4.009v1.136zm-.464 0h.392v-1.136l-.507.008.083-.066.424-.009v-.199l.072-.033v.228l.21-.004.15-.042c.052-.074-.015-.153-.174-.207a.866.866 0 00-.642.141c-.353.249-.508.838-.008 1.32zm17.994.174l.167.075-.024-.228-.143.153zm.266.278l.202.004-.055.146.246.236-.004-.29-.385-.345-.004.25zm-33.792.22c.051.224.896.133 1.26.133.04.029.12.1.143.1.155 0 .187-.142.238-.262l-1.642.03zm1.788.432l.135-.005.06-.248c-.203.02-.195.033-.195.253zm2.546-.295v.344h.242c-.02-.261-.116-.394-.39-.373l.148.029zm-.381.348h.29v-.302c-.163.041-.25.132-.29.303zm43.75.025l.531.274.115-.14-.504-.3-.142.166zm-12.995.536l-.004.19h.143v-.249l-.139.059zm-13.601.294l.147-.058.19.058c-.051-.079-.063-.15-.19-.15h-.143v.15h-.004zm9.866-.2l.682-.024 2.272.299v-.042l-2.272-.303-.682-.037v.108zm16.948.316h.047l-.004-.17h-.047l.004.17zm1.63.486l.511.024-.048-.054-.46-.22-.004.25zm-12.444-1.07h.242v.115h-.242v1.506h.337c.183 0 .016-.016.143.05l.012-2.472-.167.419v-.303l-.325-.104v.788zm-34.74 1.837h1.788v-.079h-1.788v.079zm-.551.589l.416-.104-.103-.145.048-.452h-.242l-.12.7zm34.585-.855h.175l.008.117h-.183v.136c0 .191-.055.32-.154.403l-.056-.2c-.186.133-.29-.008-.29.204v.203h1.008v-.1l.147-.012-.151-.24v-1.962h-.048l-.384.551v-1.26l-.08-.109v2.27h.008zm-2.288 1.49l.254.07v-.655h-.254v.585zm-27.353.095h.08l.027.51.35-.253-.024-.253h.38l-.44-.556-.373.552zm29.867-.025h.242v-.605h-.242v.605zm-.721-.15c0 .2.416.187.555.204l-.024-.655h-.527v.452h-.004zm-34.019-.439v.693h.817v-.763l-.817.07zm2.006.689h.298v-.602l-.298-.012v.614zm4.553-.204l.36.034v.253l.14-.034v-.253l.25-.008-.35-.46-.4.468zM3.462 15.58c-.012.142 0 .204-.143.204-.1 0-.087-.104-.095-.204h.238zm10.618 2.08h.864v-.116h-.864v.116zm-.385.083h.143v-.552h-.143v.552zm3.795-.448l-.38.248c.07.278.17.05.527.05v-.452l-.202.004.055.15zm-8.264.448c.155-.005.242.016.242-.15v-.203c0-.166-.095-.19-.242-.203v.556zm35.942 0h.385v-.652h-.242v.606h-.095v-.606h-.048v.652zm-33.777.406h.29c-.052-.195-.064-.195-.29-.203v.203zm16.631-2.92c-.59.041-.293.274-.44.41l-.004 2.46.119.245.464.008v-.706h.575l.008.701.424.063c.087.004.127-.187.147-.262h-.143v-.303c0-.215-.095-.203-.095-.352 0-.137.067-.195.143-.253v.1h.19v-1.967h.095v-.1l-.182.096-.064-.15-1.237.009zm1.241 2.012c-.083.091.088-.087 0 0zm-18.688.452h-.19v-.15c0-.182-.132-.402-.29-.402h-.242v.552h.242v-.203h.143v.402h-.48v.655h.674v-.605h.095v.605h.817v-.655h-.77v-.2h.722v-.55h-.721v.55zm1.633.655c0-.174.096-.074.096-.253v-.203h-.385v.353c0 .136-.024.136-.048.253h.337v-.15zm1.392.253h.08v-.352h-.08v.352zm4.759-.05l-.147.054.139.208.008-.262zm-2.598.453h.337c-.02-.075-.008-.15-.095-.15-.127-.004-.186.07-.242.15zm16.31.037l1.887-.008.02-.087-1.911.008v.087h.004zm-21.794-.133l.103-.004v-.153c0-.116-.031-.15-.143-.15h-.48v.705h.627l.008-.257-.115-.14zm.25.295h.095v.1h.432v-.1h.143v.1h.143v-.656h-.817v.556h.004zm1.634.05v-.15h-.337v.203h.575v-.05h-.238v-.003zm4.877.891l-.008-.215-.162.215h.17zm-7.09-.738c.016.041.048.187.048.253v.485h.92c.115-.058.32-.24.475-.286v-.303c0-.116-.031-.149-.142-.149h-1.3zm-8.605-2.107c2.713.008 3.256-.03-.234-.075l4.41-.033.158.257-4.334-.15zm.488.294c1.776.046 1.491-.066-.242-.112l1.824-.033v.24l-1.582-.095zm38.741-6.728l.044-.145.143.004-.091.141h-.096zm-1.407 1.647c0 .045 0 .087.004.124h.285v.888h-.36v-.265l-.056-.15.02-.05.035.034v-.453h.072v-.128zm1.578 1.83l.293.032v.1l.096.016.003-.215-.384-.05-.008.116zm-1.265-.631l.135.033v.108l.036-.058 3.053.427.154.062.151-.054-.123.174.02.129h-.238v-.15h-.095v.1l-1.436-.19.032.062 1.356.182.203.187-1.646-.191-.143-.05-.48-.05v-.1l.254-.061-.349-.042c-.079-.195.092-.158-.337-.153-.174 0-.353 0-.547-.005v-.36zm15.108.103l.575.005v.053h-.242v.03l.234.004.008.215-.579-.004v-.153c0-.083.064-.05.29-.054l.004-.038h-.29v-.058zm-14.604.307h.29v.05h-.29v-.05zm13.878.054h.389v.17h-.389v-.17zm.44.166v-.17h.19v.17h-.19zm1.162 0l-.016-.174.409-.004.008.178h-.4zm-15.98-.145l.837.079v.15l-.837-.055v-.174zm-8.93.257l1.02.02.277.109-1.27.012-.027-.14zm-3.93.125h.385v.149l-.385.05v-.2zm14.006.029l.357.041.004.083h-.242v.05l.686.075.282.22.043-.046v.199l-.59-.079.015 6.629.139.493-.718-.004V20.11h.095l-.103-.298.103-.005v-.103h-.095l.091-.452h-.138c.023-.112.055-.129.047-.204l-.043-.402.004-1.448-.123-.112v-.1l.115-.099-.052-.261v-1.178l.1-.27-.06-.299c-.325.005-.278.12-.274.502l-.004 6.397.087.004.167.485h-.956v-4.92l.27.059-.266-.224.024-2.261c.147-.083.333-.079.504-.042l.11-.165.151.087.27-.195zm8.331.22h1.785v.05l-1.785.306v-.357zm5.294.099c-.159 0-.139.091-.143.253h-.095v-.15c0-.111-.04-.111-.095-.203h.143v-.253h.095v.254h.65v.099h-.555zm2.669-.008l-1.805.008c.012-.075.056-.1.143-.1h.095c.091 0 .087.017.143.05.075-.058-.1-.05.095-.05l1.325-.008v.1h.004zm-2.043.029c-.023-.174.02-.129.23-.12-.055.207-.087.066-.23.12zm-1.875.182h.94v.05h-.94v-.05zm1.162 0h1.332v.083h-1.332v-.083zm1.384 0h.483v.083h-.483v-.083zm.515.013l.155-.013-.012.162-.143-.15zm-13.153.087v-.1h.095v.1h-.095zm-.714.713l-.008 3.564H42c-.024.112-.048.116-.048.253v2.02l.127.485h-.464v-4.169l-.103-.145.008-2.17h.095l.004-.501.151.008c.508-.033.428.535.428.655zm9.41-.56h-.29v-.149h.29v.15zm1.42-.103c.281-.009.29-.216.356.054l-.376.004.02-.058zm-1.71.253c.179.016.179.016.19.203-.174-.017-.174-.017-.19-.203zm5.12.203l-.04-.066.587.008-.016.058h-.531zm.745-.203l.25.14c-.04.154-.055.096-.055.212 0 0 0 3.738.016 3.82h-.19v.204l.193-.041.008.394-.345-.025-.02-4.596.147.149v-.257h-.004zm-.963.1c.107.028.143.012.143.149v.149h-.143v.15l-.183.003.016-.352.167-.004v-.096zm.721.306c-.043.195-.103.299-.29.349v-.1h.144l.004-.19.142-.059zm-.904.216l.381.033.024 4.044-.417.038-.031-.544.079-.448v-.435l.012-.564-.056-.602-.023-.518.023-.457.008-.547zm-32.73.017v.265c0 .079.016.286.028.523h.194v-.788h-.222zm33.25.364c.174.133.055.042.047.353l.226-.278.111-.025-.103.349h-.186l-.095.15v-.548zm1.154.154h.19l-.056.15.116.095-.072.41c-.123-.008-.178.005-.178-.149v-.506zm-36.105.386c.084.15.068-.025.068.166 0 .294-.127.68-.29.804l.095-.253-.051-.199.027-.058-.063-.468.214.008zm2.633.556v.97h-1.174c.012-.149.036-.253.19-.253h.37v-.717h.614zM34.268 18.9h-1.832v-.15h1.943l-.111.15zm9.267.083l.527.062.194-.012v1.933h-.142v-1.407h.095l-.012-.062-.187.038-.618.008-.242.016v-.477l.385.1v-.2zm2.787-.004l.218-.004-.04 1.99h-.035v-.402h-.048v.403h-.047v-.502l.095-.025v-.174l-.06.004-.051-.755h-.274v.552l.012.402-.012.502h-.095v-1.92l.337-.071zm-1.106.004l.48.058v1.925h-.143V19.51l-.353.1.016.061-.286-.066v.42h.433v.115h-.433v.83h-.142v-1.933h.242c.107 0 .107.041.19.1v-.154h-.004zm3.295.53v-.003l.25-.054-.131.203c.294.15.052.1-.087.03v.132h.357v-.544h-.389v.237zm-24.914.246v.253l-.143-.05v-.2h.143v-.003zm25.223.402a.88.88 0 01.076-.232h-.459v-.749h.016v-.54h-.016v-2.665h.028v-.161h.559v.792h-.032v1.928h.016v.746h-.016v.643h-.008a.798.798 0 01.024.232c0 .004.127.216.142.253h-.142v-.1l-.139.058-.206-.253.158.046zm-20.516.05h.29c-.029.112-.013.15-.144.15h-.142v-.15h-.004zm20.084-.154h.095v.253h-.095v-.253zm-4.707.755c-.087.091.084-.087 0 0zm-.559-.759h.036l.04.257h.432c.13 0 .13-.025.242-.05v.706h-.385l-.028-.058.361-.204c-.028-.107-.008-.145-.143-.145h-.142v-.15h-.337v.15h.241v.1h-.329l.012-.606zm3.537.307h.77v.253c0 .116.031.15.142.15h2.26v-.353h.096v.253c0 .174-.084.07-.143.303h-2.308l-.02-.203-.028.203h-.674c-.023-.295-.095-.104-.095-.303v-.303zm-4.564-.705h.095v2.61h-.095v-2.61zm1.007 1.31c0-.22-.027-.107.096-.202v.203h-.096zm-4.87-18.87h.128v.64l-.127.066v-.705zm1.028.017l.067-.066v.734h-.067v-.668zm.222-.07h.127v.747h-.127V2.04zm-9.136 11.876l.166.377.103-.008.341-.091-.174-.054.301-.228-.737.004zM22.32 10.33l1.939-.481c2.236-.08 3.493.315 4.425.771l.08.07c-.944-.232-2.982-.85-4.29-.613l-2.309.415.155-.162zm15.89-8.72h.138v.258h-.139V1.61zm-.14.009h.076v.224h-.076v-.224zm-.349.029a.074.074 0 01.06 0v.265l-.06.058v-.323zm5.98 6.38c.167.02.416.108.583.186l-.016.776-.23-.037.016-.668-.353-.257zm-8.99.004l-.015.008.043.02.04.034.036.042-.012-.005h-.035l-.091.03-.008.107-.055.096.011.149-.055.137.091.15.036.082.099.013h.032l-.036.037-.04.029-.04.017-.043.004V8.92l-.103-.042-.087-.187-.02-.182-.008-.183.056-.17.09-.083.116-.041zm-13.16 2.364h.372v-.365h-.73v.345l-2.961-.191-.448.365 3.477-.067.29-.087zm7.18.262h.838v-.365h-.837v.365zm6.504-2.128l.103.273.218-.02-.265-.245-.056-.008-.285-.47-.12-.016c.108.15.147.41.088.693l.317-.207zm2.91-7.023l-.158.004-.004.348c-.127.021-.194.083-.266.191l.032.054.21.054v-.1h.143l-.004-.053 1.543-.021.04.162c.114-.005.28-.05.348-.158l-.008-.328c-.539-.045-.258-.394-.61-.767-.35-.37-.433-.141-.492-.892-.036.008-.06.012-.08.029-.035.15.052.274-.114.548-.282.224-.5.327-.58.929zm4.164 6.35c.17.13.195.556.032.801l.242-.058.186.2-.087-.511-.13-.407-.243-.024zm-.396.361l.357.034.008-.038-.08-.108-.004-.078-.071-.058-.044-.075-.087-.025h-.044.004l-.004.004.032-.041.032-.033.044-.021.063-.009.182.088.068.199.028.182-.028.183-.072.15-.09.099-.088.037-.063-.004-.04-.017-.028-.029-.028-.037h-.004.037l.139.025.099-.12.012-.15.016-.083-.35-.033v-.042h.005zm1.63-.22l.234.175.007.71-.253-.067.012-.817zm-3.938 2.054l-.008-.004v.004h.008zm1.804 1.352l-1.146.871v-.09l1.126-.814.02.033zm.032.307c-.091 0-.179.062-.238.166a.875.875 0 00-.107.42l.119.402c.063.103.13.182.222.182l.238-.166a.832.832 0 00.103-.419.843.843 0 00-.103-.419c-.06-.104-.143-.166-.234-.166zm2.875.884l.071.108-.008 4.43-.051-.249-.012-4.29zm-.762-.112v.937H43.4v-.31l-.056.057v-.1h.056v-.593l-.068-.004c-.158-.004-.313-.012-.46-.012h-.011v-.062l-.127-.063h.142c.75.013 1.503.063 2.249.137v-.186l.337.079v.145c.281.033.654.107.888.145l-.127.083c-.23-.033-.488-.07-.761-.1v.399l-.333-.025-.004-.411c-.314-.033-.643-.058-.972-.083a28.59 28.59 0 00-.599-.033zm-2.204 7.189h.11l.005 2.592h-.111l-.004-2.593zm2.978 1.87v-.298l-1.234.033v.299l1.234-.034zm.376-.298v.265l1.844-.128v-.17l-1.844.033zm10.949-7.99l1.225.672.02-.004v.013l.091.05-.095.004c-.012.116-.036.116-.187.132.004-.058.004-.095.008-.12l-.123.008-1.344-.709-.31-.03.255.262-.12-.004-.697-.27-1.25-.008v-.137c-.261 0-.51-.004-.769-.004l-.003-.684-1.345-.88.38.009 1.31.82h.015v.01l.008.003-.008.013.004.564 2.538.004.397.286zm-15.437-.435l1.36.228v-.017h.047l.008.183h-.047l-.012-.07-1.356-.204v-.12zm-.008-.104l1.09.187-.008-.004-.008-.005a.413.413 0 01-.13-.145.882.882 0 01-.116-.452l.036-.265-.258.033-.61.46v-.103l1.193-.855.024.05-.063.05a.28.28 0 01.222.025l-.159-.137.067-.063.766.718-.02.033-.393-.332-.11-.066a.881.881 0 01.114.452l.084.44-.155.162-.278.037 1.202.199.075.062-2.561-.415-.004-.066zm11.317 2.053h-.163l-.004.067-.063-.067h-.333l-.123.108h.095v.253c0 .116-.032.15-.143.15-.162 0-.115-.083-.214-.191l.111.236-.139.407h.242v-.15l.143-.203.325-.211.163-.146-.056-.149h.29l-.008.133.384-.133-.047.332-.234.12.36.013-.36.53.06.009.562-.71-.226.154-.06-.552h-.479a.182.182 0 01-.083 0zm4.774.353h1.463l-.091.104-1.372.012v-.116zm-3.307.286h4.27l-.063.116h-4.318l.11-.116zm-.075.274h3.116v.05h-3.116v-.05zm.46 4.356l.701.024-.055.17h-.646v-.194zm-1.765.02l.757-.037-.011.212h-.698l-.048-.175zm-2.375.004h1.197v.17h-1.197v-.17zm-.726-3.857l.389.402v-.012h-.389v-.39zm0 1.05h.389v-.54l-.381-.013-.008.552zm0 .63h.389v-.523h-.389v.523zm0 .643h.389v-.56l-.377-.013-.012.573zm.016.647l.389.012v-.614l-.39.025v.577zm.864-2.41h.195v.34h-.195v-.34zm.012-.618h.195v.34h-.195v-.34zm-2.752 2.87l1.666-.07v.095l-1.666.008v-.033zm.028.357l1.618-.07v.095l-1.618.008v-.033zm-.032.39l1.71-.058v.095l-1.71-.004v-.033zm2.47-.772l1.666-.07v.095l-1.665.008v-.033zm-.007.345l1.665-.071v.095l-1.665.009v-.034zm-.004.402l1.665-.07v.095l-1.665.008v-.033zm-2.415-7.956l4.306-.162v.212h-4.306v-.05zm0 .195h4.318v.054h-4.318v-.054zM33.67 8.586l.142-.14-.003.61-.14-.013v-.456zm-1.765 4.468l-.234-.406h-.46l.694.406zm-12.487-.029l.004-.091.678-.203-.257.157.122.038-.162.24-.004-.216-.297.137-.084-.062zM32.6 19.34l.127.012-.127.067v-.08zm0 1.087v-.939l.674-.104v.996l-.083.004-.083.004-.084.004-.083.004-.083.005-.083.004-.084.004-.09.017zm0 1.713v-1.561l.083-.004.084-.004.083-.005.083-.004.084-.004.083-.004.083-.004.083-.004v1.559l-.083.005-.083.004-.083.004-.084.004-.083.004-.083.004-.084.005-.083.004zm-.48-1.684v-1.15h.127l.234.025v1.094l-.043.005-.044.004-.044.004-.043.004-.044.004-.044.004-.043.005h-.056zm.088 1.767v-.195l-.088-.25v-1.169l.044-.004.044-.004.043-.004.044-.005.043-.004.044-.004.044-.004.043-.004v1.558l-.035.017h-.044l-.044.004-.043.004-.044.005-.044.004-.043.004.036.05zm-7.76-2.211c.043-.075-.306-.116.083-.145l.055.145h-.139zm-1.991-4.078h-.302v.112l-.333-.062v-.253c-.099.07-.182.211-.29.211l-.8.013.024-.39-.278.261c.087.191.095.606.29.606h.142v.203c0 .195.274.672.385.755l.19-.904.512.543h-.214l-.012.967c0 .14-.036.12-.167.161l.12.241-.354.232.012.531 1.638-.008.004-.066.733.041.175-.178v.203h.143c.11 0 .142.033.142.15v.024h-6.059v.054h6.063v.274c0 .166-.087.145-.241.15.015.07.04.136.067.203h-1.94v-.054h.1l-.1-.2h-.284v.2l.134-.038.103.096h-.226v.054h2.24c.052.124.104.244.104.344v.353a1.56 1.56 0 01-.266-.063 7.329 7.329 0 00-.952-.315 1.49 1.49 0 00-.158-.041c-.373-.092-1.146-.233-1.555-.233v-1.46c0-.153-.142-.166-.142-.352l.166-.237-.004-.498-.31-.473h-.241l-.016 1.9c0 .116.393.162.397.162l-.04.51-.1.145.04.336h-2.303v-.485c0-.182-.175-.162-.337-.203-.056.211-.096.087-.096.253v.435h-.142l.012-1.02.134-.116c.088.062.084.1.19.1h.243v-.503c0-.157-.088-.14-.195-.203l.052-.253h-.19v.203h-.096v-.203h-.142v-.104l.293-.004-.321-.373.047-.05.556.527c.281-.158.71-.328.721-.755h.143v-.253l-.658.017.57-.56.207.539-.075.605h-.19c-.183 0-.255.283-.445.357l.032.228-.167.274h.337v.145h-.337v.415l1.392-.062c0-.635.091-.357-.77-.357v-.145h.94l.036-.452h-.142l.142-.29v-1.876h-1.84c-.198 0-.412.117-.467-.016h-.448v.008l-1.107.062h-2.593v2.514h2.605v.1h-2.605v.402l.527-.012 1.21.008.087.257h.242c.028-.112.047-.203.19-.203h.048c.261 0-.02.17.337.203l-.004-.24-.198-.07.198-.192.008-.303v-.199h-.095v-.203c0-.166-.365-.415-.532-.436-.246-.033-.733 0-1.007 0v-.116h.813l-.056-.149.044.017.115-.183.33.311h.72v.05l-.622.05.242.307.19-.058c.112.157.19.079.19.253v.203h-.142v.253h.432v.083h-.432v.469c.155-.08.912-.154.912.1v.655h-.912l.004.236h-.301l.107-.236h-.385v.236H15.7l.158-.182h.338v-.15h-1.392c-.167 0-.33.166-.33.336h-.047v-.738h-.432l.031.203.016.535h-.143v-.286c0-.174-.035-.195-.047-.353h-.19v.64h-1.848v-.74h.928v-.252c-.088-.02-.48-.203-.48-.203-.167 0-.186.037-.337.05l-.095-.1v-.1h.095v-.116l.912.017v-.204c-.202.058-.083.1-.242.1h-.143v-.705h.242v-.091h-.242c.036-.453.179.074.242-.278l.083-.058.635.132v-.207l.19.058.008.187-.575.12v.137l.416.008-.281.701h.313l.214-.697h.195c.011-.157.047-.178.047-.352v-.552h-.38l.04-.162-.187.17-.54-.12.207-.166.456-.116.083.207.063.004.16-.419h-.243c.06-.09.095-.087.095-.199v-.705h-.19c-.198 0-.242.228-.238.444l.19.058-.15.025-.377.577v-.303l.036-.05-.083-.05v-.203c0-.158.087-.29.142-.402h-.143v-.154l-1.007.013-.817-.013v-.1h2.982l.044.154 6.356-.05v-.502l-.067-.079-.032-.132-1.407.02-.385-.012h-.432v-.017H17.7l-.012.316.04-.03-1.538-.02v-.046l1.296-.054c-.055-.083-.008-.1-.143-.1l-.047.005-1.872.033-.864-.037v.203h-.095v-.15l-.143.013-.77-.012v.253h-.337l-1.494.045-.14.108c-.3-.274-1.07-.091-1.443 0v.1h.29l-.194.954.119.004-.12.398.108.004-.107.3h-.48v-1.32c0-.137.024-.137.043-.261l-.15.058.04-.166-.171-.183-.246-.029.15-.02v-.137l-.48-.063c.211-.19 3.61-.149 4.228-.149 1.412 0 2.803-.1 4.294-.112l-.023-.05h2.034v.009h.71c.107 0 .107-.042.194-.104l.385.05.047-.038 8.458-.116v.1h.143l-.008.29-.047-.008-.143-.232-.084.004.135.27-.087.003-.091-.277h-.198c.067.103.142.136.142.273h-.297c-.111-.153-.345-.029-.472.025v-.303h-.242v.15h.143v.1l-.424-.005-.06-.249h-.08l-.015.303h-.095v-.303c-.056-.016-.131-.05-.143-.05-.111 0-.055.017-.19.05v.303h-.96v.398l.579.004c.13.046.214.166.246.357l-.004 2.51-.095.253h-.433v-.705h-.626v.717l-.452.009-.08-.411v-2.618h-.098v-.103c.122.062.864-.021.864-.25v-.149h-.527v-.045l.721-.004h.29v-.204l-.674.005h-.29l-.678-.013-.139.108c-.087-.062-.083-.1-.19-.1l-.095.009-.337-.009c-.14.005-.159.1-.29.1-.09 0-.032-.1-.19-.1h-.242v.1-.062l-2.256.012-.35.004-.182.005-.012.294v.514l1.805-.05v.544h-.004zm1.907 4.833v-.701h.238l.044.116.051-.021c-.008-.041-.02-.07-.028-.095h1.638l.072.145h.241a.72.72 0 00-.027-.145l5.075.066.064-.116h-2.824c.024-.03.04-.067.068-.104h-.333v.104H26.58c-.032-.087-.083-.154-.147-.154-.08 0-.143.03-.143.1a.25.25 0 00.008.054h-.65l-.028-.054c.044-.025.095-.033.095-.1 0-.045-.051-.1-.095-.1-.083 0-.166.158-.218.258h-.738a.633.633 0 01-.008-.104v-.15h-.289v-.372h1.848l.028.224h.234l.04-.22h.447c.012.19.06.215.286.224v-.224l4.425.066.032-.116H27.25v-.025h-.194l.003-.166.381.116v-.551l-.809.004-.051.128.147.183.233.27v.024h-.436l.004-.024-.297-.005.15-.186.262.087-.162-.444h-.96c.06.091.095.087.095.203 0 .212-.178.083-.254.278l.821-.087.02.174h-1.646v-.108h.619c.111 0 .19-.05.19-.17V18.9l-.19-.203-2.252.05c.012-.158.047-.179.047-.353l-.012-.1.012-.402-.012-.15.012-.402v-1.41h-.016v-.552h.016v-.203h1.467c.147 0 .31.15.31.303v2.617c0 .2-.19.154-.19.353v.15h4.516c.127 0 .143.074.17.107h-.003l-1.488.041h-.075c-.19 0-.147.25-.19.453l.265.024H29l.261-.078.286.079h1.733l-.155-.523h-1.657c.047-.162.075-.108.325-.108l.19-.1v.1l.48-.025.77.025.289.705h.329v1.46h-7.487v.009zm-.54-4.692l-.059-.133.04-.419-.182-.02v.572h.202zm-.035.888c.02-.262.04-.523.044-.788h-.21v.788h.166zm-.024-1.585l.143.042.004 2.078h-.147c0-.15.008-.299.016-.444h-.158v.083h-.092v-.083h-.19c.016.415.008.888-.127.987v-2.667h.095v.693h.222v-.585l-.166-.02-.008-.092.408.008zm14.47-3.103h-.024v-.312c0-.091-.016-.07-.103-.07h-.278c-.138 0-.17-.038-.17.112v.235h-.032l-.028-.091v-.045.008-.086c0-.183-.539-.183-.539 0v.128c-.012.037-.012.066 0 .091v.021h-.064v-.24c0-.158-.048-.112-.195-.112h-.436v.07a.564.564 0 000 .182v.108h-.063v-.202a.213.213 0 000-.113v-.054c-.183-.029-.393-.033-.508 0h-.08v.356h-.058.044v-.04c0-.046.012-.088.012-.133l-.012-.021v-.162h-.631v.349h-.065v-.349h-.375c-.122 0-.23-.054-.23.091v.258h-.064v-.249c0-.137-.075-.091-.194-.091h-.397c-.06 0-.04.037-.04.09v.258h-.011.023-.047v-.041.017-.055.013-.054.012-.054.013-.054.012-.054.013-.054.012c0-.1.016-.083-.115-.083h-.516v.415-.124.107-.398h-.127v-.045.004-.017h.128v-.075.009-.042h.063v.129h.516l.114-.05v-.029h.044-.06.016v.029c0 .042-.012.05.04.05h.397c.055 0 .194.033.194-.033v-.042h.063v.042c0 .066.175.033.23.033h.397v-.091h.063v.066h.036c.174.012.345.017.52 0h.035-.008v-.066h.064v.066h.586v-.066h.064v.066h.436c.04 0 .194.02.194-.02v-.047h.064v.05c0 .034.539.034.539 0v-.049h.064v.049c0 .042.13.021.17.021h.214-.016.036c.047 0 .103.025.103-.029v-.05h.064v.042c0 .054.483.029.53.029.084-.004.148.054 0 .058-.078 0-.53-.02-.53.07v.224c-.012.05.011.083-.048.083zm16.991 8.612h.492v.514h-.492v-.514zm-1.677-.004h.492v.514h-.492v-.514zm-1.792.016h.491v.515h-.491v-.515zm-17.59-1.572l4.667-.037-.04.104-4.628-.017v-.05zm-22.405-3.04h.484v1.385h-.484v-1.385zm17.73-2.116l-20.68.498c-.067 0-.067-.125-.004-.125l20.68-.497.003.124zm15.175-6.239c.063.141-.107.262-.27.257-.004-.29-.139-.423-.373-.522-.214.054-.127.074-.142-.025l-.004-.02v.012c-.805-.175-2.44-.258-3.347-.253v-.1c.702.087 3.882.029 4.136.651zm-9.874-.157l.496-.063c-.004-.004-.004-.008-.008-.016l.333-.033c-.004.004-.004.008-.008.012l.13-.012V7.65l.322-.029v.013l.032-.005v-.012l.063.004c.187-.016.389-.016.571-.045.083-.005.17-.013.254-.017.325-.02.377-.025.71-.037l.337-.15c.004.03.087.108.09.129.413-.017.723-.02 1.127-.025a3.65 3.65 0 01.678 0c.12 0 .234.004.353.004l-.044-.133c-1.058-.008-2.506-.09-3.485.083l.202-.14a47.706 47.706 0 013.347-.055l-.107-.116-.773-.016-.096-.1.016.154-.158-.104c-.337 0-.571.029-.908.012v.058h-.242l.008-.058-.147-.02.317-1.701c-.206.44-.373 1.31-.46 1.742l-.484.037c-.138 0-.067-.033-.127.05l-.753.046-.29.012v-.253c0-.216.124-.713.322-1.182.25-.58.603-1.066.916-1.257-.028.025-.032.054.008.066-.218.12-.536.573-.71 1.054l.063.307c.076-.307.108-.386.226-.568l.464-.195.111-.054.179-.336.008.207-.103.145c.273 0 .182-.016.293-.244l-.099-.2c.242-.02.186-.099.29-.302l-.19.1c.015-.204.11-.34.21-.486.035-.05.328-.357.316-.37h-.114l-.393.374-.024-.178c0-.145.016-.091.095-.15l.024.1c.107-.058.167-.108.167-.253-.004-.577-.052-.655.579-.655h.769c.13 0 .13.024.242.05.024.294.095.103.095.302v.452l.337.15-.238.506a9.28 9.28 0 00.325-.469c.94.224 2.15 1.398 2.316 1.88l-.278.099v.103l.37-.157c.146.298.384.68.483 1.265l.056-.2.106.246c.195.008.385.033.58.082l-.044.233c-.849-.166-1.804-.253-2.72-.299-.19-.693-.385-1.236-.452-1.36-.068-.13-.008.182.3 1.368l-.618-.012.143.153-.11.187c.078.025.241.008.352.03 1.503.045 2.784.178 3.45.397l-.004.009c.028.02.032.074.024.178l-.35-.124.048-.013c-.031-.008-.06-.016-.09-.02a.057.057 0 00-.013.016l-.52-.095.013-.017-.02-.004.008.02-.266-.057c-.048-.005-.095-.013-.143-.017l-.329-.037h-.02v.004c-.103 0-.146-.013-.277-.013l-.373-.016c-.012 0-.29-.004-.278-.03l.028-.012c-.047-.004-.091-.004-.139-.008l-.031.029h-.29l-.004-.046-.115-.004a3.29 3.29 0 00-.23.22h-.103c.06-.062.139-.137.23-.224-.531-.02-1.094-.025-1.673-.02-.052.003-.103.008-.155.012a10.32 10.32 0 00-.523.058c.032-.02.063-.042.103-.062-.1.004-.198.004-.301.008l.011.075-.127.004-.126.004-.127.004-.127.004-.516.017-.17-.062c-.179.012-.361.02-.54.033-.46.033-.915.074-1.352.124-.531.058-1.035.133-1.502.216h-.005l-.004.373c-.392-.008-.705-.162-.48-.402.072-.1.917-.228 1.46-.257zm4.215 2.111h.139c.036-.041.107-.033.21-.037l-.008.037.298-.004v-.133l.023-.124-.598.012-.131-.029-.064-.037v.278h.095l.036.037zm-.273 0h.047v-.19h-.095c.028.14.044.09.047.19zm-.163.004h.063V9.7l-.19-.059c-.032.058-.052.063-.052.108.005.083.088.125.179.141zm-.726 0l.44.004-.003-.012-.032-.286-.194-.042.003.245c-.154-.108-.214-.295-.29 0l.076.091zm-.055.004c-.036-.128-.103-.244-.214-.244l-1.491.045V9.09c0-.195.071.045.095-.253l1.768-.083.75-.009V8.69l-.155-.033-.15-.1-.14-.335.04-.183.104-.15.15-.099.187-.07.083.008.075.054.072.033.063.042-.004-.005h.004-.123v.258l.06.074h.265a.528.528 0 00-.273-.435l.241.004.286.469-.075.44-.29.057-.035-.09a.493.493 0 00.146-.353h-.33v.302h-.047v-.302h-.238v-.088h.237v-.331l-.107-.005-.218.15-.13.037.07.137.029.278.182.075.15.07.124.025h.067-.008l-.063.037-.068.03-.06.012v.058l.726-.008c0 .095.088.149.143.149.163 0 .131-.062.095-.15.801.009 1.598.034 2.4.075v.108l.114-.145.163.091.587.013c.139 0 .099.074.127.137l-.127-.009v.133l.04.041.182-.19.02-.112.29.058.003.34.302-.179-.207-.024v-.15h.096v.1h.095v-.1l.095-.058.02.158c.527.074 1.205.286 1.57.469l.028-.15.107.203c.487.183.678.312.916.54-.884-.158-1.876-.245-2.93-.324V9.4h-.096v.352h-.432l.016-.452h-.064v.452c-.987-.037-1.633-.128-2.545-.079l.079-.062-.052-.05-.09.092h-.227l-.024-.1c.008-.012.072-.025.056-.045-.103-.154-.139.195-.369.195h-.143l-.055.153a26.51 26.51 0 011.69.004.127.127 0 01-.029.017h.17v-.021l1.492.1v.103h-.19v.1h.095l-.096.1c-.079-.312-.214.062-.337-.254-.226 0-.297-.074-.48-.05l-.392.042v.004h-.044l-.047.004v-.004l-.52.004c-.265.092-.59.191-.674.2v-.009l.175-.15-.008-.037h-.194l-.024.05h-.151a.163.163 0 00-.012-.045l-.464.004-.004.008-.016-.008-.797.008-.035.033h-.115c.051-.066.055.042.055-.033h-.127c-.008.008-.012.017-.02.025l-.099-.025-.29.004.013.013-.203.008v.004h-.047v-.004l-.056.004h-.138v-.02h-.092v.02h-.083l-.04-.02h-.118c-.012.02.04.012-.096.012a.081.081 0 01-.047-.013h-.091l-.004.013h-.19c-.112 0-.124-.017-.191-.05-.127.066.04.05-.143.05-.123 0-.047-.033-.242-.05v.1l-.242-.1v-.07l1.559-.034zm1.324 5.028h.226v2.485l-.226-.067v-2.418zm-7.954-1.016l.369.273-.385.042v.05c.139 0 .555.058.595-.063.04-.116-.21-.1-.008-.166.214-.074-.1.042.202.096l.143.253.047-.004.08-.17.19.058v-.15l.178.034.004 1.045h.944l.02-.63h.178l-.008-.013h.127c0 .15.004-.004-.055.075l.055.041c.008.008.036-.046.068-.116h.602l-.02.012c.195.005.64-.012.774 0 .174.017.278.013.34-.012h.413v.012h.23v-.012h.528l.051.012h.714l.024-.012h.491l.556.012v-.012h.103l-.004.012h.384l.036-.136h-6.055l-.214-.08h6.293l.024-.082h-6.531l-.064-.054h6.666l.21-.27-1.023.009v.012h-.044l.016-.012h-.424l-.02.012h-.13v-.017l-1.515.017h-.12v-.037h-.146l.004.037h-.404l-.005-.037h-.118v.037h-1.099l-.103-.05v.05h-.702l-.02-.037-2.442-.03zm.928-.465l.103-.004-.322-.17-.007-.004c-.199-.104-.46-.245-.714-.378h-.702l-.155-.124.016.124h-.606l-.009-.718h-.134l.027.718h-.67l-.174.232c-2.11.054-5.619.112-7.95-.46-.155 0 .031.203-.18.265l.104.146h-.23l-.04-.08.187-.153-.028-.054-.579.216.206-.133v-.149c0-.162.206-.22.337-.253v.1h.123l.012-.677.516-.277.043.153-.488.249.016.058.452-.187v.473h.627v.15h.095v-.142h.527v.15h.096v-.15l.444-.004c.194 0 .004.038.08.096.086-.063.082-.1.19-.1h.336l.028.158.02-.158.103.004-.047.096 1.439-.03c.147 0 .123.05.15-.066l.83-.012v.15h.241c.131 0 .131.024.242.049l-.091-.187.983.005v-.2h.627l.008.2h.139l.043-.25.17.067.762-.008-.004-.361.658.012v-.257c-1.705-.788-3.263-1.32-4.932-1.298-2.233.025-3.82 1.12-5.774 1.875l.13.12c.46 0 .532.07.596.336l-.159-.158-.31.058.151-.153-.329.12v-.104l-.103-.012.103-.087-.198.004.103.15-.19-.059c-.04.104-.131.141-.195.216l-.222-.17-3.093 1.323 3.03-.037-.048.02.353-.008.02-.016.674-.009.258.05.143-.054.087-.004.214-.004-.004-.004.48-.013-.072-.041h.587l.008.029.056-.03h.38c0 .005 0 .01-.003.013h.19v-.012h.159v.004h.19v-.004h.345c.983-.025 1.967-.05 2.95-.07.075 0 .095-.013.107-.038h.179l-.056.033c.678-.02 1.352-.033 2.03-.05.127-.008.179-.062.262-.132l.032.14.305-.12.024.1 1.249-.017c0 .017 0 .034-.004.05h.226l.02-.05h.345-.004l.055.046h.084v-.05h.095v.05h.186c-.004-.008-.008-.016-.016-.025l.004-.025 1.452-.008zm-17.38-2.593l1.927-.128v.303l-1.678.128-.25-.303zM9.47 20.153v.008h-.242v-.017c.084 0 .163.005.242.009zm16.857 2.12l5.389.062.032-.116h-5.473a7.195 7.195 0 00-.832-.68l6.015.061.032-.116h-6.127l-.241-.162c-.258-.182-.516-.336-.702-.394l-.052-.024v-.083l7.49.066v2.666h.254v-.463l-.031-.083.031-.224v-.463l.044-.004.044-.004.043-.004.044-.004.044-.005.043-.004.044-.004.043-.004v.631l.064.186-.056.133.004.162-.012.14h.127v-.787l-.012-.125.012-.19v-.158l.083-.004.084-.005.091-.033.08.021.083-.004.083-.004.083-.005.083-.004c.044.274.02.519-.051.83l.051.158v.331h.217l.262-.008-.158-.348h.103v-.98h5.714l.04-.136-5.754.091v-.684h5.095l.048-.125-5.135.083-.008-.672h5.698l.02-.083-5.71.05-.008-.71 5.42.05.02-.103-5.44.02v-.709l.265-.041.147-.129-1.891.013-.294-.05-.337-.042.008-.058h.385v-.1h.384v-.099h-.816l-.052.249-.056-.174.056-.228c.456.112 1.146.107.722-.556l.138-.046.064.15-.008-1.257c0-.125-.167-.1-.29-.1v-.05h.29v-.954c0-.112-.04-.112-.095-.203h.095v-.253c0-.154.047-.203.095-.315l-.385.062v-.15c0-.153-.023-.182-.059-.31l.163-.15-.131-.029-.123.137-.044.29h-.143v.299h.1l-.032 2.605c-.02.083.012.112.075.116.131.008.147-.178.194-.286l.159.054-.107.228-.143.017-.02.46-.15-.373-.167.369-.19-.013h-.278v-.742h-.563v.742h-.408l-.282.013-.004-1.1c0-.165-.08-.037-.15-.057-.052.232-.155.277-.242.452-.123.249 0 .344-.345.348l.055-.299c.302-.008.5-.352.385-.605h.29v-.904c0-.137-.024-.137-.048-.254h.095c-.04-.476-.178-.26-.337-.506.159.038.29.187.29-.05l.114-.024.072-.183 1.51.013v-.432h-2.26l.187-.228h.805c-.004-.211-.032-.639-.167-.713h-.65v-.067c-.111.112-.317.1-.666.129l-10.794.228h-.353l-3.795.07-3.232.212H8.942v-.091l1.392-.158v-.153l.107.004-.056.15.028.045.353-.299c.198.1.313.12.333-.133l-.436-.062.008-.054c-.131 0-.337.034-.337-.1 0-.115.031-.149.143-.149h.289v.204h.432c.107 0 .107.041.183.083l.154-.083c.111.029.143.05.29.05.182 0 .186-.125.527-.1v-.203h.095l.016.282.194.12.02-.041-.135-.312h.338l-.005.378h.096l.004-.361h.309l-.19.245.055.087c.163.091.488-.813-.174-.904-.262-.038-.405.045-.575.203l-.012-.125-.23.117-.532-.092v.204l.242-.009.337.008c.123-.004.048-.016.19-.05v.204h-.142v-.1l-.04-.041-.198.307v-.203l-1.106.008v-.12h.674c-.032-.15-.072-.253-.242-.253-.167 0-.075.103-.238.09l-.33.005-.102-.145c.06-.033.051-.05.143-.05l.912-.012 3.893.062v-.03l-1.871-.124h-.674v-.1l.769.013 2.697-.062h.047v-.091l-2.938-.062-2.93-.021-1.59.033v-.236l1.205-.137v-.195h.337v.199c.206-.03.23-.37.424-.726.25-.46.79-.933 1.25-.996-.35.34-.917.739-1.095 1.573l.281-.005-.067-.435.94-1.079.32-.004-.17.232.468-.273v.149l.139-.004.056-.2h-.433v-.203h.143v-.149h.29v.15h.142v.203c-.238.083.064.22.179.253l-.036-.253c1.043.157 1.451 1 1.542 1.194l1.785.017c.135.004.238.029.238.091l.004.963h.246l-.024-1.095h-.143v-.212h.143v-.552c-.25-.087.163-.15.29-.15.106 0 .106.042.19.1l-.008.818h-.088v-.818h-.289v.706l.325.34.004.867h.139l.016-.871 1.681.016.075.133c1.88-1.112 3.609-1.61 5.298-1.626 1.674-.02 3.303.427 5.005 1.211v-.352c-.044-.034-.73-.17-.806-.216l-.04-.02-.039-.022-.04-.02-.04-.021-.039-.02-.04-.022-.04-.02-.039-.021h.722c.06.15.238.15.432.15h.095c.155 0 .036-.046.242-.1.016.215.028.195.238.203l.012.697.33.004v-.095h.142c-.032-.063-.048-.054-.048-.15v-.253h-.142c.031.137.055.008.055.112 0 .195-.024.133-.127.237l.028-.473 1.047.124-.04-.199-.329-.095.285-.112v.103l1.682-.302v.1h.242l-.004.09-.167.059.008.194c-.733-.016-.908.25-1.618.009v.203l.02-.058c2.022.904.317.485.317.46h-.142c-.131 0-.131.025-.262.017l.159-.104-.381-.162v.15l.246.029-.151.02v.1h.055l-.007.15-.496.65.119.009.119.008.119.009.119.008.119.008.119.008.119.009.119.008.119.008.118.009.12.008.118.008.12.009.118.008.12.008.118.008 4.862-.062 2.32-1.817c-2.019-.12-4.005.092-5.968.241l-.1-.079-.245.037-.056-.298.068-.033-.056-.12h.143v.149c0 .153.055.14.186.149l.087-.253 1.218-.054c.218 0 .373-.108.444.017h.15c.028-.038.06-.058.127-.058h.143c0 .02-.016.116-.02.132l.27.017.071-.112 3.252-.037.127.05.15-.038 1.051.041.964.013.623-.062c.015.074.011.149.095.149.107 0 .107 0 .19-.062.218.083 1.554.137 1.923.211v.312c-.892-.12-2.002-.25-2.978-.262h-.242v-.054h.385l.19-.07.048-.017-.73-.058.06.2h-.48v.111h-.17l-.35.232.425.005c.166 0 .273.232.337.356l.19-.058v.15c0 .182.15.248.337.253l-.04.037.889.863-.012.186-1.69-1.663-.182.125-.523.004-.12.066.572-.008-.246.195-.57.004-.128.079.58.004-.552.369c-.068-.037-.08-.05-.19-.05h-.143c-.175 0-.17.058-.337.1v-.1l.035.038.19-.204-.07-.091.186-.095-.044.17.325-.224c-.166 0-.674-.067-.674.1 0 .115.016.057.044.186l-.278.108c.032.062.036.062.036.157l-.036.183h.084l.087-.212.773-.02-.174.1h-.603v.202c0 .141.035.12.143.15l.004.987.563.133.134-.162h-.241v-.058l.19-.033.004-.44 1.729.307.19.166.305-.013-.119-.149.04-.02.496.43-.528-.144-.352.12-.008-.141-.357.087-1.337-.622.004.373 2.586.813.178-.025.004.452-.222.03.187.207.04-.033-.1.199h.19c-.04.178-.095.236-.095.452v.655h-.143c-.174 0-.142-.128-.146-.298l.146.045c-.06-.091-.095-.087-.095-.203v-.303h-.142c-.147 0-.19.15-.19.303v.15h-.144l-.008 6.433.678-.004-.158-.477-.08-.004v-2.879h.096l.004-.24.142-.059-.027-.265.075.166c.198-.054.19-.278.242-.498l-.488.145.052.208-.179-.046-.142.15-.048-.05.19-.204.036.038v-.253c0-.117.032-.15.143-.15h.19l-.036-.037.19-.203.036.037v-.1h-.142c0-.638.04.013.139-.394l-.14-.058v.158l-.134-.067-.048-.033-.154.125.004-.307.337.02v-.302c0-.191.09-.27.162-.42l.825-.003-.17.676h-.58v.1h.143v.754h-.242v.104l.238-.054v.755c-.13-.033-.09-.05-.19-.05-.071 0-.071.062-.095.1h1.059l.011.17.183-.12.238.053v-.1h-.143v-.148l.111-.005-.11-.398c-.128.033-.092.05-.191.05-.028 0-.1-.07-.143-.1v.502H43.5v-.705h.337c.13 0 .13.025.242.05a.454.454 0 00-.385-.203h-.19l-.004-.452c.31-.009.186-.03.29-.253h.48c-.06.09-.096.087-.096.203v.203h.095v-.15h.06l-.012.353-.147.013v.29h-.095l.004.108.238-.108v-.15l.087.005.067.207.147-.178-.202-.187c.099-.041.143-.103.143-.253 0-.12-.095-.224-.143-.303.107-.024.139-.066.242-.062l.432.062c0 .855.1.523-.29.805h.29v.755h.19v-.755h.242l.008.739.29.112-.108-.146.005-.904v-.655h.384c.111 0 .083.033.083.149v1.547h.159v-2.55l-.111.032v.855c-.036-.075-.048-.083-.178-.083h-.337v-.502c0-.116.031-.15.142-.15.131 0 .131.026.242.05v-.1h-.242c-.11 0-.142-.032-.142-.148v-.606l.412.008.214.548v-.548h4.053v-.116h-4.053v-.187h2.45v-.352l-2.45-.058.004-2.423.297.174v.789l1.495.398.028-.295h.095l-.008.316.54.161.008-.253-.203-.174.706-.017.206.067.004-.12.234.12h.48v-.05h-.432v-.05h.527l.052.253h-.143v-.1h-.575v.154l.238-.054v.067h.385v.083h-.96v-.05h.242c-.028-.332-.087-.125-.337-.253v.1l-.286.028.008.3 1.206.397h1.114l-.048-.033.028-.046.195.071.138-.104.155.042.119.074h.555l-.008-.22h.139l.055.104c-.202.07-.04.1.048.1h.337v-.104l.143.1h.432l-.071-.063-.17-.037v-.05l.49.166-.003-.17h-.389l-.008-.05.4-.004-.003-.298-3.442.008.016-.091h3.759v.074l-.159.013c-.146 0-.119.157-.13.298h.432v-.103h.142v-.096l-.142-.058h.142v-.095h.865l-.048.02.147.332h-.143v.05h-.682v.116c0 .054.044.054.155.054h.682l-.012-.22.452-.012-.004-.344h.056c0 .622.281.149.46.402l-.456-.012.008.182h.496l.19.232v-.149h.19c.222 0 .099-.199.202-.419l.178.108.195-.042v-.149h-.143l-.063-.087-.278-.141.163-.116.103.112-.008-.054.912.477-.008.116.095-.054.143.05v.12h-.143v.482l-.912.004-.067-.12-.032.008.119-.399c-.19.054-.19.39-.206.602h1.72l-.02.05-.697.186-.19-.012.166.124v.05h-.143l-.016.033.112.32h-.096v-.1l.048-.054-.127-.037-.111.282.194.062-.051.1-.048.1v.298h-.095l.012.133.194.116-.063-.2.051-.099v-.352l.096-.1v-.05l-.056.407.103.145.032 4.011h-7.915v.108h7.915l.016 1.88-4.105-.022 3.01.751.004 3.369h2.947v10.47c-5.635.302-12.063.277-17.956.24-1.035.02-1.225-1.14 1.075-1.05h6.011c-1.578-.128-2.867-.82-3.846-2.127-.853-1.166.17-2.61 1.17-1.249l.317.44 1.317 1.82c.543.735 1.272 1.088 2.085 1.112h3.87a2.649 2.649 0 01-1.99-1.099l-2.653-3.658a2.539 2.539 0 00-2.062-1.067h-4.084c.809-.016 1.451.287 1.978.834.73.76-.515 1.635-1.308.996l-1.348-1.863c-1.808-2.497.702-5.55 3.28-5.347.808.063 1.768.116 3 .266l-.308-.41h-8.756l-.222.41 1.507-.22c2.99-.436.638 3.808-.924 1.958-1.043-1.423-2.562-2.062-3.985-2.062h-7.844l.746 1.033h.012l5.349 7.355c1.277 1.477 2.875.348 1.725-1.261l-3.66-5.053c-.968-1.248-2.296-2.099-4.176-2.074l-.98-1.489a9.259 9.259 0 00-.927-1.054zM8.855 20.16v.008H5.75c-1.09 0-2.257.486-3.054 1.577l-1.292 1.783h5.864l1.285-1.771c2.209-2.891 5.131-.684 6.833 1.61l1.376 1.9-.032-.005 6.967 9.674c1.253 1.568 2.895 2.518 5.095 2.567h2.84c.567.013.848.229.579.764-.893 1.298-2.645 2.804-7.332 2.26l.618.411 12.435.03c.16-.395 1.333-1.992 2.015-2.9.468-.623.484-.556 1.245-.556 6.928-.004 17.004.004 23.808-.05L61.26 42H24.19L12.13 25.685 0 25.681l.004-4.567h1.293l.384-.15v-3.069l.103-.303h-.293l-.048-.05-.48-.05-.047-.049v-.303l.048-.05.29-.05h.526l-.047-.302-.095-.15v-.149l.769-1.257h.48l.047.05v.203l-.04.05.02.008 2.28-.025v-.186l.572-.216.027.116 3.05-.05v.254c0 .066-.107.112-.27.136l-3.866.063-.23.211.047-.207-.329.058-.043-.108-.405.29.056-.24H3.56l-.06.298.25.005-.218.696-.115-.05-.004.113c.54-.013.377-.477.674-.706l-.29.656c.516-.013.263-.282.576-.502l-.115.344c.448-.033.543-.7.595-.647l.055.042-.254.506c.353-.025.532-.502.536-.498l.055.041c-.115.17-.127.411-.174.44-.12.079-.048-.046-.234.116-.159.137-.076.174-.127.009l-.167.27-.027-.167-.207.133c-.123-.012-.067-.029-.178-.029-.12 0-.409.1-.432.203h.19l.385-.012c.142.012.063-.245.142.012l.714-.46-.488.444.028.05.389-.191h.035l-.162.149.305-.075.179.104.008-.17h-.096l.1-.2-.147.046.055-.195h-.15c.04-.178-.004-.402.242-.402h3.556v.909h.048v-.407h.08v.552h-.128v.605h.048v-.402h.08v.552h.063v.149h.242c.17 0 .186.12.19.303h-.095v.15l-.012.401.012.353c.004.133-.06.075-.095.17H9.08v.083h.384v.788h-.242v-.336c0-.286-.241-.381-.241-.551v-.656h.241v-.05h-.317v1.59h-.123.123v.016h-.051v-.021zm40.157 10.076h4.084c.738 0 1.523.328 2.062 1.066l2.653 3.659a2.652 2.652 0 001.99 1.099h-3.87c-.813-.025-1.542-.382-2.085-1.112l-1.317-1.82-1.317-1.822c-.515-.651-1.209-1.09-2.2-1.07zm-9.684 7.276l-5.59-.009c-.675.05-1.202.68-1.274 1.365-.055.813.353 1.713 1.563 1.784 2.918.062 4.473-1.477 5.46-2.58.214-.307.642-.556-.159-.56zm.916-.569c.694-.253.904-.755-.087-1.074-1.011-.311-1.911-.942-2.64-1.925-1.246-1.228-2.13 1.452-.699 2.593 1.07.854 2.383.788 3.426.406zM51.28 16.265h-.416v.166l.027.253-.027.216v.232l.027.307.016.261-.043.224v.373l.031.233v.697l-.055.215.023.253-.02.253-.154.034v.24h.82l-.063-.24-.142-.013-.024-3.704zm-.413-.133h.413v-.253h-.103v-.249h-.095v.25h-.334c.012.012-.003.04.012.045.056.037.1.112.108.207zm1.872-.054l.369-.041.02-.162-.425.004v.145l-.04.013v-.349l.167.038-.11-.233.186-.157h-.143c.047-.606.654-.411 1.19-.411l-.143-.095-1.063-.005.04-.09-.17.003-.028.092-.42-.013.019.208.297.161-.004.975c0 .125.14.174.226.179l.064.306-.068.154v.684l.032.187-.032.274.04.485-.04-.025v.229l.016.29-.016.17.103.265-.04.22.04.237-.106.195h-.16v.22h.758v-.22l-.142-.046-.005-1.448h.663v1.46h.127c0-1.642.448-1.671-.79-1.791v-.814l.623-.033v.021h.127v-1.622h-.127v1.332h-.623v-.71h.548v-.1h-.547v-.09h-.393v-.092h-.02zm1.61.083h.472v-.29l-.436-.067-.183.075.024.125.123.157zm.476.125l-.46-.034.083.693-.055.216v.771l.04.312-.04.199v.257l.023.369-.027.145.067.299.052.257-.123.216-.159.025-.024.22h.183l.412.053.183-.053v-.03h.09l-.007.03h.833v-.2h-.345v-.008l-.575-.004h-.143l-.004-1.493h.468v1.107h.127V18.24h-.127v.021h-.468c-.004-.697-.004-1.29-.004-1.974zm.155.858v.266h.305l.127.02v-1.393h-.127v1.107h-.305zm-11.278-4.521l.464.037v.54h-.464v-.577zm-.028.697h.496l-.016.605-.48-.029v-.178l-.138-.046v.1h-.143c.047-.191.075-.15.281-.2v-.252zm.072.746h.464v.577h-.464v-.228l-.115-.037-.092.053-.146-.053v-.1h.353v-.212zm0 .697h.464l.008.714-.472-.137v-.17l-.365.199.88.24-.147.552-.844-.004.032-.328-.155-.033.004-.369.155-.058-.107-.091.162-.295.008-.299-.214.042.055-.158.353-.066-.008.664.195.004v-.407h-.004zm.78-2.074l.465.046v.53h-.464v-.576zm-.019.664h.464v.577l-.464-.021v-.556zm-.012.7l.464.03v.547h-.464v-.576zm0 .665h.464v.73h-.464v-.73zm2.316-2.186l4.203-.005.056.104h-4.26v-.1z" fill="#5A061F"/></svg>