<svg display="none" xmlns="http://www.w3.org/2000/svg">
  <symbol id="logo" viewBox="0 0 146 39">
    <path d="M1100.16,79.674a1.107,1.107,0,0,0,.62.387l48.04,9.8a1.144,1.144,0,0,0,.91-0.212,0.886,0.886,0,0,0,.31-0.8h0l-6.25-37.079a0.991,0.991,0,0,0-.45-0.645,1.35,1.35,0,0,0-.97-0.051l-35.19,14.05a0.909,0.909,0,0,0-.51.452c-0.17.325-6.49,13.076-6.58,13.257A0.805,0.805,0,0,0,1100.16,79.674Zm45.58,6.436-20.05-11.145,10.34-2.159Zm-37.69-18.883,12.52,6.983-17.83,3.715Zm1.66-1.172,31.53-12.587-5.56,17.587-12.37,2.584Zm37.65,18.995-9.78-13.4,4.91-15.52Zm-3.88,1.9-38.05-7.761,17.52-3.65Z" transform="translate(-1100 -51)"/>
    <text kerning="auto" font-family="Myriad Pro" fill="rgb(0, 0, 0)" font-size="36px" x="63px" y="31.641px"><tspan font-size="36px" font-family="Rubik" fill="#436372">Glee&#46;</tspan></text>
  </symbol>

  <symbol id="cart" viewBox="0 0 18.94 16.969">
    <path d="M1721.53,85.978a2.073,2.073,0,1,1,0-4.147h0a2.056,2.056,0,0,1,1.46.6,2.03,2.03,0,0,1,.61,1.466A2.071,2.071,0,0,1,1721.53,85.978Zm0-2.963h0a0.889,0.889,0,1,0,.34,1.71,0.9,0.9,0,0,0,.55-0.824,0.92,0.92,0,0,0-.26-0.629A0.9,0.9,0,0,0,1721.53,83.015Zm8.39,2.963a2.045,2.045,0,0,1-1.46-.607,2.068,2.068,0,0,1,1.46-3.54h0a1.953,1.953,0,0,1,1.47.6,2.085,2.085,0,0,1-.67,3.383A2.093,2.093,0,0,1,1729.92,85.978Zm0-2.963h0a0.978,0.978,0,0,0-.82.548,0.887,0.887,0,0,0,1.16,1.161,0.891,0.891,0,0,0,.29-1.452A0.9,0.9,0,0,0,1729.92,83.015Zm-11.27.164a0.562,0.562,0,0,1-.25-0.056,0.59,0.59,0,0,1-.29-0.787,3.686,3.686,0,0,1,3.05-2.151l-1.05-5.391a0.591,0.591,0,1,1,1.16-.228l1.09,5.578h9.43l1.8-6.771h-13.3a4.346,4.346,0,0,1-4.28-3.693,0.587,0.587,0,0,1,.49-0.673,0.6,0.6,0,0,1,.68.5,3.159,3.159,0,0,0,3.11,2.682h14.07a0.582,0.582,0,0,1,.47.232,0.594,0.594,0,0,1,.11.513l-2.13,7.956a0.59,0.59,0,0,1-.57.44h-10.36a0.03,0.03,0,0,0-.02,0,2.66,2.66,0,0,0-2.68,1.51A0.586,0.586,0,0,1,1718.65,83.178Z" transform="translate(-1716 -69)"/>
  </symbol>

  <symbol id="heart" viewBox="0 -28 512.001 512">
    <path d="m256 455.515625c-7.289062 0-14.316406-2.640625-19.792969-7.4375-20.683593-18.085937-40.625-35.082031-58.21875-50.074219l-.089843-.078125c-51.582032-43.957031-96.125-81.917969-127.117188-119.3125-34.644531-41.804687-50.78125-81.441406-50.78125-124.742187 0-42.070313 14.425781-80.882813 40.617188-109.292969 26.503906-28.746094 62.871093-44.578125 102.414062-44.578125 29.554688 0 56.621094 9.34375 80.445312 27.769531 12.023438 9.300781 22.921876 20.683594 32.523438 33.960938 9.605469-13.277344 20.5-24.660157 32.527344-33.960938 23.824218-18.425781 50.890625-27.769531 80.445312-27.769531 39.539063 0 75.910156 15.832031 102.414063 44.578125 26.191406 28.410156 40.613281 67.222656 40.613281 109.292969 0 43.300781-16.132812 82.9375-50.777344 124.738281-30.992187 37.398437-75.53125 75.355469-127.105468 119.308594-17.625 15.015625-37.597657 32.039062-58.328126 50.167969-5.472656 4.789062-12.503906 7.429687-19.789062 7.429687zm-112.96875-425.523437c-31.066406 0-59.605469 12.398437-80.367188 34.914062-21.070312 22.855469-32.675781 54.449219-32.675781 88.964844 0 36.417968 13.535157 68.988281 43.882813 105.605468 29.332031 35.394532 72.960937 72.574219 123.476562 115.625l.09375.078126c17.660156 15.050781 37.679688 32.113281 58.515625 50.332031 20.960938-18.253907 41.011719-35.34375 58.707031-50.417969 50.511719-43.050781 94.136719-80.222656 123.46875-115.617188 30.34375-36.617187 43.878907-69.1875 43.878907-105.605468 0-34.515625-11.605469-66.109375-32.675781-88.964844-20.757813-22.515625-49.300782-34.914062-80.363282-34.914062-22.757812 0-43.652344 7.234374-62.101562 21.5-16.441406 12.71875-27.894532 28.796874-34.609375 40.046874-3.453125 5.785157-9.53125 9.238282-16.261719 9.238282s-12.808594-3.453125-16.261719-9.238282c-6.710937-11.25-18.164062-27.328124-34.609375-40.046874-18.449218-14.265626-39.34375-21.5-62.097656-21.5zm0 0"/>
  </symbol>

  <symbol id="search" viewBox="0 0 15.28 15.281">
    <path d="M1547.7,72.076a0.617,0.617,0,0,1,.75.485,2.583,2.583,0,0,0,.78,1.489,3.036,3.036,0,0,0,1.49.777,0.636,0.636,0,0,1,.49.743,0.649,0.649,0,0,1-.72.515,4.21,4.21,0,0,1-2.14-1.13,4.164,4.164,0,0,1-1.13-2.136A0.6,0.6,0,0,1,1547.7,72.076ZM1550.98,66a6.267,6.267,0,0,1,6.28,6.257,6.136,6.136,0,0,1-.57,2.6l2.34,2.036c1.7,1.746.74,3.266,0.29,3.717-0.42.454-1.99,1.414-3.73-.292l-2.06-2.35A6.261,6.261,0,1,1,1550.98,66Zm5.55,13.517a1.352,1.352,0,0,0,1.88.226,1.313,1.313,0,0,0-.23-1.874l-2.16-1.88a6.236,6.236,0,0,1-1.37,1.34Zm-5.55-2.312a4.948,4.948,0,1,0-4.97-4.948A4.963,4.963,0,0,0,1550.98,77.2Z" transform="translate(-1544.72 -66)"/>
  </symbol>

  <symbol id="menu" viewBox="0 0 20.03 20.031">
    <path fill="#fffff" d="M1813.15,67.881a2.146,2.146,0,1,1,2.14-2.145A2.145,2.145,0,0,1,1813.15,67.881Zm0,7.869a2.146,2.146,0,1,1,2.14-2.147A2.146,2.146,0,0,1,1813.15,75.75Zm0,7.868a2.146,2.146,0,1,1,2.14-2.146A2.145,2.145,0,0,1,1813.15,83.618Zm7.86-15.737a2.146,2.146,0,1,1,2.15-2.145A2.143,2.143,0,0,1,1821.01,67.881Zm0,7.869a2.146,2.146,0,1,1,2.15-2.147A2.144,2.144,0,0,1,1821.01,75.75Zm0,7.868a2.146,2.146,0,1,1,2.15-2.146A2.143,2.143,0,0,1,1821.01,83.618Zm7.87-15.737a2.146,2.146,0,1,1,2.15-2.145A2.143,2.143,0,0,1,1828.88,67.881Zm0,7.869a2.146,2.146,0,1,1,2.15-2.147A2.144,2.144,0,0,1,1828.88,75.75Zm0,7.868a2.146,2.146,0,1,1,2.15-2.146A2.143,2.143,0,0,1,1828.88,83.618Z" transform="translate(-1811 -63.594)"/>
  </symbol>

  <symbol id="twfo" viewBox="0 0 49.125 49.13">
    <path d="M268.312,1022.67a0.937,0.937,0,0,0-1.592.99,22.684,22.684,0,0,1-32.86,30.14,0.938,0.938,0,0,0-1.125,1.5A24.559,24.559,0,0,0,268.312,1022.67Zm-23.03,21.94h-7.55l4.743-4.75a12.68,12.68,0,0,0,3.744-9.03,5.844,5.844,0,1,0-11.688,0,0.938,0.938,0,0,0,1.875,0,3.969,3.969,0,1,1,7.938,0,10.836,10.836,0,0,1-3.195,7.71l-6.344,6.34a0.949,0.949,0,0,0-.2,1.03,0.93,0.93,0,0,0,.866.57h9.813A0.935,0.935,0,1,0,245.282,1044.61Zm15.039-6.44h-2.6v-1.52a0.938,0.938,0,0,0-1.875,0v1.52h-5.286l5.286-8.85v4.21a0.938,0.938,0,1,0,1.875,0v-7.62a0.957,0.957,0,0,0-.456-0.8,0.94,0.94,0,0,0-1.286.33l-7.875,13.19a0.933,0.933,0,0,0-.011.94,0.951,0.951,0,0,0,.816.48h6.938v5.5a0.938,0.938,0,0,0,1.875,0v-5.5h2.6A0.94,0.94,0,0,0,260.321,1038.17Zm5.33-22.63a0.938,0.938,0,1,0-1.875.04l0.042,1.75a24.556,24.556,0,0,0-33.549,35.85,0.93,0.93,0,0,0,.656.27,0.92,0.92,0,0,0,.669-0.28,0.942,0.942,0,0,0-.013-1.33,22.679,22.679,0,0,1,15.882-38.87,22.745,22.745,0,0,1,15.107,5.77l-1.843.04a0.935,0.935,0,0,0,.022,1.87h0.023l4.06-.09a0.934,0.934,0,0,0,.915-0.96Z" transform="translate(-222.906 -1011.09)"/>
  </symbol>

  <symbol id="track" viewBox="0 0 49.126 29.35">
    <path d="M812.816,1025.33H806.69a0.79,0.79,0,0,0,0,1.58h6.126A0.79,0.79,0,0,0,812.816,1025.33Zm0.524,11.01h-5.6a0.785,0.785,0,1,0,0,1.57h5.6A0.785,0.785,0,1,0,813.34,1036.34Zm-2.094-4.72H804.6a0.79,0.79,0,0,0,0,1.58h6.65A0.79,0.79,0,0,0,811.246,1031.62Zm0,11.01H810.6a0.785,0.785,0,1,0,0,1.57h0.644A0.785,0.785,0,1,0,811.246,1042.63Zm-3.263,0H804.6a0.785,0.785,0,1,0,0,1.57h3.387A0.785,0.785,0,1,0,807.983,1042.63Zm36.86-19.86h-6.657v-1.42a0.784,0.784,0,0,0-.786-0.78H825.225a0.785,0.785,0,1,0,0,1.57h11.39v17.22a0.786,0.786,0,1,0,1.571,0v-15.02h6.657a6.519,6.519,0,0,1,6.509,6.52v13.29h-2a4.974,4.974,0,0,0-9.824,0h-1.345v-1.12a0.786,0.786,0,1,0-1.571,0v1.12h-8.336a4.974,4.974,0,0,0-9.823,0h-1.634v-22.01h5.261a0.785,0.785,0,1,0,0-1.57h-6.046a0.783,0.783,0,0,0-.785.78v23.59a0.791,0.791,0,0,0,.785.79h2.419a4.974,4.974,0,0,0,9.823,0h11.252a4.974,4.974,0,0,0,9.824,0h2.782a0.791,0.791,0,0,0,.785-0.79v-14.08A8.094,8.094,0,0,0,844.843,1022.77Zm-21.475,25.58a3.41,3.41,0,1,1,3.4-3.41A3.411,3.411,0,0,1,823.368,1048.35Zm21.075,0a3.411,3.411,0,0,1-3.4-3.41h0A3.4,3.4,0,1,1,844.443,1048.35Zm0.4-22.44h-4.3a0.791,0.791,0,0,0-.785.79v7.39a0.791,0.791,0,0,0,.785.79H849a0.792,0.792,0,0,0,.786-0.79v-3.23A4.949,4.949,0,0,0,844.843,1025.91Zm3.367,7.39h-6.882v-5.81h3.515a3.371,3.371,0,0,1,3.367,3.37v2.44Zm-24.842,9.61a2.03,2.03,0,1,0,2.024,2.03A2.029,2.029,0,0,0,823.368,1042.91Zm0,2.49a0.46,0.46,0,0,1-.455-0.46,0.455,0.455,0,0,1,.909,0A0.46,0.46,0,0,1,823.368,1045.4Zm21.075-2.49a2.03,2.03,0,1,0,2.025,2.03A2.03,2.03,0,0,0,844.443,1042.91Zm0,2.49a0.46,0.46,0,0,1-.454-0.46,0.454,0.454,0,0,1,.908,0A0.46,0.46,0,0,1,844.443,1045.4Zm4.552-8.37a0.783,0.783,0,0,0-.785.78v1.99a0.786,0.786,0,1,0,1.571,0v-1.99A0.784,0.784,0,0,0,849,1037.03Z" width="50px" height="30px" transform="translate(-803.812 -1020.56)"/>
  </symbol>

  <symbol id="card" viewBox="0 0 49.13 43.84">
   <path d="M1444.43,1042.32a0.83,0.83,0,0,0-.84.83v8.27a2.164,2.164,0,0,1-2.16,2.16h-39.34a2.164,2.164,0,0,1-2.16-2.16V1039.5h27.29a0.84,0.84,0,1,0,0-1.68h-27.29v-5.47h9.87a0.828,0.828,0,0,0,.83-0.83,0.837,0.837,0,0,0-.83-0.84h-9.87v-2.88a2.166,2.166,0,0,1,2.16-2.17h25.13a0.835,0.835,0,1,0,0-1.67h-25.13a3.839,3.839,0,0,0-3.83,3.84v23.62a3.837,3.837,0,0,0,3.83,3.83h39.34a3.837,3.837,0,0,0,3.83-3.83v-8.27A0.828,0.828,0,0,0,1444.43,1042.32Zm-17.21-11.64H1413a0.837,0.837,0,0,0-.83.84,0.828,0.828,0,0,0,.83.83h14.22a0.837,0.837,0,0,0,.84-0.83A0.845,0.845,0,0,0,1427.22,1030.68Zm-9.24,11.56h-14.27a0.835,0.835,0,0,0,0,1.67h14.27A0.835,0.835,0,1,0,1417.98,1042.24Zm-6.08,3.99h-8.19a0.835,0.835,0,0,0,0,1.67h8.19A0.835,0.835,0,0,0,1411.9,1046.23Zm34.63-13.61a0.832,0.832,0,0,0,.84-0.84v-4.77a3.038,3.038,0,0,0-2.39-2.97v-6.02a6.6,6.6,0,1,0-13.19,0v6.02a3.053,3.053,0,0,0-2.4,2.97v10.75a3.045,3.045,0,0,0,3.04,3.04h11.9a3.039,3.039,0,0,0,3.04-3.04v-3.19a0.835,0.835,0,0,0-1.67,0v3.19a1.379,1.379,0,0,1-1.37,1.37h-11.9a1.379,1.379,0,0,1-1.37-1.37v-10.75a1.379,1.379,0,0,1,1.37-1.37h11.9a1.379,1.379,0,0,1,1.37,1.37v4.77A0.83,0.83,0,0,0,1446.53,1032.62Zm-3.23-8.65h-9.84v-5.95a4.92,4.92,0,1,1,9.84,0v5.95h0Zm-4.92,4.32a3.092,3.092,0,0,0-.83,6.07v2.04a0.83,0.83,0,0,0,.83.84,0.839,0.839,0,0,0,.84-0.84v-2.04A3.094,3.094,0,0,0,1438.38,1028.29Zm0,4.52a1.425,1.425,0,1,1,1.42-1.43A1.428,1.428,0,0,1,1438.38,1032.81Z" transform="translate(-1398.25 -1011.41)"/>
  </symbol>

  <symbol id="arrow" viewBox="0 0 22 9">
   <path class="cls-1" d="M535.3,654.472h16.948l-0.1,2.857a0.292,0.292,0,0,0,0,.41l0.172,0.172a0.28,0.28,0,0,0,.2.086,0.285,0.285,0,0,0,.2-0.084l4.193-4.211A0.292,0.292,0,0,0,557,653.5a0.283,0.283,0,0,0-.084-0.2l-4.193-4.213a0.289,0.289,0,0,0-.407,0l-0.172.173a0.287,0.287,0,0,0-.084.2,0.278,0.278,0,0,0,.084.2l0.113,2.865H535.292a0.3,0.3,0,0,0-.292.295v1.37A0.292,0.292,0,0,0,535.3,654.472Z" transform="translate(-535 -649)"/>
  </symbol>

  <symbol id="play" viewBox="0 0 22 9">
   <path fill-rule="evenodd"  opacity="0.4" fill="rgb(163, 187, 200)"
 d="M63.500,-0.000 C98.570,-0.000 127.000,28.430 127.000,63.500 C127.000,98.570 98.570,127.000 63.500,127.000 C28.430,127.000 -0.000,98.570 -0.000,63.500 C-0.000,28.430 28.430,-0.000 63.500,-0.000 Z"/>
<path fill-rule="evenodd"  fill="rgb(163, 187, 200)"
 d="M63.000,14.000 C90.062,14.000 112.000,35.938 112.000,63.000 C112.000,90.062 90.062,112.000 63.000,112.000 C35.938,112.000 14.000,90.062 14.000,63.000 C14.000,35.938 35.938,14.000 63.000,14.000 Z"/>
<path fill-rule="evenodd"  fill="rgb(255, 255, 255)"
 d="M73.684,64.740 L57.640,74.536 C57.139,74.842 56.559,74.997 55.977,74.997 C55.498,74.997 55.017,74.891 54.578,74.680 C53.606,74.210 52.999,73.293 52.999,72.295 L52.999,52.700 C52.999,51.701 53.606,50.783 54.578,50.314 C55.549,49.845 56.727,49.900 57.640,50.457 L73.684,60.255 C74.506,60.757 74.999,61.598 74.999,62.496 C74.999,63.396 74.506,64.237 73.684,64.740 Z"/>
  </symbol>

  <symbol id="user-icon" viewBox="0 0 512 512">
   <path d="M437.02,330.98c-27.883-27.882-61.071-48.523-97.281-61.018C378.521,243.251,404,198.548,404,148
			C404,66.393,337.607,0,256,0S108,66.393,108,148c0,50.548,25.479,95.251,64.262,121.962
			c-36.21,12.495-69.398,33.136-97.281,61.018C26.629,379.333,0,443.62,0,512h40c0-119.103,96.897-216,216-216s216,96.897,216,216
			h40C512,443.62,485.371,379.333,437.02,330.98z M256,256c-59.551,0-108-48.448-108-108S196.449,40,256,40
			c59.551,0,108,48.448,108,108S315.551,256,256,256z"/>
  </symbol>

  <symbol id="calendar" viewBox="0 0 512 512">
   <path d="M452,40h-24V0h-40v40H124V0H84v40H60C26.916,40,0,66.916,0,100v352c0,33.084,26.916,60,60,60h392    c33.084,0,60-26.916,60-60V100C512,66.916,485.084,40,452,40z M472,452c0,11.028-8.972,20-20,20H60c-11.028,0-20-8.972-20-20V188    h432V452z M472,148H40v-48c0-11.028,8.972-20,20-20h24v40h40V80h264v40h40V80h24c11.028,0,20,8.972,20,20V148z" fill="#000000" data-original="#000000"/>
  </symbol>

<symbol id="play-video" width="127px" height="127px">
<path fill-rule="evenodd"  opacity="0.4" fill="rgb(163, 187, 200)"
 d="M63.500,-0.000 C98.570,-0.000 127.000,28.430 127.000,63.500 C127.000,98.570 98.570,127.000 63.500,127.000 C28.430,127.000 -0.000,98.570 -0.000,63.500 C-0.000,28.430 28.430,-0.000 63.500,-0.000 Z"/>
<path fill-rule="evenodd"  fill="rgb(163, 187, 200)"
 d="M63.000,14.000 C90.062,14.000 112.000,35.938 112.000,63.000 C112.000,90.062 90.062,112.000 63.000,112.000 C35.938,112.000 14.000,90.062 14.000,63.000 C14.000,35.938 35.938,14.000 63.000,14.000 Z"/>
<path fill-rule="evenodd"  fill="rgb(255, 255, 255)"
 d="M73.684,64.740 L57.640,74.536 C57.139,74.842 56.559,74.997 55.977,74.997 C55.498,74.997 55.017,74.891 54.578,74.680 C53.606,74.210 52.999,73.293 52.999,72.295 L52.999,52.700 C52.999,51.701 53.606,50.783 54.578,50.314 C55.549,49.845 56.727,49.900 57.640,50.457 L73.684,60.255 C74.506,60.757 74.999,61.598 74.999,62.496 C74.999,63.396 74.506,64.237 73.684,64.740 Z"/>
</symbol>

<symbol id="list" width="37px" height="38px">
<path fill-rule="evenodd"  fill="rgb(163, 187, 200)"
 d="M35.489,11.992 L18.004,29.632 C17.894,29.743 17.757,29.823 17.608,29.866 C17.608,29.866 11.916,31.459 11.911,31.461 C11.883,31.468 11.685,31.490 11.685,31.490 L7.059,31.490 C6.562,31.490 6.158,31.082 6.158,30.579 C6.158,30.077 6.562,29.670 7.059,29.670 L10.999,29.670 L12.393,24.604 C12.434,24.453 12.514,24.315 12.624,24.204 L12.638,24.189 L7.059,24.189 C6.562,24.189 6.158,23.782 6.158,23.279 C6.158,22.776 6.562,22.369 7.059,22.369 L14.443,22.369 L19.875,16.889 L7.059,16.889 C6.562,16.889 6.158,16.481 6.158,15.979 C6.158,15.475 6.562,15.068 7.059,15.068 L21.680,15.068 L30.109,6.565 C31.299,5.363 33.237,5.363 34.427,6.565 L35.489,7.636 C36.680,8.836 36.680,10.791 35.489,11.992 ZM13.718,26.595 L12.982,29.272 L15.634,28.528 L13.718,26.595 ZM28.972,10.287 L14.538,24.848 L17.365,27.701 L31.800,13.139 L28.972,10.287 ZM34.212,8.923 L33.150,7.852 C32.907,7.606 32.588,7.483 32.268,7.483 C31.948,7.483 31.628,7.606 31.384,7.852 L30.248,8.999 L33.076,11.852 L34.212,10.705 C34.699,10.213 34.699,9.414 34.212,8.923 ZM28.542,6.013 C28.044,6.013 27.640,5.605 27.640,5.103 L27.640,2.230 C27.640,2.136 27.564,2.060 27.472,2.060 L9.284,2.060 L9.284,7.612 C9.284,8.709 8.398,9.602 7.310,9.602 L1.807,9.602 L1.807,35.969 C1.807,36.062 1.883,36.139 1.975,36.139 L27.472,36.139 C27.564,36.139 27.640,36.062 27.640,35.969 L27.640,22.067 C27.640,21.565 28.044,21.157 28.542,21.157 C29.040,21.157 29.444,21.565 29.444,22.067 L29.444,35.969 C29.444,37.067 28.560,37.960 27.471,37.960 L1.975,37.960 C0.887,37.960 0.002,37.067 0.002,35.969 L0.002,8.691 C0.002,8.450 0.097,8.219 0.266,8.048 L7.742,0.506 C7.912,0.335 8.141,0.239 8.381,0.239 L27.472,0.239 C28.560,0.239 29.444,1.132 29.444,2.230 L29.444,5.103 C29.444,5.605 29.040,6.013 28.542,6.013 ZM7.478,3.347 L3.083,7.782 L7.310,7.782 C7.402,7.782 7.478,7.705 7.478,7.612 L7.478,3.347 Z"/>
</symbol>

<symbol id="rupor" width="44px" height="40px">
<path fill-rule="evenodd"  fill="rgb(163, 187, 200)"
 d="M37.869,21.953 L37.869,29.079 C37.869,29.864 37.476,30.569 36.818,30.966 C36.481,31.169 36.109,31.270 35.737,31.270 C35.379,31.270 35.020,31.176 34.691,30.987 C28.731,27.564 22.284,25.467 15.506,24.743 L19.665,36.528 C19.900,37.191 19.805,37.934 19.410,38.514 C19.015,39.093 18.368,39.439 17.679,39.439 L12.821,39.439 C11.936,39.439 11.138,38.865 10.835,38.011 L5.995,24.288 C4.963,23.820 4.213,22.817 4.076,21.624 L2.715,21.624 C1.226,21.624 0.014,20.380 0.014,18.850 L0.014,12.754 C0.014,11.225 1.226,9.980 2.715,9.980 L4.076,9.980 C4.266,8.322 5.642,7.031 7.307,7.031 C7.307,7.031 13.935,7.001 13.991,6.997 C21.324,6.439 28.289,4.291 34.691,0.614 C35.362,0.228 36.157,0.237 36.818,0.635 C37.476,1.032 37.870,1.737 37.870,2.522 L37.870,9.648 C40.834,10.042 43.132,12.650 43.132,15.800 C43.132,18.951 40.834,21.559 37.869,21.953 ZM4.052,12.120 L2.715,12.120 C2.375,12.120 2.097,12.405 2.097,12.754 L2.097,18.850 C2.097,19.200 2.375,19.484 2.715,19.484 L4.052,19.484 L4.052,12.120 ZM12.977,9.171 L7.307,9.171 C6.661,9.171 6.136,9.711 6.136,10.374 L6.136,21.230 C6.136,21.719 6.421,22.140 6.829,22.328 C6.980,22.394 7.024,22.405 7.232,22.429 C7.257,22.431 12.977,22.433 12.977,22.433 L12.977,9.171 ZM13.229,24.573 L8.310,24.573 L12.794,37.281 C12.797,37.291 12.809,37.299 12.821,37.299 L17.679,37.299 C17.688,37.299 17.694,37.299 17.703,37.286 C17.713,37.273 17.710,37.267 17.707,37.258 L13.229,24.573 ZM35.786,2.522 C35.786,2.506 35.786,2.494 35.764,2.481 C35.738,2.465 35.721,2.474 35.708,2.481 C29.305,6.159 22.363,8.366 15.060,9.052 L15.060,22.550 C22.363,23.234 29.305,25.442 35.708,29.120 C35.721,29.127 35.737,29.136 35.764,29.120 C35.786,29.107 35.786,29.094 35.786,29.079 L35.786,2.522 ZM37.870,11.813 L37.870,19.787 C39.680,19.414 41.049,17.768 41.049,15.800 C41.049,13.832 39.680,12.186 37.870,11.813 Z"/>
</symbol>

<symbol id="nf" width="43px" height="64px">
<path fill-rule="evenodd"  fill="rgb(163, 187, 200)"
 d="M41.984,8.578 L28.765,29.025 C29.293,30.136 29.589,31.382 29.589,32.695 C29.589,37.368 25.846,41.170 21.247,41.170 C16.646,41.170 12.903,37.368 12.903,32.695 C12.903,31.382 13.199,30.136 13.728,29.024 L0.509,8.578 C0.277,8.218 0.325,7.743 0.625,7.439 L6.943,1.021 C7.111,0.851 7.338,0.755 7.574,0.755 L34.919,0.755 C35.156,0.755 35.383,0.851 35.550,1.021 L41.869,7.439 C42.168,7.743 42.215,8.218 41.984,8.578 ZM21.247,39.357 C24.862,39.357 27.804,36.369 27.804,32.695 C27.804,29.023 24.862,26.034 21.247,26.034 C17.630,26.034 14.688,29.023 14.688,32.695 C14.688,36.369 17.630,39.357 21.247,39.357 ZM21.260,24.221 L31.109,8.987 L11.383,8.987 L21.233,24.221 C21.237,24.221 21.242,24.221 21.247,24.221 C21.251,24.221 21.255,24.221 21.260,24.221 ZM14.779,27.348 C15.907,25.943 17.469,24.912 19.256,24.465 L9.247,8.987 L2.909,8.987 L14.779,27.348 ZM34.549,2.568 L7.943,2.568 L3.410,7.174 L9.728,7.174 C9.734,7.174 9.741,7.174 9.747,7.174 L32.746,7.174 C32.752,7.174 32.758,7.174 32.764,7.174 L39.084,7.174 L34.549,2.568 ZM33.245,8.987 L23.237,24.465 C25.024,24.912 26.586,25.943 27.714,27.349 L39.584,8.987 L33.245,8.987 ZM20.131,29.377 L21.550,29.377 C22.042,29.377 22.442,29.783 22.442,30.285 L22.442,36.093 C22.442,36.593 22.042,36.999 21.550,36.999 C21.057,36.999 20.657,36.593 20.657,36.093 L20.657,31.191 L20.131,31.191 C19.639,31.191 19.239,30.785 19.239,30.285 C19.239,29.783 19.639,29.377 20.131,29.377 Z"/>
</symbol>

<symbol id="monitor" width="74px" height="60px">
<path fill-rule="evenodd"  fill="rgb(163, 187, 200)"
 d="M56.500,25.625 C65.820,25.625 73.375,33.180 73.375,42.500 C73.375,51.820 65.820,59.375 56.500,59.375 C47.180,59.375 39.625,51.820 39.625,42.500 C39.625,33.180 47.180,25.625 56.500,25.625 Z"/>
<path fill-rule="evenodd"  fill="rgb(36, 63, 77)"
 d="M60.635,47.856 L38.943,47.856 L39.820,54.856 L43.454,54.856 C44.047,54.856 44.528,55.336 44.528,55.928 C44.528,56.520 44.047,57.000 43.454,57.000 L20.546,57.000 C19.953,57.000 19.472,56.520 19.472,55.928 C19.472,55.336 19.953,54.856 20.546,54.856 L24.179,54.856 L25.056,47.856 L3.365,47.856 C1.509,47.856 -0.000,46.351 -0.000,44.499 L-0.000,3.357 C-0.000,1.506 1.509,-0.000 3.365,-0.000 L60.635,-0.000 C62.491,-0.000 64.000,1.506 64.000,3.357 L64.000,44.499 C64.000,46.351 62.491,47.856 60.635,47.856 ZM37.656,54.857 L36.779,47.857 L27.221,47.857 L26.344,54.857 L37.656,54.857 ZM61.852,3.357 C61.852,2.687 61.306,2.142 60.635,2.142 L3.365,2.142 C2.693,2.142 2.148,2.687 2.148,3.357 L2.148,44.499 C2.148,45.169 2.693,45.714 3.365,45.714 L60.635,45.714 C61.306,45.714 61.852,45.169 61.852,44.499 L61.852,3.357 ZM58.344,42.142 L13.673,42.142 C13.080,42.142 12.599,41.663 12.599,41.071 C12.599,40.479 13.080,40.000 13.673,40.000 L57.271,40.000 L57.271,6.714 L54.908,6.714 C54.315,6.714 53.834,6.234 53.834,5.643 C53.834,5.051 54.315,4.571 54.908,4.571 L58.344,4.571 C58.937,4.571 59.418,5.051 59.418,5.643 L59.418,41.071 C59.418,41.663 58.937,42.142 58.344,42.142 ZM52.546,20.500 L52.546,36.500 C52.546,37.091 52.065,37.571 51.472,37.571 C50.879,37.571 50.398,37.091 50.398,36.500 L50.398,20.500 C50.398,19.908 50.879,19.428 51.472,19.428 C52.065,19.428 52.546,19.908 52.546,20.500 ZM39.564,34.214 L39.564,36.500 C39.564,37.091 39.084,37.571 38.491,37.571 C37.897,37.571 37.417,37.091 37.417,36.500 L37.417,34.214 C37.417,33.622 37.898,33.142 38.491,33.142 C39.084,33.142 39.564,33.622 39.564,34.214 ZM26.583,27.357 L26.583,36.500 C26.583,37.091 26.102,37.571 25.509,37.571 C24.916,37.571 24.435,37.091 24.435,36.500 L24.435,27.357 C24.435,26.765 24.916,26.285 25.509,26.285 C26.102,26.285 26.583,26.765 26.583,27.357 ZM54.836,13.643 C54.836,15.494 53.327,17.000 51.472,17.000 C50.969,17.000 50.492,16.888 50.064,16.690 L41.460,25.780 C41.712,26.250 41.855,26.787 41.855,27.357 C41.855,29.208 40.346,30.714 38.491,30.714 C36.635,30.714 35.126,29.208 35.126,27.357 C35.126,27.172 35.142,26.992 35.170,26.815 L27.822,22.934 C27.219,23.505 26.405,23.857 25.509,23.857 C24.955,23.857 24.432,23.721 23.970,23.483 L15.564,31.624 C15.774,32.063 15.893,32.553 15.893,33.071 C15.893,34.922 14.383,36.428 12.528,36.428 C10.673,36.428 9.163,34.922 9.163,33.071 C9.163,31.220 10.673,29.714 12.528,29.714 C13.082,29.714 13.605,29.850 14.067,30.087 L22.473,21.946 C22.263,21.508 22.145,21.017 22.145,20.500 C22.145,18.649 23.654,17.142 25.509,17.142 C27.364,17.142 28.874,18.649 28.874,20.500 C28.874,20.684 28.858,20.865 28.829,21.041 L36.177,24.923 C36.781,24.351 37.595,23.999 38.491,23.999 C38.993,23.999 39.470,24.111 39.899,24.309 L48.502,15.219 C48.251,14.748 48.107,14.212 48.107,13.643 C48.107,11.791 49.617,10.285 51.472,10.285 C53.327,10.285 54.836,11.791 54.836,13.643 ZM12.528,31.857 C11.857,31.857 11.311,32.401 11.311,33.071 C11.311,33.741 11.857,34.285 12.528,34.285 C13.199,34.285 13.745,33.741 13.745,33.071 C13.745,32.401 13.199,31.857 12.528,31.857 ZM25.509,19.286 C24.838,19.286 24.292,19.830 24.292,20.500 C24.292,21.169 24.838,21.714 25.509,21.714 C26.180,21.714 26.726,21.169 26.726,20.500 C26.726,19.830 26.180,19.286 25.509,19.286 ZM38.491,26.142 C37.819,26.142 37.274,26.687 37.274,27.357 C37.274,28.026 37.819,28.571 38.491,28.571 C39.162,28.571 39.708,28.026 39.708,27.357 C39.708,26.687 39.162,26.142 38.491,26.142 ZM51.472,12.428 C50.801,12.428 50.255,12.973 50.255,13.643 C50.255,14.312 50.801,14.857 51.472,14.857 C52.143,14.857 52.689,14.312 52.689,13.643 C52.689,12.973 52.143,12.428 51.472,12.428 ZM50.327,6.714 L6.729,6.714 L6.729,40.000 L9.092,40.000 C9.685,40.000 10.166,40.480 10.166,41.071 C10.166,41.663 9.685,42.142 9.092,42.142 L5.655,42.142 C5.062,42.142 4.582,41.663 4.582,41.071 L4.582,5.643 C4.582,5.051 5.062,4.571 5.655,4.571 L50.327,4.571 C50.920,4.571 51.400,5.051 51.400,5.642 C51.400,6.234 50.920,6.714 50.327,6.714 Z"/>
</symbol>

<symbol id="bus" width="73px" height="52px">
<path fill-rule="evenodd"  fill="rgb(163, 187, 200)"
 d="M55.500,17.625 C64.820,17.625 72.375,25.180 72.375,34.500 C72.375,43.820 64.820,51.375 55.500,51.375 C46.180,51.375 38.625,43.820 38.625,34.500 C38.625,25.180 46.180,17.625 55.500,17.625 Z"/>
<path fill-rule="evenodd"  fill="rgb(36, 63, 77)"
 d="M41.620,27.459 C42.173,27.459 42.622,27.902 42.622,28.449 C42.622,28.996 42.173,29.439 41.620,29.439 L26.655,29.439 C26.102,29.439 25.653,28.996 25.653,28.449 C25.653,27.902 26.102,27.459 26.655,27.459 L41.620,27.459 ZM24.518,20.990 C24.261,20.990 24.005,20.893 23.809,20.700 L18.465,15.419 C18.073,15.033 18.073,14.406 18.465,14.019 C18.856,13.633 19.490,13.633 19.882,14.019 L24.518,18.599 L33.429,9.795 C33.820,9.408 34.455,9.408 34.846,9.795 C35.238,10.181 35.238,10.808 34.846,11.195 L25.226,20.700 C25.031,20.893 24.774,20.990 24.518,20.990 ZM62.998,33.663 L59.722,33.663 C59.723,33.685 59.724,33.707 59.724,33.729 C59.724,37.187 56.877,39.999 53.378,39.999 C49.878,39.999 47.031,37.187 47.031,33.729 C47.031,33.707 47.033,33.685 47.033,33.663 L24.449,33.663 C24.449,33.685 24.451,33.707 24.451,33.729 C24.451,37.187 21.604,39.999 18.104,39.999 C14.605,39.999 11.758,37.187 11.758,33.729 C11.758,33.707 11.759,33.685 11.760,33.663 L6.347,33.663 C5.205,33.663 4.276,32.745 4.276,31.617 L4.276,29.438 L1.002,29.438 C0.449,29.438 -0.000,28.995 -0.000,28.448 C-0.000,27.901 0.449,27.458 1.002,27.458 L10.622,27.458 C11.176,27.458 11.624,27.901 11.624,28.448 C11.624,28.995 11.175,29.438 10.622,29.438 L6.280,29.438 L6.280,31.617 C6.280,31.653 6.310,31.683 6.346,31.683 L12.107,31.683 C12.967,29.227 15.330,27.458 18.104,27.458 C20.879,27.458 23.241,29.227 24.102,31.683 L44.893,31.683 L44.893,24.224 C44.893,23.677 45.342,23.234 45.895,23.234 C46.449,23.234 46.897,23.677 46.897,24.224 L46.897,31.683 L47.380,31.683 C48.240,29.227 50.603,27.459 53.378,27.459 C56.152,27.459 58.515,29.227 59.375,31.683 L61.996,31.683 L61.996,27.327 L60.860,27.327 C59.128,27.327 57.720,25.935 57.720,24.224 L57.720,22.112 C57.720,21.565 58.169,21.122 58.722,21.122 L61.838,21.122 C61.414,19.822 60.179,18.879 58.724,18.878 C58.723,18.878 58.722,18.878 58.721,18.878 C58.720,18.878 58.720,18.878 58.719,18.878 L46.898,18.878 L46.898,20.000 C46.898,20.547 46.449,20.990 45.895,20.990 C45.342,20.990 44.893,20.547 44.893,20.000 L44.893,2.046 C44.893,2.009 44.863,1.980 44.827,1.980 L6.346,1.980 C6.310,1.980 6.280,2.009 6.280,2.046 L6.280,20.000 C6.280,20.547 5.831,20.990 5.278,20.990 C4.724,20.990 4.275,20.547 4.275,20.000 L4.275,2.046 C4.275,0.918 5.204,-0.000 6.346,-0.000 L44.827,-0.000 C45.969,-0.000 46.898,0.918 46.898,2.046 L46.898,4.224 L54.447,4.224 C56.767,4.224 58.655,6.090 58.655,8.383 L58.655,9.439 C58.655,9.915 58.315,10.312 57.862,10.407 L59.520,16.957 C62.053,17.338 64.000,19.504 64.000,22.112 L64.000,32.673 C64.000,33.220 63.551,33.663 62.998,33.663 ZM18.104,29.439 C15.710,29.439 13.762,31.363 13.762,33.729 C13.762,36.095 15.710,38.020 18.104,38.020 C20.499,38.020 22.447,36.095 22.447,33.729 C22.447,31.363 20.499,29.439 18.104,29.439 ZM53.378,29.439 C50.983,29.439 49.035,31.363 49.035,33.729 C49.035,36.095 50.983,38.020 53.378,38.020 C55.772,38.020 57.720,36.095 57.720,33.729 C57.720,31.363 55.772,29.439 53.378,29.439 ZM56.651,8.383 C56.651,7.182 55.662,6.204 54.447,6.204 L46.898,6.204 L46.898,8.449 L56.651,8.449 L56.651,8.383 ZM55.802,10.429 L46.898,10.429 L46.898,16.898 L57.439,16.898 L55.802,10.429 ZM61.996,23.102 L59.724,23.102 L59.724,24.224 C59.724,24.843 60.234,25.346 60.860,25.346 L61.996,25.346 L61.996,23.102 ZM53.378,35.776 C52.236,35.776 51.307,34.858 51.307,33.729 C51.307,32.601 52.236,31.683 53.378,31.683 C54.520,31.683 55.449,32.601 55.449,33.729 C55.449,34.858 54.520,35.776 53.378,35.776 ZM18.104,35.776 C16.962,35.776 16.033,34.858 16.033,33.729 C16.033,32.601 16.962,31.683 18.104,31.683 C19.246,31.683 20.175,32.601 20.175,33.729 C20.175,34.858 19.246,35.776 18.104,35.776 ZM16.969,24.224 C16.969,24.771 16.520,25.214 15.967,25.214 L3.140,25.214 C2.586,25.214 2.138,24.771 2.138,24.224 C2.138,23.677 2.586,23.234 3.140,23.234 L15.967,23.234 C16.520,23.234 16.969,23.677 16.969,24.224 Z"/>
</symbol>

<symbol id="phone" width="79px" height="64px">
<path fill-rule="evenodd"  fill="rgb(163, 187, 200)"
 d="M61.500,29.625 C70.820,29.625 78.375,37.180 78.375,46.500 C78.375,55.820 70.820,63.375 61.500,63.375 C52.180,63.375 44.625,55.820 44.625,46.500 C44.625,37.180 52.180,29.625 61.500,29.625 Z"/>
<path fill-rule="evenodd"  fill="rgb(36, 63, 77)"
 d="M58.493,37.654 C58.308,37.654 58.122,37.608 57.951,37.510 L55.946,36.365 C55.427,36.069 55.250,35.412 55.549,34.898 C55.849,34.385 56.512,34.209 57.031,34.505 L59.036,35.651 C59.555,35.947 59.733,36.604 59.433,37.117 C59.232,37.462 58.868,37.654 58.493,37.654 ZM57.032,18.039 C56.861,18.137 56.674,18.183 56.490,18.183 C56.115,18.183 55.750,17.991 55.549,17.646 C55.250,17.132 55.427,16.476 55.946,16.179 L57.951,15.034 C58.470,14.737 59.134,14.913 59.433,15.427 C59.733,15.940 59.555,16.597 59.036,16.894 L57.032,18.039 ZM62.370,26.272 C62.370,26.865 61.884,27.346 61.285,27.346 L58.970,27.346 C58.371,27.346 57.885,26.865 57.885,26.272 C57.885,25.679 58.371,25.198 58.970,25.198 L61.285,25.198 C61.884,25.198 62.370,25.679 62.370,26.272 ZM58.959,45.109 L61.072,44.691 C61.660,44.575 62.231,44.952 62.349,45.533 C62.467,46.115 62.086,46.680 61.498,46.797 L55.711,47.942 C55.640,47.956 55.569,47.963 55.498,47.963 C55.213,47.963 54.936,47.852 54.730,47.649 C54.474,47.395 54.363,47.031 54.434,46.679 L55.591,40.952 C55.709,40.370 56.280,39.993 56.868,40.109 C57.456,40.225 57.837,40.791 57.719,41.373 L57.236,43.766 C62.081,39.217 64.830,32.935 64.830,26.272 C64.830,12.969 53.893,2.147 40.451,2.147 C32.528,2.147 25.071,5.980 20.503,12.399 C20.158,12.884 19.481,13.000 18.991,12.659 C18.501,12.317 18.383,11.647 18.729,11.163 C23.702,4.173 31.823,-0.001 40.450,-0.001 C55.090,-0.001 67.000,11.786 67.000,26.272 C67.000,33.423 64.094,40.173 58.959,45.109 ZM24.411,18.183 C24.227,18.183 24.040,18.137 23.869,18.039 L21.865,16.893 C21.346,16.597 21.168,15.940 21.468,15.427 C21.767,14.913 22.431,14.737 22.950,15.034 L24.955,16.179 C25.474,16.475 25.651,17.132 25.352,17.646 C25.151,17.990 24.786,18.183 24.411,18.183 ZM24.955,36.365 L22.950,37.511 C22.779,37.609 22.592,37.655 22.408,37.655 C22.033,37.655 21.669,37.462 21.468,37.118 C21.168,36.604 21.346,35.947 21.865,35.651 L23.869,34.505 C24.388,34.209 25.052,34.385 25.352,34.898 C25.651,35.412 25.474,36.069 24.955,36.365 ZM31.733,41.213 C32.252,41.510 32.430,42.166 32.130,42.680 L30.973,44.664 C30.772,45.008 30.407,45.201 30.032,45.201 C29.848,45.201 29.661,45.154 29.491,45.057 C28.972,44.760 28.794,44.104 29.093,43.590 L30.251,41.606 C30.551,41.093 31.214,40.917 31.733,41.213 ZM31.192,11.475 C30.817,11.475 30.452,11.283 30.251,10.938 L29.094,8.954 C28.794,8.441 28.972,7.784 29.491,7.488 C30.010,7.191 30.673,7.367 30.973,7.880 L32.130,9.864 C32.430,10.378 32.252,11.035 31.733,11.331 C31.562,11.429 31.376,11.475 31.192,11.475 ZM39.221,22.509 C39.221,26.136 36.262,27.734 33.884,29.018 C31.957,30.058 30.621,30.840 30.149,32.071 L38.136,32.071 C38.735,32.071 39.221,32.551 39.221,33.145 C39.221,33.737 38.735,34.218 38.135,34.218 L28.876,34.218 C28.276,34.218 27.790,33.737 27.790,33.145 C27.790,29.862 30.475,28.412 32.844,27.133 C35.461,25.719 37.050,24.703 37.050,22.509 C37.050,20.755 35.460,19.328 33.506,19.328 C31.551,19.328 29.961,20.755 29.961,22.509 C29.961,23.102 29.475,23.583 28.876,23.583 C28.276,23.583 27.791,23.102 27.791,22.509 C27.791,19.571 30.354,17.180 33.506,17.180 C36.657,17.180 39.221,19.571 39.221,22.509 ZM50.650,41.606 L51.807,43.590 C52.107,44.104 51.929,44.760 51.410,45.057 C51.239,45.155 51.053,45.201 50.869,45.201 C50.494,45.201 50.129,45.008 49.928,44.664 L48.771,42.680 C48.471,42.166 48.649,41.510 49.168,41.213 C49.687,40.917 50.350,41.093 50.650,41.606 ZM39.365,7.946 L39.365,5.655 C39.365,5.062 39.851,4.581 40.450,4.581 C41.050,4.581 41.535,5.062 41.536,5.655 L41.536,7.946 C41.536,8.539 41.050,9.020 40.450,9.020 C39.851,9.020 39.365,8.539 39.365,7.946 ZM49.709,11.475 C49.525,11.475 49.339,11.429 49.168,11.331 C48.649,11.035 48.471,10.378 48.771,9.864 L49.928,7.880 C50.228,7.367 50.891,7.191 51.410,7.487 C51.929,7.784 52.107,8.441 51.808,8.954 L50.650,10.938 C50.449,11.282 50.084,11.475 49.709,11.475 ZM53.110,28.563 C53.110,29.156 52.624,29.637 52.025,29.637 L50.795,29.637 L50.795,33.145 C50.795,33.738 50.309,34.218 49.710,34.218 C49.111,34.218 48.625,33.737 48.625,33.145 L48.625,29.637 L41.608,29.637 C41.279,29.637 40.967,29.489 40.761,29.235 C40.555,28.981 40.477,28.648 40.548,28.330 L42.863,18.021 C42.993,17.443 43.573,17.077 44.158,17.206 C44.743,17.334 45.112,17.909 44.982,18.487 L42.961,27.489 L48.625,27.489 L48.625,18.254 C48.625,17.661 49.111,17.180 49.710,17.180 C50.310,17.180 50.795,17.661 50.795,18.254 L50.795,27.489 L52.025,27.489 C52.624,27.489 53.110,27.970 53.110,28.563 ZM19.692,26.604 L15.622,30.630 C14.789,31.456 14.685,32.777 15.381,33.703 C17.470,36.485 19.851,39.204 22.459,41.785 C25.067,44.366 27.815,46.722 30.626,48.789 C31.563,49.478 32.897,49.375 33.731,48.550 L37.800,44.523 C39.239,43.099 41.483,42.794 43.257,43.782 L54.845,50.232 C56.059,50.908 56.865,52.085 57.057,53.461 C57.257,54.904 56.763,56.333 55.703,57.382 L51.411,61.629 C49.815,63.208 47.555,64.000 44.778,64.000 C42.278,64.000 39.359,63.359 36.126,62.073 C29.598,59.477 22.455,54.537 16.014,48.163 C9.573,41.789 4.581,34.721 1.957,28.260 C-0.785,21.507 -0.626,16.135 2.406,13.135 L6.698,8.888 C7.758,7.839 9.202,7.350 10.660,7.549 C12.051,7.738 13.240,8.535 13.923,9.737 L20.441,21.204 C21.439,22.959 21.131,25.180 19.692,26.604 ZM18.550,22.257 L12.032,10.790 C11.685,10.179 11.077,9.773 10.364,9.677 C10.252,9.661 10.140,9.654 10.028,9.654 C9.366,9.654 8.726,9.919 8.233,10.407 L7.483,11.148 L8.827,13.588 C9.114,14.108 8.920,14.760 8.394,15.045 C8.229,15.134 8.051,15.176 7.875,15.176 C7.491,15.176 7.119,14.973 6.922,14.616 L5.883,12.731 L3.941,14.653 C1.597,16.973 1.608,21.641 3.971,27.460 C6.488,33.658 11.310,40.471 17.548,46.645 C23.787,52.818 30.672,57.590 36.935,60.080 C42.815,62.419 47.532,62.430 49.876,60.110 L51.819,58.188 L42.500,53.158 C41.974,52.874 41.780,52.222 42.067,51.701 C42.354,51.181 43.013,50.989 43.539,51.273 L53.418,56.605 L54.168,55.863 C54.744,55.293 55.013,54.524 54.906,53.753 C54.808,53.048 54.398,52.447 53.781,52.103 L42.193,45.653 C41.264,45.136 40.088,45.296 39.335,46.042 L37.398,47.958 L39.302,48.986 C39.828,49.269 40.022,49.922 39.735,50.442 C39.538,50.800 39.166,51.002 38.782,51.002 C38.606,51.002 38.428,50.960 38.263,50.871 L35.799,49.541 L35.266,50.069 C33.676,51.641 31.126,51.832 29.332,50.513 C26.436,48.384 23.607,45.958 20.925,43.303 C18.242,40.649 15.791,37.850 13.639,34.984 C12.306,33.209 12.499,30.684 14.088,29.112 L14.621,28.584 L9.234,18.811 C8.947,18.290 9.141,17.638 9.667,17.354 C10.193,17.070 10.853,17.262 11.139,17.783 L16.221,27.002 L18.157,25.085 C18.911,24.339 19.072,23.176 18.550,22.257 Z"/>
</symbol>

<symbol id="priz" width="61px" height="64px">
<path fill-rule="evenodd"  fill="rgb(163, 187, 200)"
 d="M43.500,29.625 C52.820,29.625 60.375,37.180 60.375,46.500 C60.375,55.820 52.820,63.375 43.500,63.375 C34.180,63.375 26.625,55.820 26.625,46.500 C26.625,37.180 34.180,29.625 43.500,29.625 Z"/>
<path fill-rule="evenodd"  fill="rgb(36, 63, 77)"
 d="M47.581,22.502 C48.247,23.604 48.247,24.974 47.582,26.077 L46.268,28.251 C46.095,28.538 46.028,28.878 46.080,29.209 L46.471,31.722 C46.670,33.001 46.150,34.269 45.112,35.031 L43.076,36.526 C42.806,36.724 42.615,37.012 42.537,37.339 L41.944,39.812 C41.643,41.068 40.682,42.038 39.438,42.341 L38.454,42.582 L45.381,58.182 C45.528,58.513 45.488,58.899 45.274,59.191 C45.061,59.484 44.709,59.638 44.352,59.595 L38.780,58.923 L35.571,63.568 C35.383,63.840 35.077,64.000 34.752,64.000 C34.721,64.000 34.690,63.998 34.659,63.995 C34.300,63.961 33.988,63.735 33.841,63.404 L26.761,47.460 L25.832,48.032 C25.286,48.368 24.674,48.535 24.062,48.535 C23.449,48.535 22.837,48.368 22.291,48.032 L21.395,47.480 L14.324,63.404 C14.176,63.735 13.864,63.961 13.506,63.995 C13.475,63.998 13.443,64.000 13.412,64.000 C13.088,64.000 12.781,63.840 12.594,63.568 L9.384,58.923 L3.813,59.595 C3.456,59.638 3.103,59.484 2.890,59.191 C2.677,58.899 2.636,58.513 2.783,58.182 L9.707,42.591 L8.684,42.341 C7.440,42.037 6.480,41.067 6.179,39.811 L5.586,37.338 C5.508,37.011 5.316,36.723 5.047,36.525 L3.011,35.031 C1.974,34.269 1.453,33.000 1.652,31.720 L2.044,29.209 C2.096,28.878 2.029,28.538 1.856,28.251 L0.542,26.077 C-0.124,24.974 -0.124,23.604 0.542,22.502 L1.856,20.327 C2.029,20.041 2.096,19.701 2.044,19.369 L1.653,16.857 C1.453,15.577 1.974,14.309 3.012,13.547 L5.048,12.052 C5.317,11.855 5.508,11.566 5.587,11.240 L6.180,8.766 C6.481,7.510 7.441,6.541 8.685,6.237 L11.135,5.638 C11.459,5.559 11.745,5.366 11.941,5.095 L13.421,3.039 C14.176,1.992 15.433,1.466 16.700,1.668 L19.188,2.063 C19.517,2.115 19.854,2.047 20.137,1.873 L22.291,0.547 C23.383,-0.125 24.740,-0.126 25.832,0.547 L27.987,1.873 C28.270,2.048 28.608,2.115 28.936,2.063 L31.424,1.668 C32.692,1.466 33.948,1.993 34.703,3.040 L36.184,5.095 C36.380,5.367 36.666,5.560 36.989,5.639 L39.439,6.238 C40.684,6.542 41.644,7.511 41.945,8.767 L42.538,11.241 C42.616,11.567 42.807,11.855 43.076,12.053 L45.112,13.548 C46.150,14.310 46.671,15.578 46.471,16.858 L46.080,19.369 C46.028,19.701 46.095,20.041 46.268,20.327 L47.581,22.502 ZM34.942,60.955 L37.485,57.274 C37.696,56.968 38.056,56.805 38.423,56.849 L42.838,57.382 L36.519,43.153 C36.391,43.243 36.276,43.354 36.183,43.484 L34.702,45.539 C34.570,45.723 34.421,45.889 34.260,46.040 L37.593,53.546 C37.819,54.053 37.594,54.650 37.091,54.878 C36.958,54.938 36.820,54.966 36.683,54.966 C36.302,54.966 35.938,54.744 35.771,54.370 L32.460,46.914 C32.122,46.965 31.773,46.966 31.423,46.911 L28.936,46.516 C28.800,46.494 28.663,46.494 28.528,46.512 L34.942,60.955 ZM5.327,57.382 L9.742,56.849 C10.108,56.805 10.468,56.968 10.679,57.274 L13.223,60.955 L19.634,46.518 C19.487,46.493 19.336,46.491 19.187,46.515 L16.699,46.910 C16.362,46.964 16.027,46.965 15.702,46.920 L12.393,54.370 C12.227,54.744 11.863,54.966 11.481,54.966 C11.345,54.966 11.206,54.937 11.074,54.877 C10.570,54.650 10.345,54.053 10.571,53.546 L13.891,46.068 C13.719,45.911 13.561,45.734 13.420,45.538 L11.939,43.483 C11.854,43.364 11.750,43.262 11.635,43.176 L5.327,57.382 ZM45.876,23.551 L44.563,21.377 C44.144,20.683 43.982,19.858 44.107,19.056 L44.499,16.545 C44.581,16.016 44.366,15.492 43.938,15.178 L41.902,13.683 C41.250,13.205 40.786,12.505 40.597,11.714 L40.004,9.241 C39.880,8.722 39.483,8.322 38.970,8.197 L36.520,7.598 C35.736,7.407 35.044,6.939 34.569,6.281 L33.088,4.225 C32.777,3.793 32.258,3.576 31.735,3.659 L29.246,4.054 C28.451,4.181 27.634,4.017 26.947,3.594 L24.792,2.268 C24.342,1.990 23.782,1.990 23.331,2.268 L21.177,3.594 C20.489,4.017 19.673,4.180 18.877,4.054 L16.390,3.659 C15.866,3.575 15.348,3.793 15.036,4.225 L13.555,6.280 C13.081,6.938 12.389,7.406 11.605,7.598 L9.155,8.196 C8.641,8.322 8.245,8.721 8.120,9.240 L7.527,11.713 C7.338,12.504 6.874,13.203 6.223,13.682 L4.186,15.177 C3.758,15.492 3.543,16.015 3.625,16.544 L4.017,19.056 C4.142,19.858 3.980,20.683 3.561,21.376 L2.247,23.551 C1.972,24.006 1.972,24.572 2.247,25.027 L3.561,27.201 C3.980,27.895 4.141,28.720 4.016,29.522 L3.625,32.034 C3.543,32.562 3.757,33.086 4.186,33.400 L6.221,34.895 C6.873,35.374 7.337,36.073 7.526,36.864 L8.119,39.337 C8.244,39.856 8.640,40.256 9.154,40.381 L11.604,40.980 C12.387,41.172 13.080,41.640 13.554,42.297 L15.035,44.353 C15.347,44.785 15.865,45.002 16.389,44.919 L18.877,44.524 C19.052,44.496 19.229,44.482 19.405,44.482 C20.026,44.482 20.641,44.654 21.176,44.984 L23.331,46.310 C23.781,46.588 24.342,46.588 24.793,46.310 L26.947,44.984 C27.634,44.561 28.451,44.398 29.246,44.524 L31.734,44.919 C32.257,45.003 32.776,44.786 33.087,44.353 L34.568,42.298 C35.042,41.640 35.735,41.172 36.519,40.981 L38.969,40.382 C39.482,40.257 39.879,39.857 40.003,39.338 L40.596,36.865 C40.786,36.074 41.249,35.375 41.901,34.896 L43.937,33.401 C44.366,33.086 44.581,32.563 44.498,32.035 L44.107,29.523 C43.982,28.720 44.144,27.896 44.563,27.202 L45.876,25.027 C46.151,24.572 46.151,24.006 45.876,23.551 ZM36.770,37.145 C33.274,40.675 28.645,42.475 23.999,42.475 C20.112,42.475 16.212,41.215 12.952,38.655 C12.517,38.312 12.439,37.679 12.778,37.240 C13.116,36.801 13.743,36.722 14.179,37.064 C20.542,42.063 29.647,41.485 35.358,35.720 C40.271,30.761 41.469,23.226 38.340,16.970 C38.091,16.473 38.289,15.867 38.781,15.617 C39.273,15.366 39.874,15.565 40.122,16.062 C43.641,23.096 42.294,31.569 36.770,37.145 ZM36.795,13.898 C36.519,13.898 36.244,13.783 36.046,13.558 C35.826,13.306 35.594,13.058 35.358,12.819 C35.122,12.581 34.876,12.347 34.626,12.125 C34.213,11.756 34.174,11.119 34.540,10.702 C34.905,10.285 35.536,10.245 35.949,10.614 C36.229,10.864 36.505,11.126 36.770,11.394 C37.035,11.662 37.295,11.940 37.543,12.223 C37.908,12.640 37.869,13.277 37.456,13.646 C37.266,13.815 37.030,13.898 36.795,13.898 ZM35.745,21.153 C35.965,21.837 35.777,22.565 35.254,23.053 L30.813,27.199 L31.992,33.190 C32.130,33.895 31.859,34.595 31.282,35.018 C30.706,35.441 29.962,35.485 29.341,35.134 L24.062,32.151 L18.782,35.134 C18.504,35.291 18.201,35.369 17.899,35.369 C17.528,35.369 17.159,35.251 16.841,35.018 C16.264,34.595 15.993,33.895 16.131,33.190 L17.310,27.199 L12.869,23.053 C12.346,22.565 12.158,21.837 12.378,21.153 C12.598,20.470 13.174,19.992 13.881,19.907 L19.889,19.188 L22.423,13.642 C22.722,12.990 23.349,12.584 24.062,12.584 C24.774,12.584 25.402,12.990 25.700,13.642 L28.234,19.188 L34.242,19.907 C34.949,19.992 35.525,20.470 35.745,21.153 ZM27.444,21.123 C27.099,21.082 26.800,20.863 26.655,20.545 L24.062,14.870 L21.469,20.545 C21.323,20.863 21.024,21.082 20.679,21.123 L14.531,21.859 L19.076,26.102 C19.331,26.341 19.446,26.695 19.378,27.039 L18.171,33.169 L23.574,30.116 C23.725,30.031 23.893,29.988 24.062,29.988 C24.230,29.988 24.398,30.031 24.549,30.116 L29.952,33.169 L28.745,27.039 C28.678,26.696 28.792,26.341 29.047,26.102 L33.592,21.859 L27.444,21.123 ZM31.249,9.811 C25.051,6.650 17.586,7.859 12.672,12.819 C6.961,18.584 6.389,27.776 11.341,34.199 C11.680,34.638 11.601,35.272 11.166,35.614 C10.984,35.757 10.768,35.826 10.554,35.826 C10.256,35.826 9.962,35.693 9.765,35.437 C4.196,28.213 4.838,17.876 11.260,11.394 C16.785,5.816 25.180,4.457 32.149,8.012 C32.642,8.263 32.839,8.869 32.590,9.366 C32.342,9.863 31.741,10.062 31.249,9.811 Z"/>
</symbol>

<symbol id="inst" viewBox="0 0 17.19 17.19">
<path id="Union_5" data-name="Union 5" class="cls-1" d="M1004.59,1961.94a4.322,4.322,0,0,1-3.43-3.75c-0.23-1.45-.25-8.19.17-9.65a4.387,4.387,0,0,1,3.75-3.35,34.173,34.173,0,0,1,4.31-.19c1.6,0,3.22.04,4.19,0.1a4.724,4.724,0,0,1,3.14,1.28,4.517,4.517,0,0,1,1.38,2.94c0.12,1.35.21,7.74-.19,9.24a4.411,4.411,0,0,1-3.8,3.44,42.333,42.333,0,0,1-4.74.19A29.143,29.143,0,0,1,1004.59,1961.94Zm0.92-15.26a2.958,2.958,0,0,0-2.75,2.59,57.587,57.587,0,0,0-.06,8.69,2.8,2.8,0,0,0,2.12,2.43,27.569,27.569,0,0,0,4.63.25c1.8,0,3.57-.06,4.24-0.13a2.941,2.941,0,0,0,2.75-2.6,61.315,61.315,0,0,0,.11-8.45,2.9,2.9,0,0,0-2.58-2.74,40.212,40.212,0,0,0-4.3-.16C1007.96,1946.56,1006.26,1946.6,1005.51,1946.68Zm-0.32,6.92a4.445,4.445,0,0,1,4.45-4.41,4.37,4.37,0,0,1,4.37,4.41,4.458,4.458,0,0,1-4.45,4.41A4.37,4.37,0,0,1,1005.19,1953.6Zm1.55-.03a2.834,2.834,0,0,0,2.81,2.88h0.02a2.882,2.882,0,0,0,2.88-2.82,2.82,2.82,0,0,0-2.8-2.88h-0.03A2.881,2.881,0,0,0,1006.74,1953.57Zm6.45-4.55a1.029,1.029,0,0,1,1.03-1.03h0.01a1.016,1.016,0,0,1,1.02,1.04,1.035,1.035,0,0,1-1.04,1.02A1.014,1.014,0,0,1,1013.19,1949.02Z" transform="translate(-1001 -1945)"/>
</symbol>

<symbol id="google" wviewBox="0 0 22.66 14.38">
<path id="Union_6" data-name="Union 6" class="cls-1" d="M1052.75,1960.35a7.121,7.121,0,0,1-6.59-5.65,6.6,6.6,0,0,1-.14-1.93,7.277,7.277,0,0,1,5.49-6.56,5.282,5.282,0,0,1,1.18-.19c0.23-.01.46-0.02,0.69-0.02a6.786,6.786,0,0,1,3.4.93,9.386,9.386,0,0,1,1.27.93c-0.72.71-1.41,1.4-2.11,2.09a3.914,3.914,0,0,0-2.1-1.02,4.259,4.259,0,0,0-.61-0.04,4.307,4.307,0,0,0-4.14,3.35,3.817,3.817,0,0,0-.1,1.3,4.3,4.3,0,0,0,2.94,3.74,4.35,4.35,0,0,0,1.25.19c0.1,0,.2-0.01.3-0.01a4.2,4.2,0,0,0,2.09-.67,3.314,3.314,0,0,0,1.43-2.17h-3.85c0-.09.02-1.89,0.02-2.76l0.01-.12h6.76a7.773,7.773,0,0,1-1.28,6.05,6.273,6.273,0,0,1-3.55,2.32,7.539,7.539,0,0,1-1.94.25C1053.03,1960.36,1052.89,1960.36,1052.75,1960.35Zm13.33-4.05h-1.89v-0.07l0.02-2.43h-2.51v-0.08l0.02-1.82v-0.07h2.5l0.02-2.43v-0.07h1.96v0.07l-0.02,2.43h2.51v0.07l-0.01,1.82v0.08h-2.51l-0.02,2.43v0.07h-0.07Z" transform="translate(-1046.03 -1946)"/>
</symbol>

<symbol id="pif" width="22px" height="20px">
<path fill-rule="evenodd" fill="rgb(163, 187, 200)"
d="M21.934,5.216 L18.217,13.776 C18.082,14.075 17.797,14.264 17.471,14.264 L7.257,14.264 C6.891,14.264 6.565,14.020 6.470,13.666 L3.147,1.629 L0.814,1.629 C0.366,1.629 -0.000,1.262 -0.000,0.814 C-0.000,0.365 0.366,-0.002 0.814,-0.002 L3.757,-0.002 C4.124,-0.002 4.449,0.243 4.544,0.596 L7.867,12.634 L16.929,12.634 L19.940,5.705 L9.902,5.705 C9.454,5.705 9.088,5.338 9.088,4.889 C9.088,4.440 9.454,4.074 9.902,4.074 L21.188,4.074 C21.459,4.074 21.717,4.211 21.866,4.440 C22.015,4.672 22.043,4.957 21.934,5.216 ZM6.484,16.303 C7.501,16.303 8.329,17.131 8.329,18.150 C8.329,19.169 7.501,19.998 6.484,19.998 C5.466,19.998 4.639,19.169 4.639,18.150 C4.639,17.131 5.466,16.303 6.484,16.303 ZM17.892,16.303 C18.909,16.235 19.791,17.009 19.859,18.015 C19.886,18.517 19.737,18.993 19.411,19.360 C19.085,19.740 18.638,19.958 18.149,19.998 C18.109,19.998 18.055,19.998 18.014,19.998 C17.051,19.998 16.250,19.238 16.183,18.273 C16.115,17.267 16.874,16.371 17.892,16.303 Z" />
</symbol>

<symbol id="pis" width="22px" height="18px">
<path fill-rule="evenodd" fill="rgb(163, 187, 200)"
d="M21.990,5.820 C21.907,4.269 21.250,2.813 20.141,1.720 C19.015,0.610 17.545,-0.001 16.002,-0.001 C13.691,-0.001 12.054,1.784 11.175,2.744 C11.125,2.798 11.071,2.856 11.019,2.913 C10.991,2.882 10.963,2.849 10.936,2.819 C10.132,1.903 8.460,-0.001 5.998,-0.001 C4.455,-0.001 2.985,0.610 1.859,1.720 C0.750,2.813 0.093,4.269 0.010,5.820 C-0.072,7.361 0.320,8.700 1.281,10.158 C2.142,11.465 4.385,13.532 6.044,14.906 C7.749,16.316 9.994,17.998 11.009,17.998 C12.041,17.998 14.278,16.319 15.974,14.912 C17.620,13.545 19.850,11.479 20.719,10.157 C21.366,9.174 22.095,7.791 21.990,5.820 ZM19.614,9.430 C18.982,10.391 17.202,12.166 15.183,13.848 C12.777,15.852 11.352,16.643 11.011,16.673 C10.669,16.638 9.241,15.841 6.823,13.831 C4.793,12.145 3.010,10.377 2.386,9.430 C1.591,8.223 1.266,7.132 1.332,5.891 C1.467,3.372 3.560,1.322 5.998,1.322 C7.861,1.322 9.214,2.864 9.941,3.692 C10.369,4.179 10.604,4.447 11.000,4.447 C11.409,4.447 11.672,4.160 12.151,3.638 C12.945,2.772 14.273,1.322 16.002,1.322 C18.440,1.322 20.533,3.372 20.668,5.891 C20.735,7.146 20.420,8.204 19.614,9.430 Z" />
</symbol>
  
</svg>