<?xml version="1.0" encoding="utf-8"?><svg viewBox="0 0 80 80" xmlns="http://www.w3.org/2000/svg" xmlns:xlink="http://www.w3.org/1999/xlink"><style>:root>svg{display:none}:root>svg:target{display:block}</style><svg aria-label="dev.to" viewBox="0 0 512 512" id="cv" xmlns="http://www.w3.org/2000/svg"><rect width="512" height="512" rx="15%"/><path fill="#fff" d="M140.47 203.94h-17.44v104.47h17.45c10.155-.545 17.358-8.669 17.47-17.41v-69.65c-.696-10.364-7.796-17.272-17.48-17.41zm45.73 87.25c0 18.81-11.61 47.31-48.36 47.25h-46.4V172.98h47.38c35.44 0 47.36 28.46 47.37 47.28zm100.68-88.66H233.6v38.42h32.57v29.57H233.6v38.41h53.29v29.57h-62.18c-11.16.29-20.44-8.53-20.72-19.69V193.7c-.27-11.15 8.56-20.41 19.71-20.69h63.19zm103.64 115.29c-13.2 30.75-36.85 24.63-47.44 0l-38.53-144.8h32.57l29.71 113.72 29.57-113.72h32.58z"/></svg><svg viewBox="0 0 24 24" id="e" xmlns="http://www.w3.org/2000/svg"><path d="M13.718 10.528c0 .792-.268 1.829-.684 2.642-1.009 1.98-3.063 1.967-3.063-.14 0-.786.27-1.799.687-2.58 1.021-1.925 3.06-1.624 3.06.078zM24 12c0 6.627-5.373 12-12 12S0 18.627 0 12 5.373 0 12 0s12 5.373 12 12zm-5-1.194c0-3.246-2.631-5.601-6.256-5.601C7.777 5.205 5 8.354 5 12.278c0 3.672 2.467 6.517 7.024 6.517 2.52 0 4.124-.726 5.122-1.288l-.687-.991c-1.022.593-2.251 1.136-4.256 1.136-3.429 0-5.733-2.199-5.733-5.473 0-5.714 6.401-6.758 9.214-5.071 2.624 1.642 2.524 5.578.582 7.083-1.034.826-2.199.799-1.821-.756 0 0 1.212-4.489 1.354-4.975h-1.364l-.271.952c-.278-.785-.943-1.295-1.911-1.295-2.018 0-3.722 2.19-3.722 4.783 0 1.73.913 2.804 2.38 2.804 1.283 0 1.95-.726 2.364-1.373-.3 2.898 5.725 1.557 5.725-3.525z"/></svg><svg viewBox="0 0 24 24" id="emoji" xmlns="http://www.w3.org/2000/svg"><path d="M8 11V9a1 1 0 012 0v2a1 1 0 01-2 0zm7.225 3.368a4 4 0 01-6.45 0 1 1 0 00-1.55 1.264 6 6 0 009.55 0 1 1 0 10-1.55-1.264zM23 12A11 11 0 1112 1a11.013 11.013 0 0111 11zm-2 0a9 9 0 10-9 9 9.011 9.011 0 009-9zm-4-3h-3a1 1 0 000 2h3a1 1 0 000-2z"/></svg><svg viewBox="0 0 24 24" id="g" xmlns="http://www.w3.org/2000/svg"><path d="M12 0C5.373 0 0 5.373 0 12s5.373 12 12 12 12-5.373 12-12S18.627 0 12 0zm2.218 18.616c-.354.069-.468-.149-.468-.336v-1.921c0-.653-.229-1.079-.481-1.296 1.56-.173 3.198-.765 3.198-3.454 0-.765-.273-1.389-.721-1.879.072-.177.312-.889-.069-1.853 0 0-.587-.188-1.923.717A6.799 6.799 0 0012 8.36a6.743 6.743 0 00-1.753.235c-1.337-.905-1.925-.717-1.925-.717-.379.964-.14 1.676-.067 1.852a2.707 2.707 0 00-.722 1.879c0 2.682 1.634 3.282 3.189 3.459-.2.175-.381.483-.444.936-.4.179-1.413.488-2.037-.582 0 0-.37-.672-1.073-.722 0 0-.683-.009-.048.426 0 0 .46.215.777 1.024 0 0 .405 1.25 2.353.826v1.303c0 .185-.113.402-.462.337a7 7 0 114.43 0z"/></svg><svg viewBox="0 0 502 502" id="glob" xmlns="http://www.w3.org/2000/svg"><circle cx="251" cy="251" r="241" fill="#d7e6d8"/><path d="M329 348l-12.409 20.502a38.687 38.687 0 00-5.59 20.032v.615c0 5.994-4.857 10.853-10.851 10.856-10.407.005-18.846-8.43-18.846-18.836a37.097 37.097 0 00-10.865-26.232l-4.591-4.591a46.78 46.78 0 01-13.701-33.078v-29.475c0-9.307-7.545-16.851-16.851-16.851H231.8c-13.885 0-25.142-11.256-25.142-25.142v-15.343c0-14.572 11.813-26.384 26.384-26.384h84.028l27.028 27.028a41.781 41.781 0 0112.238 29.544v11.464c0 6.226 5.047 11.273 11.273 11.273 4.891 0 7.348 5.907 3.9 9.375l-11.148 11.214a144.906 144.906 0 00-21.433 27.512L329 348z" fill="#4fc497"/><path d="M283.829 57H320.5c6.904 0 12.5 5.596 12.5 12.5S327.404 82 320.5 82h-97.714c-5.917 0-10.713 4.797-10.713 10.713v2.028c0 4.71-1.871 9.227-5.201 12.558l-5.85 5.85a42.38 42.38 0 00-12.412 29.966v13.574a8.58 8.58 0 008.579 8.579h10.081c8.135 0 14.73-6.595 14.73-14.73 0-5.014 1.992-9.823 5.537-13.368l5.17-5.17a18.906 18.906 0 0113.368-5.537h19.931a44.092 44.092 0 0131.176 12.913l9.952 9.952a62.122 62.122 0 0118.195 43.927v18.036h16.397a59.543 59.543 0 0142.104 17.44l7.969 7.969c8.395 8.395 22.007 8.395 30.402 0 8.55-8.55 8.55-22.413 0-30.963l-3.3-3.3c-7.056-7.056-2.059-19.121 7.92-19.121H481c-.166-.166-.286-2.222-.37-5.63C459.223 110.579 409.227 56.236 344.948 29H283.83c-7.732 0-14 6.268-14 14-.001 7.732 6.267 14 13.999 14zM152.512 306.038v-17.886A48.3 48.3 0 00138.366 254l-.193-.193a31.153 31.153 0 00-22.028-9.124 29.852 29.852 0 01-21.108-8.743l-8.781-8.781a48.009 48.009 0 00-33.948-14.062H15.341l-2.787 2.787A243.055 243.055 0 0010 251c0 72.63 32.132 137.752 82.951 181.937V422.75a76.949 76.949 0 0122.537-54.409l19.149-19.15a61.025 61.025 0 0017.875-43.153z" fill="#4fc497"/><g fill="#333"><path d="M428.484 73.516C381.076 26.108 318.044 0 251 0S120.924 26.108 73.516 73.516 0 183.956 0 251s26.108 130.076 73.516 177.484S183.956 502 251 502s130.076-26.108 177.484-73.516S502 318.044 502 251s-26.108-130.076-73.516-177.484zm40.062 99.801h-41.725a21.139 21.139 0 00-19.587 13.087 21.139 21.139 0 004.595 23.104l3.3 3.3c4.638 4.637 4.638 12.184 0 16.821-2.171 2.172-5.059 3.368-8.13 3.368s-5.958-1.196-8.13-3.368l-7.969-7.969c-13.135-13.135-30.599-20.369-49.175-20.369h-6.397v-8.036c0-19.265-7.502-37.376-21.124-50.999l-9.952-9.952c-10.216-10.216-23.799-15.843-38.247-15.843h-19.931c-7.721 0-14.98 3.007-20.439 8.466l-5.17 5.169c-5.459 5.459-8.466 12.718-8.466 20.439a4.736 4.736 0 01-4.73 4.73h-8.66v-12.154c0-8.648 3.368-16.78 9.483-22.895l5.849-5.849c5.244-5.243 8.131-12.214 8.131-19.629V92.71c0-.394.32-.713.713-.713H320.5c12.407 0 22.5-10.093 22.5-22.5S332.907 47 320.5 47h-36.671c-2.206 0-4-1.794-4-4s1.794-4 4-4h58.868c58.354 25.338 104.274 74.079 125.849 134.317zm-109.824 118.12l-5.452 5.484a155.066 155.066 0 00-22.913 29.41l-9.918 16.5-12.403 20.492a48.673 48.673 0 00-7.036 25.21v.615a.857.857 0 01-.856.856h-.004a8.78 8.78 0 01-6.247-2.586 8.776 8.776 0 01-2.589-6.25c0-12.58-4.899-24.407-13.794-33.303l-4.591-4.591c-6.947-6.947-10.773-16.183-10.773-26.007v-29.475c0-14.806-12.045-26.851-26.852-26.851H231.8c-8.349 0-15.142-6.792-15.142-15.142v-15.343c0-9.034 7.35-16.384 16.384-16.384h79.886l24.099 24.1c6.003 6.003 9.309 13.984 9.309 22.473v11.464c0 8.56 5.082 15.955 12.386 19.328zM20 251c0-9.444.583-18.752 1.69-27.902h30.619c10.153 0 19.698 3.954 26.876 11.133l8.781 8.78c7.527 7.527 17.534 11.672 28.179 11.672 5.65 0 10.962 2.2 14.957 6.195l.193.193c7.233 7.233 11.217 16.851 11.217 27.081v17.886c0 13.63-5.308 26.444-14.945 36.082l-19.15 19.15c-13.442 13.443-21.939 30.512-24.58 49.002C44.303 368.799 20 312.684 20 251zm231 231c-56.288 0-107.93-20.247-148.049-53.827v-5.423c0-17.881 6.963-34.693 19.607-47.337l19.15-19.15c13.415-13.416 20.803-31.252 20.803-50.224v-17.886c0-15.573-6.064-30.213-17.075-41.224l-.193-.192c-7.772-7.772-18.106-12.053-29.099-12.053a19.72 19.72 0 01-14.036-5.814l-8.781-8.781c-10.957-10.956-25.524-16.99-41.019-16.99h-27.3C47.126 98.635 140.047 20 251 20c7.743 0 15.396.39 22.946 1.138-8.316 3.774-14.117 12.151-14.117 21.862 0 13.234 10.766 24 24 24H320.5c1.378 0 2.5 1.122 2.5 2.5s-1.122 2.5-2.5 2.5h-97.713c-11.421 0-20.713 9.292-20.713 20.713v2.028a7.706 7.706 0 01-2.273 5.486l-5.85 5.85c-9.893 9.893-15.341 23.047-15.341 37.037v13.574c0 10.245 8.334 18.58 18.579 18.58h10.081c13.636 0 24.73-11.094 24.73-24.73 0-2.379.926-4.615 2.608-6.297l5.169-5.169c.203-.203.414-.393.632-.574.167.195.334.389.518.574l19.932 19.932c-3.833 3.911-3.813 10.186.068 14.068 1.953 1.953 4.512 2.929 7.071 2.929s5.119-.976 7.071-2.929l7-7c3.905-3.905 3.905-10.237 0-14.143l-15.45-15.45c8.875.156 17.197 3.677 23.489 9.97l9.953 9.952c9.844 9.844 15.266 22.934 15.266 36.856v.817H233.04c-20.062 0-36.384 16.322-36.384 36.384V245.8c0 19.377 15.765 35.142 35.142 35.142h3.493a6.86 6.86 0 016.852 6.851v29.475c0 15.167 5.906 29.425 16.63 40.15l4.591 4.591c5.118 5.118 7.937 11.923 7.937 19.161 0 7.705 3.001 14.948 8.451 20.396 5.446 5.443 12.685 8.44 20.384 8.44h.015C311.648 410 321 400.644 321 389.149v-.614a28.68 28.68 0 014.146-14.854l12.409-20.502a.226.226 0 01.016-.026l9.928-16.517a135.064 135.064 0 0119.955-25.613l11.147-11.213c4.428-4.455 5.731-11.08 3.319-16.879s-8.029-9.546-14.31-9.546a1.274 1.274 0 01-1.273-1.273v-11.464c0-13.832-5.386-26.835-15.167-36.616l-2.215-2.215c10.49 1.524 20.173 6.357 27.804 13.988l7.969 7.969c6.141 6.141 14.207 9.211 22.272 9.211s16.132-3.07 22.272-9.211c6.024-6.024 9.341-14.033 9.341-22.553 0-8.519-3.317-16.528-9.341-22.553l-3.3-3.3c-.198-.198-.567-.567-.26-1.308s.829-.741 1.109-.741h47.888C479.468 211.761 482 231.09 482 251c0 127.374-103.626 231-231 231z"/><path d="M184 85c5.523 0 10-4.477 10-10V54.494c0-5.523-4.477-10-10-10s-10 4.477-10 10V75c0 5.523 4.477 10 10 10zm266.39 229.63c-5.176-1.93-10.935.702-12.863 5.877C408.652 397.961 333.692 450 251 450c-5.523 0-10 4.477-10 10s4.477 10 10 10c45.543 0 89.207-13.849 126.272-40.048 36.24-25.617 63.556-61.046 78.995-102.458 1.929-5.175-.702-10.934-5.877-12.864zM202.433 444.034a198.232 198.232 0 01-28.554-9.526c-5.092-2.144-10.954.249-13.096 5.339s.249 10.954 5.339 13.096a218.202 218.202 0 0031.445 10.491c.817.205 1.635.303 2.44.303 4.478 0 8.554-3.03 9.692-7.57 1.344-5.358-1.909-10.79-7.266-12.133z"/></g></svg><svg viewBox="0 0 24 24" id="l" xmlns="http://www.w3.org/2000/svg"><path d="M12 0C5.373 0 0 5.373 0 12s5.373 12 12 12 12-5.373 12-12S18.627 0 12 0zm-2 16H8v-6h2v6zM9 9.109c-.607 0-1.1-.496-1.1-1.109 0-.612.492-1.109 1.1-1.109s1.1.497 1.1 1.109c0 .613-.493 1.109-1.1 1.109zM17 16h-1.998v-2.861c0-1.881-2.002-1.722-2.002 0V16h-2v-6h2v1.093c.872-1.616 4-1.736 4 1.548V16z"/></svg><svg fill-rule="evenodd" clip-rule="evenodd" stroke-linejoin="round" stroke-miterlimit="1.414" viewBox="0 0 24 24" id="t" xmlns="http://www.w3.org/2000/svg"><path d="M12 0C5.374 0 0 5.372 0 12c0 6.627 5.374 12 12 12 6.627 0 12-5.373 12-12 0-6.628-5.373-12-12-12zm3.224 17.871c.188.133.43.166.646.085a.678.678 0 00.422-.491c.507-2.382 1.737-8.412 2.198-10.578a.457.457 0 00-.151-.443.47.47 0 00-.465-.082c-2.446.906-9.979 3.732-13.058 4.871a.484.484 0 00-.316.467.483.483 0 00.346.445c1.381.413 3.193.988 3.193.988s.847 2.558 1.288 3.858a.512.512 0 00.352.336.505.505 0 00.474-.121l1.805-1.704s2.084 1.527 3.266 2.369zm-6.423-5.062l.98 3.231.218-2.046 5.941-5.358a.162.162 0 00.019-.22.165.165 0 00-.219-.037l-6.939 4.43z"/></svg><svg viewBox="0 0 24 24" id="w" xmlns="http://www.w3.org/2000/svg"><path d="M12.031 6.172a5.773 5.773 0 00-5.768 5.766c-.001 1.298.38 2.27 1.019 3.287L6.7 17.353l2.182-.573c.978.58 1.911.928 3.145.929a5.776 5.776 0 005.768-5.766 5.764 5.764 0 00-5.764-5.771zm3.392 8.244c-.144.405-.837.774-1.17.824a2.371 2.371 0 01-1.092-.069c-.252-.08-.575-.187-.988-.365-1.739-.751-2.874-2.502-2.961-2.617-.087-.116-.708-.94-.708-1.793s.448-1.273.607-1.446a.638.638 0 01.462-.217l.332.006c.106.005.249-.04.39.298.144.347.491 1.2.534 1.287.043.087.072.188.014.304-.058.116-.087.188-.173.289l-.26.304c-.087.086-.177.18-.076.354.101.174.449.741.964 1.201.662.591 1.221.774 1.394.86s.274.072.376-.043c.101-.116.433-.506.549-.68.116-.173.231-.145.39-.087s1.011.477 1.184.564.289.13.332.202c.045.072.045.419-.1.824zM12 0C5.373 0 0 5.373 0 12s5.373 12 12 12 12-5.373 12-12S18.627 0 12 0zm.029 18.88a6.944 6.944 0 01-3.318-.844L5.034 19l.984-3.595a6.922 6.922 0 01-.926-3.468C5.093 8.112 8.205 5 12.029 5a6.891 6.891 0 014.907 2.034 6.893 6.893 0 012.03 4.908c-.001 3.825-3.113 6.938-6.937 6.938z"/></svg></svg>