<?xml version="1.0" encoding="utf-8"?><svg viewBox="0 0 50 50" xmlns="http://www.w3.org/2000/svg" xmlns:xlink="http://www.w3.org/1999/xlink"><style>:root>svg{display:none}:root>svg:target{display:block}</style><svg viewBox="0 0 24 24" id="emoji" xmlns="http://www.w3.org/2000/svg"><path d="M8 11V9a1 1 0 012 0v2a1 1 0 01-2 0zm7.225 3.368a4 4 0 01-6.45 0 1 1 0 00-1.55 1.264 6 6 0 009.55 0 1 1 0 10-1.55-1.264zM23 12A11 11 0 1112 1a11.013 11.013 0 0111 11zm-2 0a9 9 0 10-9 9 9.011 9.011 0 009-9zm-4-3h-3a1 1 0 000 2h3a1 1 0 000-2z"/></svg><svg viewBox="0 0 512 512" id="g" xmlns="http://www.w3.org/2000/svg"><circle cx="256" cy="256" r="256" fill="#b2e3ff"/><path d="M105.86 346.256L244 258l-138.248-92.168c-3.488 2.94-5.752 7.28-5.752 12.168v156c0 4.936 2.312 9.316 5.86 12.256zm300.392-180.424L268 258l138.14 88.256c3.548-2.94 5.86-7.32 5.86-12.256V178c0-4.888-2.264-9.228-5.748-12.168z" fill="#ccc"/><path d="M256 242L105.652 346.084c2.8 2.404 6.392 3.916 10.348 3.916h280c3.956 0 7.548-1.508 10.348-3.916L256 242z" fill="#e6e6e6"/><path d="M256 270l150.348-104.084c-2.8-2.404-6.392-3.916-10.348-3.916H116c-3.956 0-7.548 1.508-10.348 3.916L256 270z" fill="#f5f5f5"/><path d="M408 416c-37.496 0-68-30.504-68-68s30.504-68 68-68 68 30.504 68 68-30.504 68-68 68z" fill="#b2e3ff"/><circle cx="408" cy="348" r="52" fill="#e16b5a"/><path d="M400 368a3.989 3.989 0 01-2.828-1.172l-16-16c-1.564-1.564-1.564-4.092 0-5.656s4.092-1.564 5.656 0L400 358.344l29.172-29.172c1.564-1.564 4.092-1.564 5.656 0s1.564 4.092 0 5.656l-32 32A3.989 3.989 0 01400 368z" fill="#f5f5f5"/></svg><svg viewBox="0 0 502 502" id="glob" xmlns="http://www.w3.org/2000/svg"><circle cx="251" cy="251" r="241" fill="#d7e6d8"/><path d="M329 348l-12.409 20.502a38.687 38.687 0 00-5.59 20.032v.615c0 5.994-4.857 10.853-10.851 10.856-10.407.005-18.846-8.43-18.846-18.836a37.097 37.097 0 00-10.865-26.232l-4.591-4.591a46.78 46.78 0 01-13.701-33.078v-29.475c0-9.307-7.545-16.851-16.851-16.851H231.8c-13.885 0-25.142-11.256-25.142-25.142v-15.343c0-14.572 11.813-26.384 26.384-26.384h84.028l27.028 27.028a41.781 41.781 0 0112.238 29.544v11.464c0 6.226 5.047 11.273 11.273 11.273 4.891 0 7.348 5.907 3.9 9.375l-11.148 11.214a144.906 144.906 0 00-21.433 27.512L329 348z" fill="#4fc497"/><path d="M283.829 57H320.5c6.904 0 12.5 5.596 12.5 12.5S327.404 82 320.5 82h-97.714c-5.917 0-10.713 4.797-10.713 10.713v2.028c0 4.71-1.871 9.227-5.201 12.558l-5.85 5.85a42.38 42.38 0 00-12.412 29.966v13.574a8.58 8.58 0 008.579 8.579h10.081c8.135 0 14.73-6.595 14.73-14.73 0-5.014 1.992-9.823 5.537-13.368l5.17-5.17a18.906 18.906 0 0113.368-5.537h19.931a44.092 44.092 0 0131.176 12.913l9.952 9.952a62.122 62.122 0 0118.195 43.927v18.036h16.397a59.543 59.543 0 0142.104 17.44l7.969 7.969c8.395 8.395 22.007 8.395 30.402 0 8.55-8.55 8.55-22.413 0-30.963l-3.3-3.3c-7.056-7.056-2.059-19.121 7.92-19.121H481c-.166-.166-.286-2.222-.37-5.63C459.223 110.579 409.227 56.236 344.948 29H283.83c-7.732 0-14 6.268-14 14-.001 7.732 6.267 14 13.999 14zM152.512 306.038v-17.886A48.3 48.3 0 00138.366 254l-.193-.193a31.153 31.153 0 00-22.028-9.124 29.852 29.852 0 01-21.108-8.743l-8.781-8.781a48.009 48.009 0 00-33.948-14.062H15.341l-2.787 2.787A243.055 243.055 0 0010 251c0 72.63 32.132 137.752 82.951 181.937V422.75a76.949 76.949 0 0122.537-54.409l19.149-19.15a61.025 61.025 0 0017.875-43.153z" fill="#4fc497"/><g fill="#333"><path d="M428.484 73.516C381.076 26.108 318.044 0 251 0S120.924 26.108 73.516 73.516 0 183.956 0 251s26.108 130.076 73.516 177.484S183.956 502 251 502s130.076-26.108 177.484-73.516S502 318.044 502 251s-26.108-130.076-73.516-177.484zm40.062 99.801h-41.725a21.139 21.139 0 00-19.587 13.087 21.139 21.139 0 004.595 23.104l3.3 3.3c4.638 4.637 4.638 12.184 0 16.821-2.171 2.172-5.059 3.368-8.13 3.368s-5.958-1.196-8.13-3.368l-7.969-7.969c-13.135-13.135-30.599-20.369-49.175-20.369h-6.397v-8.036c0-19.265-7.502-37.376-21.124-50.999l-9.952-9.952c-10.216-10.216-23.799-15.843-38.247-15.843h-19.931c-7.721 0-14.98 3.007-20.439 8.466l-5.17 5.169c-5.459 5.459-8.466 12.718-8.466 20.439a4.736 4.736 0 01-4.73 4.73h-8.66v-12.154c0-8.648 3.368-16.78 9.483-22.895l5.849-5.849c5.244-5.243 8.131-12.214 8.131-19.629V92.71c0-.394.32-.713.713-.713H320.5c12.407 0 22.5-10.093 22.5-22.5S332.907 47 320.5 47h-36.671c-2.206 0-4-1.794-4-4s1.794-4 4-4h58.868c58.354 25.338 104.274 74.079 125.849 134.317zm-109.824 118.12l-5.452 5.484a155.066 155.066 0 00-22.913 29.41l-9.918 16.5-12.403 20.492a48.673 48.673 0 00-7.036 25.21v.615a.857.857 0 01-.856.856h-.004a8.78 8.78 0 01-6.247-2.586 8.776 8.776 0 01-2.589-6.25c0-12.58-4.899-24.407-13.794-33.303l-4.591-4.591c-6.947-6.947-10.773-16.183-10.773-26.007v-29.475c0-14.806-12.045-26.851-26.852-26.851H231.8c-8.349 0-15.142-6.792-15.142-15.142v-15.343c0-9.034 7.35-16.384 16.384-16.384h79.886l24.099 24.1c6.003 6.003 9.309 13.984 9.309 22.473v11.464c0 8.56 5.082 15.955 12.386 19.328zM20 251c0-9.444.583-18.752 1.69-27.902h30.619c10.153 0 19.698 3.954 26.876 11.133l8.781 8.78c7.527 7.527 17.534 11.672 28.179 11.672 5.65 0 10.962 2.2 14.957 6.195l.193.193c7.233 7.233 11.217 16.851 11.217 27.081v17.886c0 13.63-5.308 26.444-14.945 36.082l-19.15 19.15c-13.442 13.443-21.939 30.512-24.58 49.002C44.303 368.799 20 312.684 20 251zm231 231c-56.288 0-107.93-20.247-148.049-53.827v-5.423c0-17.881 6.963-34.693 19.607-47.337l19.15-19.15c13.415-13.416 20.803-31.252 20.803-50.224v-17.886c0-15.573-6.064-30.213-17.075-41.224l-.193-.192c-7.772-7.772-18.106-12.053-29.099-12.053a19.72 19.72 0 01-14.036-5.814l-8.781-8.781c-10.957-10.956-25.524-16.99-41.019-16.99h-27.3C47.126 98.635 140.047 20 251 20c7.743 0 15.396.39 22.946 1.138-8.316 3.774-14.117 12.151-14.117 21.862 0 13.234 10.766 24 24 24H320.5c1.378 0 2.5 1.122 2.5 2.5s-1.122 2.5-2.5 2.5h-97.713c-11.421 0-20.713 9.292-20.713 20.713v2.028a7.706 7.706 0 01-2.273 5.486l-5.85 5.85c-9.893 9.893-15.341 23.047-15.341 37.037v13.574c0 10.245 8.334 18.58 18.579 18.58h10.081c13.636 0 24.73-11.094 24.73-24.73 0-2.379.926-4.615 2.608-6.297l5.169-5.169c.203-.203.414-.393.632-.574.167.195.334.389.518.574l19.932 19.932c-3.833 3.911-3.813 10.186.068 14.068 1.953 1.953 4.512 2.929 7.071 2.929s5.119-.976 7.071-2.929l7-7c3.905-3.905 3.905-10.237 0-14.143l-15.45-15.45c8.875.156 17.197 3.677 23.489 9.97l9.953 9.952c9.844 9.844 15.266 22.934 15.266 36.856v.817H233.04c-20.062 0-36.384 16.322-36.384 36.384V245.8c0 19.377 15.765 35.142 35.142 35.142h3.493a6.86 6.86 0 016.852 6.851v29.475c0 15.167 5.906 29.425 16.63 40.15l4.591 4.591c5.118 5.118 7.937 11.923 7.937 19.161 0 7.705 3.001 14.948 8.451 20.396 5.446 5.443 12.685 8.44 20.384 8.44h.015C311.648 410 321 400.644 321 389.149v-.614a28.68 28.68 0 014.146-14.854l12.409-20.502a.226.226 0 01.016-.026l9.928-16.517a135.064 135.064 0 0119.955-25.613l11.147-11.213c4.428-4.455 5.731-11.08 3.319-16.879s-8.029-9.546-14.31-9.546a1.274 1.274 0 01-1.273-1.273v-11.464c0-13.832-5.386-26.835-15.167-36.616l-2.215-2.215c10.49 1.524 20.173 6.357 27.804 13.988l7.969 7.969c6.141 6.141 14.207 9.211 22.272 9.211s16.132-3.07 22.272-9.211c6.024-6.024 9.341-14.033 9.341-22.553 0-8.519-3.317-16.528-9.341-22.553l-3.3-3.3c-.198-.198-.567-.567-.26-1.308s.829-.741 1.109-.741h47.888C479.468 211.761 482 231.09 482 251c0 127.374-103.626 231-231 231z"/><path d="M184 85c5.523 0 10-4.477 10-10V54.494c0-5.523-4.477-10-10-10s-10 4.477-10 10V75c0 5.523 4.477 10 10 10zm266.39 229.63c-5.176-1.93-10.935.702-12.863 5.877C408.652 397.961 333.692 450 251 450c-5.523 0-10 4.477-10 10s4.477 10 10 10c45.543 0 89.207-13.849 126.272-40.048 36.24-25.617 63.556-61.046 78.995-102.458 1.929-5.175-.702-10.934-5.877-12.864zM202.433 444.034a198.232 198.232 0 01-28.554-9.526c-5.092-2.144-10.954.249-13.096 5.339s.249 10.954 5.339 13.096a218.202 218.202 0 0031.445 10.491c.817.205 1.635.303 2.44.303 4.478 0 8.554-3.03 9.692-7.57 1.344-5.358-1.909-10.79-7.266-12.133z"/></g></svg><svg viewBox="0 0 24 24" id="h" xmlns="http://www.w3.org/2000/svg"><g data-name="Layer 2"><path d="M12 1A10.89 10.89 0 001 11.77 10.79 10.79 0 008.52 22c.55.1.75-.23.75-.52v-1.83c-3.06.65-3.71-1.44-3.71-1.44a2.86 2.86 0 00-1.22-1.58c-1-.66.08-.65.08-.65a2.31 2.31 0 011.68 1.11 2.37 2.37 0 003.2.89 2.33 2.33 0 01.7-1.44c-2.44-.27-5-1.19-5-5.32a4.15 4.15 0 011.11-2.91 3.78 3.78 0 01.11-2.84s.93-.29 3 1.1a10.68 10.68 0 015.5 0c2.1-1.39 3-1.1 3-1.1a3.78 3.78 0 01.11 2.84A4.15 4.15 0 0119 11.2c0 4.14-2.58 5.05-5 5.32a2.5 2.5 0 01.75 2v2.95c0 .35.2.63.75.52A10.8 10.8 0 0023 11.77 10.89 10.89 0 0012 1" data-name="github"/></g></svg><svg viewBox="0 0 112.196 112.196" id="l" xmlns="http://www.w3.org/2000/svg"><circle cx="56.098" cy="56.097" r="56.098" fill="#007ab9"/><path d="M89.616 60.611v23.128H76.207V62.161c0-5.418-1.936-9.118-6.791-9.118-3.705 0-5.906 2.491-6.878 4.903-.353.862-.444 2.059-.444 3.268v22.524h-13.41s.18-36.546 0-40.329h13.411v5.715c-.027.045-.065.089-.089.132h.089v-.132c1.782-2.742 4.96-6.662 12.085-6.662 8.822 0 15.436 5.764 15.436 18.149zm-54.96-36.642c-4.587 0-7.588 3.011-7.588 6.967 0 3.872 2.914 6.97 7.412 6.97h.087c4.677 0 7.585-3.098 7.585-6.97-.089-3.956-2.908-6.967-7.496-6.967zm-6.791 59.77H41.27v-40.33H27.865v40.33z" fill="#f1f2f2"/></svg><svg viewBox="0 0 1024 1024" class="ficon" id="logo" xmlns="http://www.w3.org/2000/svg"><path d="M526.629 512L190.17 285.257 533.943 65.83 870.4 285.257z" fill="#cac4c4"/><path d="M526.629 541.257c-7.315 0-7.315 0-14.629-7.314L175.543 307.2c-7.314 0-7.314-14.629-7.314-21.943 0-7.314 7.314-14.628 14.628-21.943L519.314 36.571c7.315-7.314 21.943-7.314 29.257 0L892.343 256c7.314 7.314 14.628 14.629 14.628 21.943 0 7.314-7.314 14.628-14.628 21.943L541.257 533.943s-7.314 7.314-14.628 7.314zm-285.258-256L526.63 475.43 819.2 285.257 526.629 95.086 241.37 285.257z"/><path d="M526.629 716.8L124.343 446.171c-14.629-7.314-21.943-29.257-7.314-36.571 7.314-14.629 21.942-14.629 36.571-7.314l380.343 256 394.971-256c14.629-7.315 29.257-7.315 36.572 7.314s7.314 29.257-7.315 36.571L526.63 716.8z"/><path d="M526.629 877.714L124.343 607.086c-14.629-7.315-21.943-21.943-7.314-36.572 7.314-14.628 21.942-14.628 36.571-7.314l380.343 256 394.971-256c14.629-7.314 29.257-7.314 36.572 7.314 7.314 14.629 7.314 29.257-7.315 36.572L526.63 877.714z"/></svg><svg viewBox="0 0 512 512" id="t" xmlns="http://www.w3.org/2000/svg"><circle cx="256" cy="256" r="256" fill="#47b0d3"/><path d="M34.133 256C34.133 120.352 139.641 9.364 273.066.579A259.94 259.94 0 00256 0C114.615 0 0 114.615 0 256s114.615 256 256 256c5.737 0 11.424-.208 17.067-.579C139.642 502.636 34.133 391.648 34.133 256z" fill="#3298ba"/><path d="M380.263 109.054a8.535 8.535 0 00-8.399-.679L96.777 236.433a13.472 13.472 0 00-7.766 12.501c.117 5.226 3.28 9.92 8.065 12.015l253.613 110.457c8.468 3.849 18.439-2.21 18.983-11.453l14.314-243.341a8.536 8.536 0 00-3.723-7.558z" fill="#e5e5e5"/><path fill="#ccc" d="M171.631 293.421L188.772 408l190.396-299.568z"/><path d="M371.866 108.375L96.777 236.433c-4.737 2.205-7.826 7.121-7.769 12.345.058 5.233 3.276 10.074 8.067 12.171l74.557 32.471 207.536-184.988a8.525 8.525 0 00-7.302-.057z" fill="#fff"/><path fill="#e5e5e5" d="M211.418 310.749L188.772 408l190.396-299.568z"/><path d="M380.263 109.054a8.382 8.382 0 00-1.095-.622l-167.75 202.317 139.27 60.657c8.468 3.849 18.439-2.21 18.983-11.453l14.314-243.341a8.533 8.533 0 00-3.722-7.558z" fill="#fff"/></svg><svg viewBox="0 0 512 512" id="v" xmlns="http://www.w3.org/2000/svg"><circle cx="256" cy="256" r="256" fill="#6f3faa"/><path d="M367.061 140.443c-62.312-15.05-124.735-32.654-188.637-10.288-41.374 15.515-41.374 60.337-39.65 98.263 0 10.343-12.067 24.135-6.896 36.202 10.343 34.478 18.963 68.956 55.165 86.195 5.172 3.448 0 10.343 3.448 15.515-1.724 0-5.172 1.724-5.172 3.448 0 8.263 3.708 20.902 1.245 29.05l110.006 109.96c113.09-18.01 201.478-110.068 213.914-224.921L367.061 140.443z" fill="#512d84"/><g fill="#fff"><path d="M391.427 179.924l-.084-.338c-6.84-27.653-37.678-57.325-65.998-63.498l-.319-.066c-45.806-8.738-92.251-8.738-138.047 0l-.329.066c-28.31 6.173-59.149 35.847-65.998 63.498l-.076.338c-8.456 38.617-8.456 77.781 0 116.398l.076.338c6.558 26.472 35.099 54.782 62.362 62.567v30.868c0 11.173 13.615 16.66 21.357 8.597l31.275-32.509c6.784.379 13.571.591 20.356.591 23.057 0 46.125-2.181 69.023-6.549l.319-.066c28.32-6.173 59.158-35.847 65.998-63.498l.084-.338c8.456-38.618 8.456-77.78.001-116.399zm-24.751 110.799c-4.567 18.041-27.981 40.469-46.585 44.613-24.355 4.632-48.904 6.611-73.428 5.932a1.732 1.732 0 00-1.296.526c-3.481 3.572-22.835 23.442-22.835 23.442l-24.288 24.928c-1.776 1.852-4.896.591-4.896-1.964v-51.136c0-.845-.603-1.562-1.433-1.726l-.014-.003c-18.604-4.144-42.01-26.572-46.585-44.613-7.611-34.906-7.611-70.292 0-105.198 4.575-18.041 27.981-40.469 46.585-44.613 42.536-8.09 85.664-8.09 128.191 0 18.613 4.144 42.018 26.572 46.585 44.613 7.619 34.907 7.619 70.293-.001 105.199z"/><path d="M296.47 314.327c-2.86-.869-5.585-1.452-8.118-2.501-26.231-10.883-50.371-24.923-69.492-46.444-10.874-12.238-19.385-26.055-26.579-40.677-3.412-6.934-6.287-14.139-9.218-21.299-2.672-6.528 1.264-13.272 5.408-18.192 3.889-4.617 8.894-8.149 14.314-10.754 4.23-2.032 8.402-.86 11.492 2.725 6.678 7.752 12.814 15.9 17.78 24.886 3.055 5.527 2.217 12.283-3.32 16.044-1.346.914-2.572 1.988-3.825 3.02-1.1.905-2.134 1.819-2.888 3.044-1.377 2.241-1.443 4.886-.557 7.323 6.827 18.761 18.334 33.351 37.219 41.21 3.022 1.257 6.056 2.72 9.538 2.315 5.83-.681 7.718-7.077 11.804-10.418 3.993-3.265 9.097-3.308 13.398-.586 4.303 2.724 8.473 5.646 12.619 8.601 4.07 2.9 8.121 5.735 11.874 9.042 3.61 3.179 4.853 7.349 2.82 11.662-3.72 7.901-9.135 14.472-16.944 18.668-2.205 1.182-4.839 1.565-7.325 2.331-2.86-.869 2.486-.766 0 0zm-40.399-148.901c34.309.962 62.49 23.731 68.529 57.651 1.029 5.78 1.395 11.688 1.853 17.555.193 2.467-1.205 4.811-3.867 4.844-2.75.033-3.987-2.269-4.167-4.734-.353-4.882-.598-9.787-1.271-14.627-3.551-25.559-23.931-46.704-49.371-51.241-3.829-.683-7.745-.862-11.624-1.269-2.451-.257-5.661-.405-6.204-3.453-.455-2.555 1.701-4.589 4.134-4.72.659-.039 1.324-.008 1.988-.006 34.311.962-.664-.002 0 0z"/><path d="M308.212 233.019c-.057.429-.086 1.436-.338 2.384-.91 3.444-6.134 3.875-7.335.4-.357-1.031-.41-2.205-.412-3.315-.012-7.266-1.591-14.526-5.256-20.849-3.767-6.499-9.523-11.96-16.272-15.267-4.082-1.998-8.495-3.241-12.969-3.98-1.955-.324-3.931-.519-5.896-.793-2.381-.331-3.653-1.848-3.539-4.194.105-2.198 1.712-3.781 4.108-3.644 7.873.446 15.479 2.15 22.48 5.856 14.234 7.539 22.366 19.437 24.74 35.326.107.721.279 1.433.334 2.155.134 1.782.219 3.567.355 5.921-.057.427-.136-2.354 0 0z"/><path d="M286.872 232.188c-2.87.052-4.406-1.538-4.703-4.168-.205-1.834-.369-3.694-.807-5.48-.862-3.517-2.731-6.775-5.689-8.93-1.396-1.017-2.979-1.758-4.636-2.238-2.105-.609-4.293-.441-6.392-.955-2.281-.559-3.543-2.407-3.184-4.546.326-1.948 2.22-3.468 4.349-3.313 13.302.96 22.809 7.837 24.166 23.497.097 1.105.209 2.272-.036 3.331-.422 1.807-1.762 2.714-3.068 2.802-2.871.051 1.306-.088 0 0z"/></g><path d="M391.427 179.924l-.084-.338c-3.834-15.501-15.212-31.635-29.458-43.911l-19.259 17.068c11.452 9.125 21.264 21.766 24.052 32.78 7.62 34.907 7.62 70.292 0 105.2-4.567 18.041-27.982 40.469-46.585 44.613-24.355 4.632-48.904 6.611-73.428 5.932a1.732 1.732 0 00-1.296.526c-3.481 3.572-22.835 23.442-22.835 23.442l-24.288 24.928c-1.776 1.852-4.896.593-4.896-1.964v-51.136c0-.845-.603-1.562-1.433-1.726l-.014-.002c-10.573-2.355-22.692-10.618-32.028-20.621l-19.03 16.863c11.885 12.929 27.214 23.381 42.168 27.651v30.868c0 11.173 13.615 16.66 21.357 8.597l31.275-32.509c6.784.379 13.569.591 20.356.591 23.057 0 46.125-2.181 69.023-6.549l.319-.065c28.32-6.173 59.158-35.845 65.998-63.498l.084-.338c8.457-38.621 8.457-77.783.002-116.402z" fill="#d1d1d1"/><path d="M296.47 314.327c2.486-.766-2.86-.869 0 0z" fill="#fff"/><path d="M317.921 281.664c-3.753-3.305-7.806-6.142-11.874-9.042-4.146-2.955-8.316-5.877-12.619-8.601-4.301-2.722-9.404-2.679-13.398.586-4.086 3.341-5.973 9.737-11.804 10.418-3.481.405-6.516-1.059-9.538-2.315-11.619-4.834-20.435-12.226-27.098-21.559l-14.16 12.55c.481.557.94 1.129 1.429 1.679 19.122 21.521 43.263 35.561 69.492 46.444 2.531 1.05 5.258 1.634 8.118 2.501-2.86-.869 2.488-.765 0 0 2.488-.765 5.12-1.15 7.327-2.332 7.811-4.196 13.224-10.768 16.944-18.668 2.034-4.312.791-8.482-2.819-11.661z" fill="#d1d1d1"/><path d="M256.159 165.431c-.029 0-.057-.003-.086-.003-.028-.002.008 0 .086.003zm-.087-.005c.029 0 .057.003.086.003 1.904.068 32.872.921-.086-.003z" fill="#fff"/><path d="M305.285 185.837l-6.037 5.351c9.487 9.23 16.029 21.463 17.899 34.925.672 4.842.919 9.745 1.272 14.627.179 2.467 1.415 4.768 4.167 4.736 2.663-.033 4.06-2.376 3.867-4.844-.459-5.866-.824-11.776-1.853-17.555-2.643-14.848-9.53-27.559-19.315-37.24zm2.236 39.102c-1.729-11.578-6.532-21.026-14.51-28.224l-6.02 5.335c3.113 2.763 5.806 6.008 7.88 9.587 3.665 6.323 5.244 13.583 5.256 20.849.002 1.11.055 2.284.412 3.317 1.203 3.477 6.425 3.046 7.335-.4.252-.95.281-1.957.338-2.384-.057.429-.138-2.353 0 0-.138-2.353-.222-4.139-.357-5.923-.053-.725-.226-1.437-.334-2.157z" fill="#d1d1d1"/><g fill="#fff"><path d="M308.212 233.019c-.136-2.354-.057.427 0 0zm-21.34-.831c.045-.003.088-.026.131-.031-.121 0-.307.003-.498.01.124.003.237.022.367.021z"/><path d="M286.872 232.188c-.129.002-.243-.017-.367-.021-.621.017-1.262.05.367.021zm.131-.031c-.045.005-.088.028-.131.031.336-.023.307-.031.131-.031z"/></g><path d="M280.814 207.525l-6.128 5.432c.338.205.669.419.99.652 2.958 2.155 4.827 5.413 5.689 8.93.438 1.786.6 3.644.807 5.48.283 2.513 1.71 4.058 4.336 4.148.191-.005.379-.009.498-.01 1.264-.14 2.531-1.026 2.936-2.774.245-1.057.133-2.226.036-3.331-.762-8.755-4.072-14.762-9.164-18.527z" fill="#d1d1d1"/></svg></svg>